<!-- Generated by IcoMoon.io -->
<svg version="1.1" xmlns="http://www.w3.org/2000/svg" width="136" height="252" viewBox="0 0 136 252">
<title>callcenter</title>
<path fill="#e8ecf1" d="M61.561 128.308c13.189 29.105 41.424 41.774 55.439 41.774 9.215 0 24.578-5.482 37.77-17.507-4.823 0.336-9.979 0.507-15.488 0.507-1.293 0-2.649-0.012-4.098-0.034-2.777 2.139-6.217 3.345-9.787 3.345h-11.738c-8.846 0-16.042-7.196-16.042-16.042s7.196-16.042 16.042-16.042h11.738c4.24 0 8.206 1.653 11.148 4.503 0.977 0.011 1.941 0.016 2.886 0.016 15.153 0 25.138-1.39 31.671-3.066-0.847-2.062-1.309-4.318-1.309-6.673v-40.673c0-4.231 1.57-8.287 4.286-11.42-1.449-11.28-4.079-19.892-8.004-26.244-8.088-13.091-23.682-19.187-49.074-19.187-21.065 0-35.611 4.373-44.469 13.368-6.867 6.973-10.846 16.923-12.706 31.949 2.777 3.145 4.382 7.242 4.382 11.534v40.673c0.001 3.384-0.972 6.543-2.647 9.219z"></path>
<path fill="#e8ecf1" d="M32.701 128.691h14.081c5.301 0 9.602-4.299 9.602-9.602v-40.673c0-3.543-1.924-6.63-4.779-8.294 3.144-33.304 15.996-56.384 65.397-56.384 28.369 0 46.078 7.277 55.731 22.901 5.617 9.091 8.319 20.834 9.581 33.533-2.809 1.675-4.695 4.735-4.695 8.243v40.673c0 4.572 3.199 8.39 7.478 9.358-6.207 4.060-19.057 8.206-45.665 8.206-2.155 0-4.402-0.027-6.742-0.084-1.369-2.633-4.117-4.435-7.291-4.435h-11.737c-4.537 0-8.216 3.679-8.216 8.216s3.679 8.216 8.216 8.216h11.737c2.742 0 5.165-1.348 6.656-3.412 2.471 0.063 4.891 0.102 7.229 0.102 29.992-0.001 49.058-5.12 56.78-15.277 0.329-0.432 0.628-0.862 0.901-1.288h4.337c5.302 0 9.602-4.299 9.602-9.602v-40.673c0-5.302-4.299-9.602-9.602-9.602h-5.296c-1.49-15.344-4.793-28.405-11.587-39.398-12.229-19.794-34.284-29.415-67.42-29.415-33.138 0-55.19 9.622-67.42 29.416-6.793 10.993-10.095 24.053-11.585 39.398h-5.295c-5.303 0-9.602 4.298-9.602 9.602v40.673c0 5.302 4.3 9.602 9.603 9.602z"></path>
<path fill="#e8ecf1" d="M233.085 248.293c-3.193-19.85-9.765-45.42-22.947-54.505-8.988-6.198-40.367-22.964-53.766-30.122l-0.282-0.15c-1.534-0.819-3.405-0.655-4.772 0.418-7.029 5.518-14.725 9.235-22.872 11.047-1.44 0.32-2.622 1.344-3.146 2.723l-8.302 21.88-8.302-21.88c-0.523-1.38-1.706-2.403-3.146-2.723-8.147-1.813-15.844-5.53-22.874-11.047-1.366-1.074-3.238-1.238-4.771-0.418-13.25 7.079-45.035 24.196-54.008 30.246-15.18 10.227-21.81 47.22-22.984 54.532-0.117 0.725-0.049 1.467 0.196 2.159 0.543 1.534 14.467 37.547 115.888 37.547 101.42 0 115.345-36.014 115.889-37.547 0.246-0.693 0.313-1.436 0.196-2.161zM185.862 225.498h-40.17v-8.46h40.17v8.46z"></path>
</svg>
