<svg xmlns="http://www.w3.org/2000/svg" viewBox="101.667 1080 186.504 202.8">
    <defs>
        <style>.a{fill:#b9cbe6;}</style>
    </defs>
    <path class="a" transform="translate(60.367 1077.8)"
          d="M 66.86 151.947 a 2.787 2.787 0 0 0 -0.659 -2.04 a 2.9 2.9 0 0 1 -3.761 1.126 c -0.212 0.51 -0.085 1.891 0.574 2.188 A 2.768 2.768 0 0 0 66.86 151.947 Z m -2.741 2.125 c -1.763 5.5 7.16 3.8 2.613 -0.85 A 4.867 4.867 0 0 1 64.119 154.072 Z m -6.65 -27.387 a 0.991 0.991 0 0 0 -1.041 -0.807 a 1.642 1.642 0 0 1 -2.04 0.659 c -0.467 0.319 -0.467 0.744 -0.191 1.36 A 2.376 2.376 0 0 0 57.469 126.685 Z m -2.953 -1.254 a 0.777 0.777 0 0 0 0.722 0.722 a 0.753 0.753 0 0 0 0.659 -0.722 a 0.732 0.732 0 0 0 -0.659 -0.7 a 0.741 0.741 0 0 0 -0.722 0.7 Z m 11.24 23.839 l -8.732 -21.183 a 1.777 1.777 0 0 1 -1.36 0.51 l 6.82 21.48 c 1.232 1.169 2.635 0.382 3.272 -0.807 Z m -1.041 8.86 c -0.85 0.446 -0.595 1.955 0.531 2.295 c 2.167 0.149 2.89 -0.127 4.993 -1.572 c 0.191 -1.317 0 -1.912 -1.317 -2.082 C 68.368 157.79 65.691 158.576 64.714 158.13 Z m 81.311 -47.253 a 8.212 8.212 0 0 1 -1.721 -0.446 l 0.319 0.744 c 0.51 0.085 1.19 0.319 1.509 0.319 l -0.106 -0.616 Z m 53.882 39.774 l -0.276 7.543 l 7.606 0.935 C 206.344 155.516 203.391 150.927 199.907 150.651 Z M 72.851 181.544 C 72.724 182.8 73 184.9 74.87 184.9 a 5.815 5.815 0 0 0 4.738 -1.445 c 0.807 -0.744 0.085 -2.635 -0.85 -3.527 C 76.867 183.328 75.273 182.415 72.851 181.544 Z m 3.145 4.1 c 1.445 2.953 4.589 1.1 3.527 -1.254 A 7.236 7.236 0 0 1 76 185.644 Z m 126.779 -15.616 c -1.19 -0.7 -2.082 -0.255 -2.486 1.572 c -0.51 0.637 -1.381 1.062 -3.336 1.657 a 11.075 11.075 0 0 0 -3.718 2.167 a 0.789 0.789 0 0 0 1.062 0.255 c 0.722 -0.319 3.463 -0.531 4.186 -1.169 a 21.99 21.99 0 0 1 2.635 -1.912 c 1.02 0.191 2.911 -1.933 1.657 -2.571 Z M 55.663 124.347 a 2.118 2.118 0 0 0 0.659 -1.53 a 1.944 1.944 0 1 0 -3.888 0 a 1.825 1.825 0 0 0 1.785 1.912 A 0.945 0.945 0 0 1 55.663 124.347 Z m 58.471 0.382 c 0.7 0.085 1.763 -2.868 1.763 -2.868 a 6.281 6.281 0 0 1 -0.212 2.868 c 1.169 -0.4 2.1 -2.953 2.1 -2.953 a 7.069 7.069 0 0 1 -0.212 2.8 c 2.38 -0.765 2.295 -6.629 3.952 -7.734 c -1 0.871 2.21 6.841 -1.445 7.819 c 0.446 1.36 -0.382 5.992 -1.36 7.245 c -0.914 1.317 -0.042 1.551 0.085 1.763 c 0.191 0.149 -0.319 1.636 -0.319 2.231 c 1.912 1.53 3.166 -0.064 3.166 -0.212 a 4.932 4.932 0 0 0 -0.574 -1.509 c -0.786 -3.145 1.445 -6.183 1.785 -6.714 s 3.952 -1.955 4.334 -2.1 c 0.34 -0.191 1.041 0.659 1.126 1.126 c 0.064 0.574 -0.7 0.85 -0.531 1.615 c 0.064 0.744 2.677 2.358 2.7 2.358 c -0.021 0 1.572 1.317 1.721 1.912 a 0.853 0.853 0 0 0 0.914 0.659 c 0.276 0.085 1.062 0.722 1.1 1.169 c 1.232 1.062 2.316 0.871 2.38 0.786 c 0 0 -0.127 -1.424 -0.127 -1.509 c -0.212 -0.637 -1.445 -1.317 -2.443 -1.763 A 40.732 40.732 0 0 0 131.216 128 c -0.595 -0.574 -0.276 -0.935 0.085 -1.19 a 14.035 14.035 0 0 0 2.1 -2.635 l 3.23 7.373 a 3.005 3.005 0 0 1 0.064 1.445 c 2.018 4.653 -2.868 2.04 -2.868 1.594 a 1.08 1.08 0 0 0 -1.041 -1 c -7.8 -5.184 -9.646 -0.467 -8.775 1.785 a 7.067 7.067 0 0 1 -2.018 0.786 c -1.955 1.912 -3.654 0.595 -4.016 0.127 c -2.295 0.085 -2.252 -2.38 -2.018 -5.184 c -5.184 9.327 6.374 8.01 8.329 6.48 c -0.276 0.212 0.212 1.062 0.595 1.126 a 3.33 3.33 0 0 0 2.167 0.85 c -0.191 0.212 -0.064 0.7 0.34 0.935 l 0.807 -0.382 c 0.467 0 2.252 0.446 2.38 0.935 l -0.7 0.51 a 1.055 1.055 0 0 0 0.7 1 l 0.914 -0.574 c 0.149 0.127 1.827 0.51 1.955 1 l -0.4 0.574 a 0.97 0.97 0 0 0 0.935 0.637 l 4.313 -3.718 c 1.317 1 3.23 0.531 3.1 -0.51 l 3.994 3.272 a 1.4 1.4 0 0 0 1.062 -1.041 l -0.85 -0.765 c -0.127 -0.786 1.19 -1.53 1.955 -1.36 l 1 0.7 a 1.646 1.646 0 0 0 0.722 -1.169 l -0.871 -0.637 c 0.149 -0.807 0.446 -1.1 1.062 -1.232 l 0.977 0.276 a 1.722 1.722 0 0 0 0.276 -1.126 l -0.871 -0.212 c -0.191 -0.446 0.34 -1.487 0.659 -2.316 c 0 0 0.595 0.085 0.637 -0.149 a 1.308 1.308 0 0 0 -0.212 -1.126 l -3.761 0.574 a 4.464 4.464 0 0 0 0.659 1.636 a 11.081 11.081 0 0 1 1.041 2.231 l -3.591 0.085 c -0.34 -0.127 -0.212 -1.509 -0.085 -2.04 l -0.446 -1.657 l -4.8 0.659 s -0.467 -2.316 -0.744 -1.976 c -0.255 0.382 -1.3 -4.186 -2.443 -3.357 l -0.977 -2.358 c 0.51 -0.191 3.293 0.34 4.377 0.212 c -0.212 -0.807 -1.572 -1.848 -2.741 -2.358 c -2.146 0.064 -1.636 -0.807 -1.572 -0.85 c -0.064 0.021 1.955 -0.446 3.1 -0.765 c 1.232 0.319 3.038 3.591 3.548 4.611 c -0.212 2.146 0.871 2.295 1.487 2.613 c 0.574 0.34 1.594 5.333 1.594 5.269 a 3.589 3.589 0 0 0 0 1.7 l 2.8 -0.021 a 5.467 5.467 0 0 0 -1.19 -1.785 l -1.657 -5.97 c 0.467 -1.636 0 -2.868 -0.659 -3.166 c -0.659 -0.319 -0.255 -0.914 -0.467 -2.7 c 1.169 -1.19 3.931 -1.785 5.524 -2.295 a 5.834 5.834 0 0 0 0.744 0.659 a 28.248 28.248 0 0 0 -1.126 3.676 l -1.126 -1.126 l -1.3 2.741 c 3.1 2.018 4.611 -2.295 4.844 -5.375 c 2.04 -1.36 0.914 -4.186 -1.721 -2.868 c 0 0 -2.358 0.085 -3.612 0.127 c 0.085 -4.4 -4.717 -10.687 -2.443 -13.109 c -1.041 3.336 2.8 3.272 2.295 5.439 c 3.527 1.593 3.421 -0.871 3.527 -1.36 a 11.563 11.563 0 0 0 -0.871 -3.548 c -0.382 -0.765 0.276 -2.316 -0.467 -3.548 l 1.424 -1.232 l -2.295 -0.765 l 0.34 -1 l -1.041 -0.064 c -2.295 -4.058 -5.949 -2.231 -5.949 -2.231 a 5.077 5.077 0 0 1 1.509 0.807 c -0.871 -0.149 -5.035 1.572 -5.035 1.572 a 13.022 13.022 0 0 1 2.38 0.637 l -3.293 2.21 l 0.765 0.276 l -1.36 1.445 a 6.115 6.115 0 0 0 -1.912 0 c -1 -2.018 -2.507 -4.058 -1.169 -4.249 l 1.912 0.34 c 4.8 -8.541 -4.908 -6.693 -6.565 -4.653 c -1.7 2.082 -0.446 2.38 0.722 1.976 l 0.935 1.1 c -1.1 0.871 -4.4 -0.914 -5.333 -0.914 c -0.871 0 -0.871 -0.7 -0.659 -1.424 c 0.149 -0.765 -0.212 -2.677 -1.721 -3 l -0.871 -1.763 l -0.807 0.446 l 0.807 1.912 c -0.786 0.319 -0.807 1.763 0.149 3.718 a 43.434 43.434 0 0 0 -6.544 4.844 l 1.36 1.445 l 3.293 -3.038 l 0.51 0.212 l -4.462 4.462 l 2.167 1.424 l 3.166 -2.953 h 0.595 l -3.973 4.143 l 2.167 1 l 3.8 -4.589 l 0.51 0.064 l -3.1 4.016 l 3.017 0.51 l 1.317 -1.636 l 1.785 0.637 l 0.467 1.317 l -1.509 0.191 l 0.467 2.953 a 19.2 19.2 0 0 0 -3.739 1.53 c -5.843 -6.459 -8.414 5.779 -8.775 9.965 Z m 6.5 12.6 a 10.7 10.7 0 0 0 2.741 -1.19 l 0.212 0.7 a 8.438 8.438 0 0 1 -2.953 0.489 Z m 21.268 2.55 l 0.191 -0.977 l 3.484 3.676 Z m 6.48 0.064 l -6.162 -1.912 l -0.319 -0.977 Z m -6.48 -3.187 l -0.085 -0.7 l 2.826 0.4 l 0.127 0.467 Z m 2.72 -2.252 l 0.064 0.467 l -2.868 0.722 l -0.212 -0.786 l 3.017 -0.4 Z m -3.442 5.057 c 0.276 -0.659 -0.4 -2.613 -0.871 -4.079 C 140.9 135.906 142.094 139.114 141.181 139.56 Z m -14.851 -4.589 a 5.814 5.814 0 0 0 0.446 1.785 l -0.595 0.085 c -1.785 -4.738 2.082 -3.166 4.972 -1.466 c -5.545 -1.084 -4.823 -0.4 -4.823 -0.4 Z m 2.868 0.4 l -0.021 0.531 a 15.237 15.237 0 0 0 -2.21 0.021 l -0.064 -0.7 c 0.552 0.021 2.167 0.085 2.295 0.149 Z m -2 -3.676 l 0.127 0.51 c -0.574 0 -1.594 0.255 -1.721 0.51 l -0.446 -0.51 A 2.95 2.95 0 0 1 127.2 131.7 Z m -2.592 5.843 a 3.8 3.8 0 0 1 -0.319 -1.721 h 0.4 a 7.858 7.858 0 0 0 0.319 1.53 l -0.4 0.191 Z m 0.212 -2.72 l -0.51 0.149 a 2.057 2.057 0 0 1 0.319 -1.721 l 0.382 0.34 Z m 0.319 3.272 c 2.146 -1.232 6.119 -2.358 7.734 -2.167 l 0.4 0.595 a 27.24 27.24 0 0 0 -8.137 1.572 Z m 2.422 1.678 l 6.629 -2.571 l 0.467 0.595 l -7.1 1.976 Z M 130.6 141.6 l 5.057 -3.293 l 0.574 0.51 L 130.6 141.6 Z m 7.16 -1.466 l -3.931 3.166 l 3.421 -3.654 l 0.51 0.489 Z m 9.03 -33.761 c -0.149 0.064 -0.382 -0.064 -0.51 -0.382 s -0.127 -0.574 0 -0.659 a 0.618 0.618 0 0 1 0.574 0.446 c 0.085 0.255 0.085 0.552 -0.064 0.595 Z m 1.657 -0.722 c -2.1 -1.254 -1.254 -1.976 -1.53 -2.932 C 148.235 105.034 147.385 104.439 148.447 105.65 Z m -1.1 -5.184 l -0.531 1.424 l -1.424 -1.254 l 1.955 -0.17 Z m -2.783 22.1 l -0.935 0.021 l -0.659 -2.082 l 0.807 -0.127 l 0.531 1.041 l 1.445 -2.1 l 0.637 0.574 l -1.827 2.677 Z m 0.744 -6.417 c 0.382 0.127 0.977 1.487 0.637 1.593 c -0.4 0.127 -0.722 -0.021 -1.487 -0.722 c -0.744 -0.659 -2.38 -1.3 -5.907 -0.574 l -0.191 -0.7 a 10.492 10.492 0 0 1 5.5 0 a 1.075 1.075 0 0 1 1.445 0.4 Z m -7.479 -11.027 a 6.252 6.252 0 0 1 2.018 -2.146 l -0.659 -0.212 a 5.917 5.917 0 0 1 2.252 -1.466 l -0.637 -0.127 a 5.189 5.189 0 0 1 3.654 -0.871 v 0.467 c -3.761 0.319 -5.035 3.145 -6.31 6.841 l -0.34 -0.4 a 2.377 2.377 0 0 1 0.7 -1.848 Z m -0.34 2.486 c 1.445 0.68 4.419 2.38 5.779 2.38 l 0.34 0.765 c -0.977 0.085 -4.611 -1.657 -6.5 -2.7 Z m -0.574 0.7 c 2.868 1.912 6.353 3.782 7.288 3.888 l 0.191 0.722 c -0.786 -0.021 -4.547 -1.912 -7.564 -3.931 l 0.085 -0.68 Z m -2.4 -1.275 a 1.241 1.241 0 0 0 1.572 0.149 c 0.34 -0.276 0.765 0.212 0.7 0.446 c -0.085 0.319 -0.085 1.509 -0.7 1.36 c -0.574 -0.021 -1.891 0.85 -1.785 0.574 C 134.4 109.3 134.445 106.989 134.509 107.031 Z m 0.212 3.463 l 0.51 -0.276 a 17.337 17.337 0 0 0 2.358 5.928 c 1.424 2.273 0.744 4.377 -1.317 4.589 l -0.276 -0.914 c 1.126 -0.255 2.635 -0.446 0.807 -3.676 c -0.021 1.3 -0.149 2.295 -1.254 2.082 l -0.255 -0.85 c 0.977 -0.085 1.466 -1.232 -0.212 -4.186 a 1.511 1.511 0 0 0 -0.637 0 l -0.276 -1.317 C 134.743 112.662 135.4 113.3 134.722 110.495 Z m -1.254 1 c 0.191 0.637 1.636 6.034 1.509 7.351 c 0.637 0.467 0.977 3.081 1 4.462 l -0.744 0.127 c 0.085 -2.316 -0.51 -3.761 -1.19 -4.462 c 0.914 -1.254 -0.446 -4.441 -1.36 -6.756 c -2.635 -0.722 -1.232 -0.914 -0.085 -0.914 c -2.316 -1.317 -1.657 -1.445 -0.255 -0.744 c 1.381 0.786 -0.064 -1.487 -0.064 -1.487 a 1.887 1.887 0 0 0 1.53 -0.34 a 2.679 2.679 0 0 1 -0.637 1.041 a 10.693 10.693 0 0 1 0.3 1.721 Z m -1.02 -11.643 c -0.212 -0.127 -0.34 -0.34 -0.255 -0.382 c 0.021 -0.085 0.255 -0.085 0.467 0.021 c 0.255 0.127 0.34 0.34 0.276 0.446 c 0 0.106 -0.255 0.042 -0.489 -0.085 Z m 2.358 -2.231 c 0.4 0.34 -0.446 2.231 -0.977 2.55 c -0.212 0.085 -0.595 0.085 -0.382 -0.34 c 0.149 -0.446 1.1 -1.317 0.935 -1.7 c -0.212 -0.4 -1.254 -1.169 -1.593 -0.977 c -0.467 0.127 -1.126 1.827 -1.36 2.1 c -0.255 0.255 -0.531 -0.064 -0.595 -0.064 c 1.062 -2.231 1.487 -4.058 3.973 -1.572 Z m -2.125 5.333 a 16.94 16.94 0 0 0 -2.252 -2.443 A 2.845 2.845 0 0 1 132.682 102.952 Z m -2.932 -2.061 c 1.572 3.994 1.1 8.1 -0.212 9.072 l -0.127 -0.765 c 1.232 -0.212 1 -6.183 0.34 -8.307 Z m -0.149 3.633 l -0.531 0.127 c -0.467 -1.36 -0.807 -0.85 -2.422 -0.786 l -0.127 -0.574 c 1.955 -0.17 2.635 -0.467 3.081 1.232 Z m -1.955 -4.547 l 0.595 0.319 a 7.16 7.16 0 0 0 -2.613 0.871 l -0.128 -0.574 a 4.633 4.633 0 0 1 2.146 -0.616 Z m -6.1 -0.467 l 0.34 0.319 c -0.021 2.358 -0.127 3.867 2.8 3.4 l 0.149 0.595 c -3.761 0.212 -3.569 -1.424 -3.293 -4.313 Z m 1.827 -1.232 l 1.126 1.1 l 10.942 26.9 l -1.912 -2.89 L 123.376 98.278 Z m 4.313 15.871 c 0.744 4.462 1.169 5.184 3.357 4.589 l 0.276 0.7 a 11.563 11.563 0 0 1 -2.55 -0.127 c -0.574 -0.191 -0.4 1.169 -0.276 1.509 c 0.085 0.446 2.1 0.319 3.421 0.085 l 0.212 0.574 a 12.131 12.131 0 0 1 -3.229 0.191 c -0.446 -0.085 -0.212 0.722 -0.064 1.1 c 0.212 0.382 1.891 0.7 3.952 0.7 l 0.212 0.574 a 8.119 8.119 0 0 1 -3.612 -0.51 c -0.85 -0.255 -1.169 -0.021 -1.636 1.19 l -0.446 -0.34 c 1.594 -2.04 0.446 -6.183 -0.51 -10.326 l 0.892 0.085 Z M 227.8 77.073 c -3.166 -1.445 -5.652 -1.657 -11.282 -0.4 c 2.486 -1.785 7.5 -7.925 8.52 -11.813 c -5.652 -0.4 -9.306 1.509 -12.451 2.677 c 9.71 -7.606 10.113 -12.217 9.115 -18.888 C 216.713 53.7 201.288 65.9 201.373 65.9 c -0.085 0 7.755 -8.159 13.47 -14.894 c 5.758 -6.841 3.145 -13.407 -0.4 -18.357 c -0.722 3.463 -10.028 17.8 -17.507 24.285 l -0.51 -1.317 c -0.255 1.827 -5.4 8.839 -8.456 11.367 l -0.531 -1.254 c -1.572 2.486 -10.9 10.453 -14.83 14.49 c -3.867 4.058 -2.38 8.01 -0.085 10.156 c 2.422 2.146 3.463 4.4 0.7 8.137 c -2.635 3.824 -9.986 3.293 -13.322 -1 c 6.905 -2.741 6.183 -7.033 4.589 -10.39 c -4.143 5.97 -6.65 3.463 -10.241 0.212 A 7.921 7.921 0 0 0 161.6 82.6 c -7.075 0.871 -9.264 -1.891 -10.3 -6.225 c -1.1 -4.271 3.336 -9.264 8.456 -12.684 a 5.258 5.258 0 0 0 2.146 0.531 c 0.871 -0.021 1.955 -1.381 3.1 -1.955 c 5.163 -0.807 7.755 1.424 7.266 6.778 c 1.848 -0.935 2.167 -4.016 1.508 -5.907 c -0.659 -1.848 -2.316 -2.146 -2.1 -2.422 c 0.255 -0.276 2.358 1.1 4.207 2.826 c 1.763 1.785 5.907 1.785 7.67 1.041 c 1.721 -0.85 2.677 -3.421 3.166 -5.907 c -1.232 2.231 -4.441 3.336 -6.31 3.166 c -1.827 -0.191 -5.439 -2.932 -8.669 -3.612 c 2.7 -2.316 6.438 -0.722 8.8 1.169 c 4.929 -6.714 1.254 -9.582 -1.3 -10.815 c -2.55 -1.3 -3.272 -0.276 -3.824 -0.637 c -0.574 -0.255 -1.3 -1.3 -2.613 -1.7 v -0.786 c 5.12 -0.085 7.691 -2.273 10.05 -4.249 c 2.422 -1.955 1.572 -7.033 0.722 -9.582 c -0.85 -2.613 0.914 -2.953 1.763 -2.443 c 0.807 0.51 5.439 2.1 5.439 2.1 s 0.446 0.34 0.914 1.955 a 3.669 3.669 0 0 1 -0.467 3.463 c -0.722 0.977 -2.55 3.145 -2.677 5.949 c -0.149 2.89 1.955 4.4 2.146 6.31 c 0.255 2.04 -2.146 3.166 -2.146 3.166 a 3.1 3.1 0 0 0 2.146 0.531 a 6.816 6.816 0 0 0 4.781 -3.931 c 0.744 -2.082 -1.827 -4.738 -1.827 -4.738 a 8.388 8.388 0 0 0 2.953 1 c 1.317 0.191 1.19 -0.467 2.358 -0.149 c 1.126 0.34 1.254 2.018 1.254 2.018 a 4.429 4.429 0 0 0 1.466 -2.04 c 0.382 -1.317 0.765 -4.186 -2.762 -4.441 c -3.612 -0.276 -2.868 -1.509 -0.935 -3.761 c 2.018 -2.316 2.04 -6.162 -1.785 -7.011 a 9.778 9.778 0 0 1 -6.969 -5.12 c -1.445 -2.443 -5.1 -2.741 -9.858 -1.317 c -4.653 1.445 -2.295 7.691 -0.85 11.3 c 1.53 3.548 1.466 4.717 0.531 6.48 c -0.935 1.7 -4.611 2.762 -6.905 2.741 V 42.123 c 1.891 -2.932 2.89 -7.2 2.21 -8.924 c -0.595 -1.721 -3.654 -2.613 -5.439 -2.571 c -1.891 0.064 -1.848 0.064 -1.848 0.064 a 1.754 1.754 0 0 0 0.128 -3.145 V 26.124 h 1.169 V 23.7 h -1.1 V 22.469 h -2.7 v 1.19 h -1.126 V 26.1 h 1.126 v 1.424 a 1.9 1.9 0 0 0 0.127 3.145 l -1.785 -0.064 c -1.827 -0.042 -4.866 0.85 -5.524 2.571 c -0.595 1.721 0.382 5.992 2.167 8.881 l -0.127 2.04 c -6.48 -1.19 -8.286 -2.018 -15.425 -9.37 l 0.085 -1.3 c 4.271 -9.837 4.674 -9.519 4.8 -12 c 0.064 -2.507 0 -8.01 -9.519 -8.839 c -0.042 1.1 -1.466 2.295 -2.486 -0.51 c 1.509 -1.169 1.657 -3.888 0.085 -4.207 l -0.4 -1.7 l 1.7 0.595 V 3.581 l -1.827 0.595 l 0.7 -1.976 h -3.654 l 0.574 1.955 l -1.721 -0.7 v 3.23 l 1.657 -0.51 l -0.51 1.594 c -1.53 0.467 -1.593 3.145 -0.021 4.207 c -1.062 2.8 -2.486 1.572 -2.486 0.467 c -9.455 0.659 -9.773 6.055 -9.773 8.541 c 0.127 2.507 0.467 2.188 4.526 12.153 l 0.021 1.36 c -7.33 7.1 -8.732 7.883 -15.276 8.881 v -2.04 c 1.785 -2.8 2.932 -7.1 2.316 -8.86 c -0.574 -1.657 -3.654 -2.677 -5.46 -2.677 l -1.785 0.021 a 1.911 1.911 0 0 0 0.064 -3.166 V 25.168 h 1.232 v -2.4 H 105.7 v -1.19 h -2.507 v 1.19 h -1.169 V 25.21 h 1.1 v 1.381 a 1.769 1.769 0 0 0 0 3.23 s -0.17 -0.021 -1.763 -0.127 c -1.891 -0.127 -4.929 0.7 -5.567 2.358 c -0.659 1.763 0.191 6.055 2.018 9.009 l -0.064 1.53 c -2.316 0 -5.907 -1.169 -6.841 -2.89 c -0.871 -1.721 -0.871 -2.932 0.7 -6.5 c 1.593 -3.527 4.122 -9.731 -0.574 -11.24 c -4.611 -1.53 -8.35 -1.424 -9.837 1 a 9.721 9.721 0 0 1 -7.16 4.972 c -3.8 0.786 -3.888 4.547 -1.976 6.948 c 1.955 2.316 2.613 3.548 -0.935 3.718 c -3.591 0.149 -3.293 3.038 -2.932 4.377 a 4.133 4.133 0 0 0 1.381 2.1 s 0.149 -1.657 1.381 -1.976 c 1.19 -0.319 1 0.382 2.358 0.276 a 8 8 0 0 0 2.911 -0.977 s -2.7 2.571 -1.891 4.717 a 6.579 6.579 0 0 0 4.611 3.952 a 2.983 2.983 0 0 0 2.167 -0.446 S 78.8 49.453 78.97 47.456 c 0.382 -1.912 2.443 -3.357 2.422 -6.289 c -0.127 -2.868 -1.891 -4.972 -2.55 -5.97 a 3.527 3.527 0 0 1 -0.34 -3.463 c 0.467 -1.636 0.935 -1.912 0.935 -1.912 s 4.611 -1.53 5.46 -2.018 c 0.85 -0.446 2.613 -0.127 1.721 2.443 c -0.977 2.613 -1.891 7.606 0.446 9.71 c 2.316 1.955 4.8 4.143 9.858 4.441 V 45.2 c -1.3 0.319 -2.018 1.36 -2.613 1.594 c -0.574 0.319 -1.254 -0.7 -3.8 0.467 c -2.613 1.254 -6.353 3.888 -1.657 10.39 c 2.55 -1.827 6.225 -3.336 8.86 -0.977 c -3.208 0.637 -6.884 3.23 -8.8 3.421 c -1.848 0.149 -5.035 -1.1 -6.162 -3.293 c 0.446 2.188 1.381 5.057 3.038 5.928 c 1.7 0.85 5.822 0.935 7.67 -0.85 c 1.848 -1.7 3.952 -2.932 4.207 -2.741 c 0.191 0.276 -1.445 0.574 -2.082 2.422 c -0.744 1.827 -0.51 4.993 1.3 5.864 c -0.382 -5.312 2.252 -7.543 7.479 -6.565 c 1.1 0.574 2.21 1.976 3.038 2.082 a 5.885 5.885 0 0 0 2.1 -0.51 c 5.035 3.612 8.945 8.6 7.734 12.939 c -1.126 4.334 -2.975 6.969 -10.028 5.907 a 7.732 7.732 0 0 0 7.139 4.929 c -3.612 3.081 -6.247 5.567 -10.156 -0.531 c -1.7 3.4 -2.507 7.628 4.313 10.581 c -3.463 4.207 -10.836 4.5 -13.322 0.595 c -2.635 -3.761 -1.572 -5.97 0.85 -8.074 c 2.358 -2.082 3.931 -6.034 0.191 -10.177 c -3.8 -4.122 -12.918 -12.281 -14.512 -14.83 l -0.446 1.254 c -2.953 -2.7 -8.01 -9.795 -8.137 -11.6 l -0.595 1.317 c -7.288 -6.289 -16.148 -20.864 -16.849 -24.285 c -3.654 4.8 -6.417 11.3 -0.871 18.293 c 5.524 6.438 13.13 14.851 13.13 14.809 c 0 0.064 -15.021 -12.472 -19.887 -17.337 c -1.19 6.247 -0.914 10.836 8.541 18.718 c -3.038 -1.317 -6.693 -3.336 -12.323 -3.081 c 0.977 3.931 5.758 10.22 8.2 12.068 c -5.524 -1.424 -8.01 -1.3 -11.176 0.127 c 1.36 2.8 6.034 8.01 9.306 9.5 c -3.888 0.446 -8.584 2.571 -9.179 3.166 a 15.737 15.737 0 0 0 8.01 6.119 c -4.143 1.955 -5.333 3.229 -5.928 4.186 C 45.4 99.892 47.631 101.8 50.8 102.4 c -0.51 0.4 -0.935 0.914 -1.466 1.424 c 0.595 0.807 2.932 1.848 3.038 2.422 c 0.127 0.467 0.977 -0.531 1.19 -1.254 c -0.064 0.446 2.422 1.445 1.53 2.7 c 0.446 2.613 2.358 -0.34 3.038 -1.7 c 4.674 4.674 0.34 10.22 0.446 10.432 a 19.456 19.456 0 0 1 1.594 2.018 c 2.507 -1.317 8.329 -5.163 8.329 -5.163 s -6.247 4.611 -7.734 6.544 c -1.36 2.1 -0.595 5.779 -0.319 6.1 c 0.276 0.531 4.334 1.572 5.715 0.191 c 1.53 -1.487 8.477 -9.837 8.392 -9.625 c 0 0.276 -3.8 5.375 -5.1 8.2 c -1.254 2.8 0.574 7.033 1.169 7.458 c 0.871 0.4 5.652 0 6.417 -1.466 c 0.7 -1.445 5.694 -11.218 5.63 -11.218 c 0.064 0 -3.484 7.436 -3.739 9.965 c -0.191 2.507 2.295 5.907 3.017 6.034 c 0.786 0.191 5.1 -0.977 5.567 -2.741 c 0.574 -1.7 2.89 -11.218 2.868 -11.218 c 0.043 0 -1.19 6.544 -0.807 8.477 c 0.127 2.231 3.229 3.7 3.888 4.483 c 0.531 1.254 1.041 0.807 1.721 0.042 c 0.595 -0.659 4.058 -1.232 3.888 -5.142 c -0.127 -3.931 0.021 -6.905 0 -6.905 c 0.021 0 2.358 0.127 3.484 -0.935 a 15.755 15.755 0 0 1 1.763 -1.381 c 0.021 0 0.935 2.1 2.358 2.21 a 13.016 13.016 0 0 1 2.635 0.531 l 0.191 12.791 c -3.166 2.422 -5.758 3.952 -9.986 2.741 l 0.914 1 c -6.438 0.467 -10.453 2.826 -9.667 10.751 c 0.85 7.734 -3.145 5.5 -3.229 5.46 c 0.085 0.021 2.018 5.269 7.989 1.19 a 8.928 8.928 0 0 1 -0.446 6.289 a 9.963 9.963 0 0 0 3.591 -2.635 c 0.446 -0.595 0.467 1.169 0.191 2.018 c -0.191 0.85 1.891 -2.188 2.082 -2.911 c 0.276 -0.722 2.613 1.594 0.212 3.612 c -2.443 2.04 -10.432 4.653 -13.768 5.12 c -4.271 0.7 -8.584 1.317 -8.584 -2.89 c 0 -4.079 -4.738 -4.483 -6.693 -2.422 a 10.825 10.825 0 0 1 -2.04 -3.038 c -0.042 0.34 -3.357 1.53 -3.548 1.3 c -0.149 0.276 0.977 3.293 0.382 4.016 c -0.595 0.85 -3.739 2.295 -3.463 3.676 c -0.212 2.1 2.04 2.8 2.38 2.932 c -0.7 2.018 1.445 3.994 2.826 3.527 c -0.149 3.8 -1.041 2.741 3.272 5.035 c 0.786 0.446 1.848 0.212 2.252 0.595 c 0.4 0.4 3.208 2.38 4.313 -3.654 a 21.091 21.091 0 0 1 9.455 -4.8 c 4.483 -0.786 20.737 -4.4 24.413 -4.717 a 11.584 11.584 0 0 0 -1.041 -5.269 s 4.249 -0.871 5.779 -4.122 c -2.613 0.574 -5.205 0.127 -5.375 -2.89 a 4.85 4.85 0 0 1 5.46 -5.248 c 3.888 0.319 7.755 3.548 7.5 7.139 c -0.149 3.484 -2.762 5.057 -4.674 6.289 c -1.827 1.381 -1.636 4.143 -1.7 4.122 c 0.064 0.042 -0.149 -0.935 1.3 -1.53 a 19.8 19.8 0 0 1 4.207 -0.744 c 0 0.064 0.021 0.85 -1.487 1.785 c -1.487 1.126 -6.693 3.272 -8.86 4.271 c -2.613 1.062 -6.544 4.526 -7.989 4.441 c -1.445 0.085 -2.762 -0.319 -2.89 -1.509 a 6.363 6.363 0 0 1 0.637 -2.613 s -3.272 0.595 -4.377 2.38 c -1.1 1.848 -1.657 5.758 0.659 7.1 c -2.146 2.443 -2.932 7.2 -1.763 9.71 a 10.54 10.54 0 0 1 0.871 4.781 c 0 0.042 2.358 -0.744 2.507 -2.422 c 0.149 -1.53 1.848 -3.654 1.785 -3.654 c 0.064 0 0 4.462 2.677 6.353 c 2.613 1.848 5.375 2.953 9.327 -0.659 c 3.8 4.334 6.183 7.033 12.6 4.844 c 0.914 1.466 3.527 4.122 4.993 4.589 a 12.828 12.828 0 0 0 5.248 -3.931 c 6.31 2.358 8.732 -0.212 12.684 -4.526 c 4.313 3.739 7.075 2.635 9.71 0.85 c 2.635 -1.721 2.762 -6.225 2.762 -6.225 a 9.994 9.994 0 0 1 1.763 3.676 c 0.127 1.657 2.486 2.55 2.486 2.507 a 9.89 9.89 0 0 1 1 -4.738 c 1.232 -2.486 0.531 -7.266 -1.508 -9.773 c 2.358 -1.254 1.891 -5.227 0.786 -7.075 c -1.062 -1.827 -4.271 -2.443 -4.271 -2.486 a 5.619 5.619 0 0 1 0.574 2.613 c -0.149 1.232 -1.466 1.572 -2.932 1.445 c -1.445 0 -5.312 -3.591 -7.883 -4.674 c -2.486 -1.062 -7.67 -3.272 -9.136 -4.334 c -1.466 -1.1 -1.381 -1.955 -1.381 -1.955 a 19.87 19.87 0 0 1 4.186 0.85 c 1.445 0.659 1.169 1.53 1.232 1.53 c -0.064 0 0.212 -2.677 -1.636 -4.058 c -1.891 -1.381 -4.377 -3.017 -4.462 -6.5 c -0.191 -3.548 3.824 -6.693 7.67 -6.905 c 3.739 -0.212 5.928 2.316 5.694 5.375 c -0.191 3 -3.208 3.4 -5.715 2.8 c 1.381 3.229 5.97 4.271 5.97 4.271 a 11.444 11.444 0 0 0 -1.126 5.184 c 3.654 0.467 19.887 4.271 25.092 5.524 c 2.04 1.169 6.841 4.122 8.881 4.249 c 1.976 0.127 3.824 -1.3 5.333 -1.764 c 1.445 -0.319 3.038 -0.149 4.249 -0.595 c 1.126 -0.382 2.252 -1.976 4.589 -2.635 a 2.722 2.722 0 0 0 1.912 -3.612 c 0.977 -0.7 2.932 -3.654 3.336 -4.207 c 0.276 -0.51 0.319 0 1.509 -0.128 c 1.232 -0.149 1.955 -4.908 0.659 -5.567 c -1.381 -0.7 -0.4 -0.531 -1.169 -1.1 c -0.786 -3.612 -3.484 -9.115 -9.009 -10.283 l -0.977 -1.721 l 2.635 1.041 V 142.3 l -2.613 1.3 l 1.1 -2.613 h -5.97 l 0.786 2.613 l -2.762 -1.3 v 5.822 l 2.89 -1.062 l -0.977 1.848 a 12.165 12.165 0 0 0 -9.327 9.179 c -0.021 0.255 -0.722 0.382 -1.445 0.977 c -0.786 0.7 -0.744 5.567 0 5.843 c 0.7 0.382 1.891 0.127 2.082 0.531 c 0.212 0.51 0.977 2.04 0.977 2.04 a 10.351 10.351 0 0 1 -6.565 2.507 c -3.612 -0.021 -11.537 -3.208 -13.9 -5.4 c -2.443 -2.082 0 -4.313 0.255 -3.612 c 0.191 0.722 2.167 3.867 2.082 3.017 c -0.212 -0.871 -0.191 -2.613 0.276 -2.018 a 9.541 9.541 0 0 0 3.463 2.741 a 8.879 8.879 0 0 1 -0.382 -6.353 c 5.949 4.313 8.053 -0.935 8.053 -1 c 0 0.064 -4.143 2.21 -3.038 -5.524 c 1 -7.819 -2.953 -10.39 -9.391 -11.006 l 0.914 -0.935 c -4.249 1.1 -6.841 -0.531 -9.9 -2.953 l 0.446 -12.854 a 11.412 11.412 0 0 1 2.7 -0.4 c 1.445 -0.127 2.38 -2.167 2.38 -2.167 a 10.689 10.689 0 0 1 1.763 1.445 c 1.1 1.041 3.421 1 3.463 1 c -0.021 0 0.064 3.038 -0.149 6.884 c -0.255 3.952 3.166 4.589 3.761 5.312 c 0.68 0.786 1.19 1.19 1.7 0 c 0.467 -1.126 3.676 -2.422 4.079 -4.334 c 0.34 -2.018 -0.7 -8.541 -0.659 -8.584 c -0.042 0.021 2.04 9.582 2.571 11.346 c 0.467 1.7 4.738 3 5.524 2.8 c 0.722 -0.085 3.336 -3.357 3.145 -5.907 c -0.149 -2.486 -3.484 -10.092 -3.421 -10.092 c -0.064 0 4.611 9.965 5.312 11.431 c 0.722 1.4 5.439 1.976 6.31 1.594 c 0.722 -0.34 2.571 -4.526 1.381 -7.415 c -1.232 -2.8 -4.844 -8.01 -4.908 -8.286 c -0.021 -0.276 6.693 8.286 8.095 9.773 c 1.445 1.445 5.439 0.4 5.843 0 c 0.276 -0.34 1.1 -3.952 -0.191 -6.055 c -1.445 -2.04 -7.564 -6.841 -7.564 -6.841 s 2.868 1.721 7.011 4.781 c 3.952 3.038 5.269 1.785 8.584 1.126 c 0.4 -1.254 0.042 -4.674 -1.912 -7.628 c 5.12 0.191 6.417 -0.914 8.414 -2.358 a 13.248 13.248 0 0 0 -4.016 -6.289 a 11.219 11.219 0 0 0 7.351 -5.142 c -0.574 -1 -1.721 -2.316 -5.758 -4.334 a 15.9 15.9 0 0 0 8.137 -5.928 a 24.679 24.679 0 0 0 -9.136 -3.4 c 3.357 -1.508 8.223 -6.586 9.689 -9.349 Z M 194.043 49.347 c -0.127 -2.7 -3.548 -3.612 -2.167 -6.586 C 191.875 45.395 195.19 45.565 194.043 49.347 Z M 179.68 35.132 c -2.422 -5.8 -3.676 -10.815 0.467 -9.773 c 4.143 1.062 12.217 4.334 15.3 5.057 s 3.654 3.654 1.636 5.8 c -1.955 2.1 -4.122 4.207 2.89 5.843 c -1.317 0 -3.527 0.255 -4.653 -0.722 s -2.89 -2.635 0.595 -6.1 c 3.591 -3.4 -2.082 -4.122 -3.548 -4.526 c -1.594 -0.319 -7.033 -2.741 -9.795 -3.463 c -2.7 -0.722 -4.8 -1.636 -2.826 3.867 c 1.891 5.46 3.272 9.37 -0.4 11.9 l -2.762 0.51 c 2.592 -1.02 5.482 -2.486 3.1 -8.392 Z M 75.613 47.753 c -1.126 -3.761 2.295 -3.888 2.316 -6.544 C 79.331 44.269 75.783 45.076 75.613 47.753 Z m 14.894 -5.864 c -3.591 -2.741 -2.1 -6.586 -0.085 -12 c 2.146 -5.4 0 -4.526 -2.762 -3.888 c -2.762 0.68 -8.222 2.932 -9.837 3.208 c -1.53 0.382 -7.2 0.935 -3.761 4.441 c 3.463 3.548 1.657 5.142 0.446 6.1 c -1.1 0.935 -3.272 0.659 -4.547 0.637 c 7.011 -1.466 4.929 -3.548 3.017 -5.779 c -1.955 -2.21 -1.317 -5.184 1.785 -5.822 c 3.081 -0.637 11.218 -3.612 15.4 -4.547 c 4.186 -0.977 2.762 3.994 0.255 9.731 c -2.571 5.779 0.276 7.415 2.89 8.477 l -2.8 -0.552 Z m 13.725 46.764 a 15.044 15.044 0 0 0 4.653 2.231 c -0.85 0.51 -2.7 -0.064 -3.7 -0.637 c 0.446 2.635 1.955 3.676 3.612 4.653 C 105.019 94.5 103.425 90.544 104.233 88.653 Z m 0.977 14.83 c 0.4 0.085 1.19 4.143 0.637 3.7 C 105.274 106.755 104.211 103.462 105.21 103.483 Z m -5.545 0.255 c 0.319 0.149 -0.977 4.122 -1.254 3.484 c -0.3 -0.595 0.3 -4.037 1.254 -3.484 Z m -5.5 -2.1 c 0.149 0.276 -2.252 3.654 -2.295 2.953 C 91.867 103.866 93.46 100.827 94.162 101.635 Z m 0.4 -19.377 c 0.212 0.467 0.914 0.871 0 1.381 c -1 0.574 -1 -0.765 -1 -0.935 c 0 -0.212 -5.1 -6.756 -6.841 -8.138 C 88 74.928 94.162 81.684 94.565 82.258 Z M 82.816 85.572 a 10.92 10.92 0 0 0 -0.807 -3.336 c 0 0.021 2.89 -1.1 3.23 -1.317 a 4.169 4.169 0 0 1 1.7 -0.574 A 21.134 21.134 0 0 1 81.9 67.6 l 0.191 -0.149 c 0.191 5.843 4.4 12.259 9.37 16.19 c -1.36 -1.041 -3.676 -2.613 -4.844 -2.04 c -1.1 0.574 -3.23 1.254 -3.166 1.254 c 0 -0.085 0.467 2.167 0.595 3.336 c 0.085 1.232 2.932 2.316 4.738 2.8 c -1.721 -0.446 -4.589 -0.85 -5.205 0.255 c -0.807 0.935 -2.316 2.613 -2.316 2.613 c -0.085 -0.085 1.317 1.636 2.146 2.677 c 0.659 1.1 3.527 0.807 4.972 0.531 c -1.848 0.786 -4.207 2.358 -4.186 3.612 a 22.423 22.423 0 0 1 -0.127 3.357 c -0.021 0 2.167 0.446 3.421 0.786 c 1.169 0.4 3.208 -1.593 4.334 -2.8 c -1.126 1.317 -2.55 3.4 -2.146 4.313 a 17.925 17.925 0 0 1 1 2.826 a 18.856 18.856 0 0 1 2.953 -0.382 c 1.169 0 2.167 -2.38 2.868 -3.718 c -0.531 1.509 -1.1 3.888 -0.255 4.653 c 0.807 0.722 2.146 2.231 2.146 2.231 a 25.446 25.446 0 0 1 2.635 -1.509 c 0.871 -0.574 0.977 -3.081 0.871 -3.952 c 0.149 1.317 0.7 3.761 1.827 4.058 a 28.846 28.846 0 0 1 2.826 1.169 a 11.66 11.66 0 0 1 1.7 -2.486 c 0.659 -0.871 -0.382 -3.166 -1.1 -4.419 a 10.647 10.647 0 0 1 1.912 3.336 a 2.008 2.008 0 0 1 -0.637 2.316 a 9.056 9.056 0 0 0 -1.594 2.507 a 11.863 11.863 0 0 0 -2.613 -1.3 c -0.914 -0.255 -1.785 -0.574 -2.082 -1.657 c -0.255 0.935 -0.446 1.381 -1.466 1.572 a 12.409 12.409 0 0 0 -2.55 1.53 a 12.623 12.623 0 0 0 -1.785 -2.167 c -0.7 -0.68 -1.317 -1.1 -1.232 -2.295 c -0.531 0.85 -1.1 0.977 -2.21 0.977 a 10.911 10.911 0 0 0 -2.89 0.637 a 11.7 11.7 0 0 0 -0.871 -2.762 c -0.4 -0.914 -0.637 -1.317 -0.127 -2.167 c -1.1 0.595 -1.381 0.382 -2.571 0.021 a 12.981 12.981 0 0 0 -3.166 -0.531 a 33.549 33.549 0 0 0 0.064 -4.058 c -0.064 -1.381 0.276 -1.657 1.445 -2.762 a 2.532 2.532 0 0 1 -2.571 -1.36 a 15.869 15.869 0 0 0 -2.316 -2.613 A 19.159 19.159 0 0 0 82.115 89.4 c 0.722 -1.126 1.1 -1.53 2.38 -1.317 a 2.714 2.714 0 0 1 -1.678 -2.507 Z m 7.946 12.3 c 0.085 0.382 -3.867 2.677 -3.591 1.848 C 87.49 99 90.507 96.642 90.762 97.874 Z m -5.333 -5.949 c 0.595 -0.467 4.844 -0.637 4.441 0.4 C 89.785 92.711 84.728 92.392 85.429 91.925 Z m 1.806 -6.586 c 0.7 -0.276 4.377 0.574 3.7 1.509 C 90.7 87.123 86.619 85.572 87.235 85.338 Z M 107.7 117.7 c -0.127 -0.595 -1.424 -5.4 -1.424 -5.4 c -0.085 -0.637 0.765 -0.977 0.85 -0.255 c 0.149 0.722 1.3 4.972 1.424 5.524 c 0.127 0.659 -0.722 0.68 -0.85 0.127 Z m -6.565 -6.268 c -0.085 0.722 -0.255 5.12 -0.319 5.652 c 0 0.595 -0.85 0.446 -0.786 -0.127 s 0.212 -5.588 0.212 -5.588 a 0.452 0.452 0 1 1 0.892 0.064 Z m -5.779 -0.765 c -0.149 0.659 -1.254 4.866 -1.424 5.46 c -0.191 0.574 -0.914 0.276 -0.786 -0.319 c 0.191 -0.574 1.466 -5.4 1.466 -5.4 c 0.17 -0.595 1.02 -0.467 0.744 0.255 Z m -5.97 -1.7 c -0.382 0.446 -2.316 3.994 -2.677 4.462 c -0.276 0.51 -0.977 0 -0.7 -0.467 c 0.4 -0.531 2.7 -4.419 2.7 -4.419 c 0.3 -0.552 1.126 -0.106 0.68 0.425 Z M 79.331 90.353 c -0.786 -0.064 -5.1 -0.191 -5.715 -0.276 c -0.637 0 -0.467 -0.786 0.085 -0.786 c 0.637 0.064 5.63 0.212 5.63 0.212 c 0.595 0 0.722 0.914 0 0.85 Z m -5.163 -8.074 c -0.637 -0.149 -0.212 -0.914 0.319 -0.68 c 0.574 0.255 5.375 1.763 5.375 1.763 c 0.574 0.212 0.467 1.1 -0.255 0.85 c -0.68 -0.3 -4.929 -1.636 -5.439 -1.933 Z m 5.885 12.982 c 0.637 -0.064 0.914 0.807 0.085 0.85 c -0.722 0.127 -5.1 0.7 -5.694 0.7 c -0.574 0.021 -0.574 -0.807 0.021 -0.85 c 0.68 -0.021 5.588 -0.7 5.588 -0.7 Z m -3.4 7.351 c 0.637 -0.149 5.057 -2.358 5.057 -2.358 c 0.574 -0.255 1.1 0.467 0.382 0.722 c -0.659 0.34 -4.589 2.231 -5.205 2.422 c -0.51 0.276 -0.829 -0.51 -0.234 -0.786 Z m 3.739 5.949 c 0.446 -0.446 4.313 -4.186 4.313 -4.186 a 0.419 0.419 0 1 1 0.595 0.574 c -0.574 0.446 -4.058 3.867 -4.334 4.207 C 80.542 109.645 79.99 108.965 80.394 108.561 Z m 0.977 -30.935 a 0.434 0.434 0 1 1 -0.51 0.7 c -0.531 -0.4 -5.439 -3.272 -5.97 -3.676 c -0.51 -0.255 0 -0.914 0.531 -0.531 C 75.868 74.4 81.371 77.626 81.371 77.626 Z m -0.935 -8.074 c 0.807 0.85 0.255 1.509 -0.51 0.935 c -0.786 -0.574 -5.439 -5.46 -5.588 -8.669 c 0.935 2.358 4.483 6.523 6.1 7.734 Z M 55.11 35.132 c 0.446 1.487 8.329 13.322 14.044 19.271 C 66.2 52.151 57.723 43.716 56.406 40.572 c -0.127 5.63 5.949 13.47 9.519 18.187 C 61.484 54.17 51.9 44.354 55.11 35.132 Z m 5.269 13.194 c 0.935 1.891 7.2 8.881 9.71 10.878 l -0.595 1.466 c -2.932 -3.1 -8.732 -10.22 -9.115 -12.344 Z m 3.463 47.911 L 64.1 97.81 a 74.815 74.815 0 0 1 -12.026 -0.255 c 2.082 -0.574 7.8 -0.892 11.771 -1.317 Z m -0.7 -5.354 c -4.249 -0.722 -10.453 -1.657 -12.621 -2.486 c 2.252 -0.064 8.8 0.467 12.748 0.935 l -0.127 1.551 Z m 0.659 -7.436 c -4.079 -1.19 -11.622 -3.952 -13.47 -5.269 c 1.848 0.531 10.623 3.1 13.832 3.8 Z M 49.459 50.494 c 0.85 0.722 9.264 8.541 15.893 12.982 C 62.207 62.095 53.92 57 51.966 54.467 C 53.219 59.63 59 64.623 63.4 68.044 C 58.191 64.857 48.821 58.95 49.459 50.494 Z m 17.55 16.827 l -0.382 1.509 c -3.4 -2.486 -10.645 -8.138 -11.24 -10.092 C 56.555 60.352 64.161 65.855 67.008 67.321 Z m -1.7 7.521 l -0.467 1.509 c -3.8 -1.785 -10.5 -6.544 -11.494 -8.286 c 1.509 1.4 8.86 5.8 11.962 6.778 Z m -18.442 -10.9 c 5.5 -0.467 11.346 3.421 15.489 6.48 c -3.654 -1.848 -9.667 -4.4 -12.472 -4.441 c 0.85 2.868 7.691 8.2 10.453 10.22 c -5.035 -2.38 -12.153 -7.436 -13.47 -12.259 Z M 43.658 74.928 c 5.333 -1.317 11.728 1.827 16.275 4.186 c -3.952 -1.232 -10.22 -2.953 -12.982 -2.613 c 1.169 2.741 9.136 6.374 12.2 7.946 c -5.354 -1.594 -13.47 -4.929 -15.489 -9.519 Z m 0.255 12.578 c 4.674 -2.89 9.795 -1.466 14.83 -0.659 c -4.058 0.064 -9.115 -0.149 -11.6 1.126 c 2.04 2.167 9.327 4.016 12.621 4.526 c -5.5 0.149 -12.514 -1.317 -15.85 -4.993 Z m 1.87 9.731 c 4.377 -3.293 8.945 -2.932 14.108 -2.507 c -4.058 0.446 -8.987 1.254 -11.282 2.8 c 2.21 2.018 7.883 2.89 11.282 2.613 C 54.154 101.082 49.459 101.146 45.783 97.237 Z m 8.669 7.351 l -2.358 -0.127 c 2.167 -1.381 4.866 -1.827 7.989 -2.55 A 61.632 61.632 0 0 0 54.451 104.588 Z m 1.593 1.254 c 2.018 -1.062 5.333 -1.976 9.072 -3.4 l 0.574 1.424 A 42.912 42.912 0 0 1 56.045 105.842 Z m 7.075 1.848 l -2.167 1.848 l -0.4 -1.041 Z m -2.89 9.051 l -0.51 -1.1 c 0.914 0.127 3.591 -0.722 6.565 -2.295 c -3.463 2.847 -4.8 3.654 -6.055 3.4 Z m 0.68 -3.378 a 59.35 59.35 0 0 1 6.65 -4.844 l 0.871 1.317 a 41.152 41.152 0 0 1 -7.521 3.527 Z m 0.595 11.834 c -0.595 -4.207 2.358 -6.948 6.438 -9.986 c -2.762 3.017 -5.184 5.97 -4.419 8.01 c 2.358 1 5.4 -2.89 8.053 -4.972 C 67.731 122.775 66.2 126.387 61.505 125.2 Z m 3.463 -3.336 c 1.19 -1.912 4.526 -5.184 7.266 -8.159 l 1.169 1.041 A 69.4 69.4 0 0 1 64.969 121.862 Z m 6.438 9.412 c -1.912 -3.867 -0.064 -7.075 2.762 -11.3 c -1.636 3.718 -2.89 7.16 -1.509 8.8 c 2.507 0.255 5.163 -3.824 6.969 -6.586 C 77.44 127.556 76.187 130.913 71.406 131.274 Z m 6.671 -13.3 l 1.445 0.595 a 44.624 44.624 0 0 1 -5.822 8.52 C 74.338 124.921 76.463 121.585 78.078 117.973 Z m 4.292 16.148 c -2.868 -3.208 -1.424 -6.374 0.319 -11.176 c -0.7 4.016 -1.424 7.755 0.4 9.051 c 2.486 -0.467 4.122 -4.908 5.12 -8.074 c -0.722 5.843 -1.317 8.732 -5.843 10.2 Z M 83.623 130 c 0.085 -2.188 1.232 -4.674 1.7 -8.669 l 1.594 0.255 c -0.829 4.207 -2.443 6.225 -3.293 8.414 Z M 94.1 133.781 c -4.079 -3 -2.868 -4.738 -2.295 -9.731 c 0.212 3.994 0 5.843 2.486 7.479 c 3.272 -1.955 2.8 -4.4 3.145 -7.734 C 97.986 129.723 98.836 131.359 94.1 133.781 Z m -0.34 -11.218 l 1.572 -0.127 a 27.253 27.253 0 0 1 -0.595 7.288 A 39.168 39.168 0 0 1 93.758 122.563 Z m 15.659 -0.977 c -2.316 0.149 -3.591 -0.467 -5.057 -3.166 a 5.739 5.739 0 0 1 -4.717 3.23 a 5.582 5.582 0 0 1 -2.953 -3.527 c -0.914 1.53 -1.976 2.486 -4.908 2.571 c -1.254 -1.317 -2.89 -2.422 -3.017 -4.249 c -1.7 1.041 -3.336 1.657 -5.035 0.914 a 7.667 7.667 0 0 1 -1.3 -4.249 c -2.21 0.85 -4.653 1.232 -5.758 0.319 a 10.451 10.451 0 0 1 -0.807 -5.63 c -3.038 -0.127 -5.184 -1.487 -5.524 -2.762 a 12.676 12.676 0 0 1 1.041 -4.207 c -2.741 -1.254 -3.463 -2.635 -3.676 -3.336 a 9.047 9.047 0 0 1 1.657 -4.016 A 7.364 7.364 0 0 1 65.5 89.142 a 10.945 10.945 0 0 1 3.229 -4.122 c -1.891 -2.21 -3.293 -5.227 -2.762 -6.353 c 0.467 -1.232 3.612 -2.507 4.844 -2.21 c -2.89 -2.677 -4.122 -6.374 -3.23 -7.479 c 0.914 -1.232 5.1 -0.807 6.162 -0.255 c -1.955 -3.357 -3.038 -6.247 -1.19 -11.473 c -0.276 4.334 -1.232 9.774 7.564 16.594 c -2.486 -1.594 -8.053 -5.992 -11.473 -4.079 c -0.276 2.7 2.316 6.374 8.053 9.837 c -3.761 -1.955 -5.779 -3.293 -9.667 -0.531 c 0.7 4.334 2.486 5.652 7.266 6.778 c -3.293 -0.531 -4.674 -1.169 -7.67 3.612 c 2.167 3.4 4.483 3.952 8.138 3.612 c -3.548 0.276 -4.993 0.786 -5.97 4.143 c 2.21 3.421 4.207 3.038 7.5 2.252 c -3.591 1.041 -4.611 2.167 -4.781 5.12 c 2.953 3 4.653 2.21 7.543 0.637 c -1.912 1.912 -2.932 3.272 -1.53 7.415 c 3.718 0.722 4.929 -0.255 7.33 -3.718 c -1.254 3.038 -2.1 4.8 -0.4 7.479 c 3.739 0.212 4.653 -1.254 6.119 -3.761 c -0.871 2.932 -1.445 4.483 1.466 6.969 c 2.741 -0.212 4.143 -1.53 5.163 -4.589 c 0 4.016 1.19 4.929 2.741 5.652 c 2.868 -0.871 3.548 -2.486 4.143 -5.1 c 1.424 3.8 3.421 5.63 5.375 5.184 l -0.042 0.829 Z M 65.351 170.92 c -2.486 -1.7 -0.807 -3.038 0.744 -3.867 C 64.119 168.817 64.714 169.624 65.351 170.92 Z m 13 5.078 c 0.149 0.574 0 0.871 -0.446 1.062 c -0.977 -5.248 -2.443 -5.375 -2.868 -8.01 c -0.446 -2.741 -1.062 0.043 -1 0.043 a 1.932 1.932 0 0 0 0.446 1.509 a 3.24 3.24 0 0 1 -1.36 -0.935 c -0.149 0 0.574 0.935 -0.149 1.3 a 4.635 4.635 0 0 1 0.276 1.3 c -0.744 0.85 -0.042 1.19 0.637 1.169 c 0.7 -0.021 0.977 -0.574 1.126 -1.062 a 2.682 2.682 0 0 1 -0.446 2.422 c -0.7 1.424 0.574 1.848 0.914 1.7 a 1.256 1.256 0 0 0 0.7 -1.3 a 2.446 2.446 0 0 1 0.085 2.422 a 10.787 10.787 0 0 0 -0.127 1.509 c -0.085 0.574 -1.572 1.891 -1.572 1.891 a 4.35 4.35 0 0 1 -1.041 -0.637 c 3.952 -1.594 1.636 -3.654 -0.149 -2.89 a 4.805 4.805 0 0 1 -3.038 0.637 c -1 0.127 -1 -1.381 -0.722 -2.316 c 0.319 0.276 0.34 1.1 0.595 1.254 a 2.812 2.812 0 0 0 3.739 -1.572 c 0 -1.062 -3.463 -0.977 -3.994 -0.786 c -0.574 0.276 -2.231 -1.254 -2.8 -1.508 a 1.431 1.431 0 0 1 -0.85 -1.721 c 1 0.212 2.635 1.976 3.888 2.295 c 4.079 -0.722 1.636 -3.1 1.254 -3.23 a 9.794 9.794 0 0 0 -1.848 0.871 c -0.4 0.255 -0.467 -1 -0.807 -0.85 c -0.4 0.255 -1.381 -0.276 -2.04 -0.722 c -0.659 -0.319 0.531 -1.509 0.7 -2.21 c 0.212 -0.574 -0.446 -0.319 -0.446 -0.319 a 2.882 2.882 0 0 1 0.574 -1.594 c 0.595 5.375 2.21 4.377 3.421 3.8 c -2.231 -2.762 -0.786 -4.143 0.914 -5.46 a 7.3 7.3 0 0 1 2.146 -0.807 c 0.191 0 -0.149 0.531 -1.827 1.955 c -1.785 1.466 -1.594 1.466 -1.1 2.762 a 1.285 1.285 0 0 0 2.252 0.7 c 0.786 -0.595 0.722 -1.572 -0.255 -2.21 c 0.637 -0.149 0.85 -1.126 1.445 -1 c 0.446 0.149 -0.34 0.85 -0.34 0.85 s 0.34 0.467 1.381 0.276 c 1.041 -0.127 0.4 0.914 -0.127 1.487 c -0.467 0.574 1.955 3.357 2.316 3.931 c 0.382 0.595 2.167 -0.085 2.231 0.467 c 0.064 0.574 -1.848 0.531 -2.231 0.871 c -0.361 0.3 0.4 2.1 0.552 2.656 Z m 1.062 0.191 c 1.955 -2.21 5.439 -3.867 6.225 -3.761 C 84.9 172.429 80.967 174.936 79.416 176.19 Z m 2.826 -6.1 c -1.657 0 -2.613 0.085 -3.761 -2.826 a 13.5 13.5 0 0 0 2.38 2.21 c 1.041 0.574 4.929 0.191 4.929 0.191 a 19.386 19.386 0 0 1 -3.548 0.425 Z m 119.577 3 a 10.216 10.216 0 0 0 -3.166 1.848 c -1.36 1.062 -3.888 1.19 -5.248 1.232 a 9.034 9.034 0 0 1 -6.374 1.53 c -1.53 -0.127 -6.353 -3.612 -6.225 -3.718 c 0.085 0.085 5.652 2.89 7.2 3.145 a 4.942 4.942 0 0 0 3.824 -1.445 c 0.212 -0.659 2.55 -2.146 3.591 -2.571 c 2.826 -3.272 -2.316 -5.035 -2.613 -1.976 c 2.38 -0.191 0.595 1.53 0.595 1.487 c 0 0.064 0.7 0.467 0.34 0.914 c -0.34 0.446 -1.891 -0.382 -2.188 0.149 c -0.34 0.574 0.319 0.51 -0.276 0.637 c -0.637 0.085 -1.062 0.7 -0.914 1.126 c 0.149 0.446 -0.807 0.871 -1.254 0.276 c -0.446 -0.574 -3.208 -1.254 -3.208 -1.827 c 0 -0.51 3.484 0.637 3.931 -0.191 c 0.51 -0.722 -4.547 -0.871 -4.547 -1.466 s 1.763 -0.4 2.167 -0.4 c 0.319 0 0.467 -0.914 0.467 -1.594 c 0.085 0 1.3 0.85 1.3 0.85 s -0.595 0.765 -0.467 1.169 c 0 0.467 0.935 0.149 1.593 0.595 c 0.531 0.531 1.254 0.255 1.636 -0.914 c -0.595 -1.445 0.595 -2.826 1.721 -3.336 a 1.6 1.6 0 0 0 -0.255 -1.721 c 0.935 0.127 1.381 0.68 1.976 1.721 a 2.548 2.548 0 0 1 1.53 3.4 c -0.149 0.7 1.657 -0.127 2.507 -0.637 a 3.257 3.257 0 0 1 1.912 -2.571 a 1.716 1.716 0 0 0 -0.68 -1.763 c 1.3 -0.021 1.572 0.595 2.316 1.7 c 1.551 2.592 0.021 3.824 -1.19 4.356 Z m 7.118 -9.71 a 1.371 1.371 0 1 1 -2.741 0 a 1.37 1.37 0 0 1 2.741 0 Z m -9.837 -13.64 c 4.143 -0.574 8.839 5.907 8.987 10.05 l -9.391 -0.935 Z M 205.261 163 a 1.4 1.4 0 0 1 -2.8 0 a 1.459 1.459 0 0 1 1.381 -1.424 A 1.482 1.482 0 0 1 205.261 163 Z m -3.718 -0.467 a 1.4 1.4 0 0 1 -1.36 1.381 a 1.444 1.444 0 0 1 -1.424 -1.381 a 1.415 1.415 0 0 1 1.424 -1.381 A 1.374 1.374 0 0 1 201.543 162.528 Z m -8.881 -15.68 v -2.975 l 3.038 0.637 l -0.574 -2.316 H 198.1 l -0.637 2.422 l 2.868 -0.637 v 2.635 l -3.081 -0.467 l 0.722 2.55 h -3.1 l 0.914 -2.613 l -3.123 0.765 Z m 3.7 10.113 a 1.37 1.37 0 0 1 0 2.741 a 1.37 1.37 0 1 1 0 -2.741 Z m -1.339 -2 a 1.392 1.392 0 0 1 1.381 -1.381 a 1.37 1.37 0 1 1 -1.381 1.381 Z m 1.508 5.992 a 1.424 1.424 0 0 1 0 2.847 a 1.4 1.4 0 0 1 -1.381 -1.424 A 1.375 1.375 0 0 1 196.528 160.956 Z m 0.085 -8.18 a 1.37 1.37 0 1 1 1.381 -1.381 A 1.392 1.392 0 0 1 196.613 152.776 Z m 9.561 13.385 a 10.623 10.623 0 0 1 -2.018 2.7 l -0.531 -0.722 a 2.932 2.932 0 0 0 0.85 -1.381 c -2.741 -0.531 -11.664 -0.871 -16.87 -0.659 a 10.364 10.364 0 0 0 3.888 3.952 l -0.446 0.722 c -2.507 -0.871 -4.271 -3.527 -5.035 -5.46 a 85.989 85.989 0 0 1 20.163 0.85 Z m -18.357 -3.548 a 1.37 1.37 0 1 1 1.381 1.381 A 1.392 1.392 0 0 1 187.817 162.613 Z m 3.739 -0.149 a 1.37 1.37 0 1 1 2.741 0 a 1.37 1.37 0 0 1 -2.741 0 Z m 3.081 -12.684 l -0.255 8.839 l -9.434 0.127 C 185.5 154.6 190.792 148.76 194.637 149.78 Z M 185.2 164.185 a 1.4 1.4 0 0 1 -1.36 -1.381 a 1.37 1.37 0 1 1 1.36 1.381 Z m 0.7 4.249 l 0.4 0.34 a 7.475 7.475 0 0 1 -7.2 1.7 C 181.38 170.347 184.1 170.028 185.905 168.434 Z M 159.07 84.127 c -1.041 1.232 -4.249 2.082 -5.97 1.891 c -0.191 1.1 -0.064 2.316 1.381 4.271 c -1.509 -0.021 -3.421 -1.36 -5.205 -4.122 c -0.446 0.34 -0.085 2.8 0.149 3.952 c -1.445 -0.786 -5.694 -5.652 -5.928 -7.883 c -1.848 1.169 -2.21 5.843 -2.422 7.819 c -1.763 -1.254 -2.21 -5.333 -2.38 -7.373 c -1.041 0.722 -2.975 3.7 -3.739 5.715 c -0.191 -9.9 1.381 -15.68 4.207 -17.274 c -1.636 1.848 -2.932 8.074 -3.229 13.194 c 0 0.4 1.317 -2.762 3.463 -5.822 c -0.212 0.85 0.212 3.888 1.041 7.8 a 13.372 13.372 0 0 1 3.336 -6.629 c 0.191 2.316 2.762 5.822 3.994 7.564 a 11.554 11.554 0 0 1 0.574 -4.972 c 0.149 1.848 2.55 4.271 3.931 5.779 c -0.319 -0.382 -0.149 -2.146 -0.276 -3.718 c 1.232 0.935 2.231 0.659 3.463 0.4 c -1.594 -0.7 -4.611 -3.463 -4.844 -5.822 c 1.317 3.824 6.969 5.29 8.456 5.227 Z m -12.727 6.14 H 145.09 a 11.538 11.538 0 0 0 -1.19 -1.891 s -0.064 1 -0.064 1.891 l -1.232 0.021 c 0.127 -1.062 0.127 -4.547 1 -5.269 c 0.319 1.041 2.082 4.865 2.741 5.248 Z m -7.075 0 h -1.3 c -0.064 -0.531 -0.34 -2.167 -0.34 -2.167 a 4.907 4.907 0 0 0 -0.807 2.167 h -1.3 a 11.957 11.957 0 0 1 2.38 -4.611 C 138.227 86.677 138.652 89.864 139.268 90.268 Z m 17.7 -26.027 c -5.12 3.909 -9.582 12.939 -10.092 17.316 A 25.611 25.611 0 0 1 149.7 64.3 c -2.358 1.572 -6.778 9.264 -8.541 16.211 c -0.446 -9.434 1.848 -13.768 5.63 -18.825 c -3.038 1.041 -8.329 7.755 -9.837 9.434 c 6.417 -12.259 7.861 -13.832 13.832 -14.851 l -1.1 1 c -3.888 0.212 -7.415 6.1 -7.415 6.1 a 28.726 28.726 0 0 1 6.841 -4.016 c -1.53 1.763 -4.929 8.669 -6.183 12.068 c 0.446 -1.381 4.377 -6.671 8.669 -10.028 c -0.807 1.7 -3.463 9.582 -3.463 12.153 c 1.147 -2.72 3.166 -5.609 8.839 -9.306 a 10.724 10.724 0 0 1 1.933 -1.211 c -0.68 0.4 -1.317 0.807 -1.933 1.211 Z M 152.7 53.256 c -3.017 3.739 -7.883 3.888 -12.153 3.017 c 2.932 -0.255 8.329 -3.017 9.625 -3.867 c -0.871 1.424 -4.016 3.038 -5.4 3.612 c 2.677 -0.021 5.779 -1.424 7.925 -2.762 Z m 5.843 6.119 a 29.806 29.806 0 0 1 1.827 -2.8 a 66.369 66.369 0 0 0 -7.1 4.929 a 16.138 16.138 0 0 1 2.38 -5.057 a 44.2 44.2 0 0 0 -5.312 4.016 c 0.064 -1.848 3.1 -6.969 4.589 -8.074 a 17.98 17.98 0 0 1 -5.248 -1.36 a 35.11 35.11 0 0 0 7.628 0.446 c -1.955 1.19 -4.8 4.334 -5.375 6.778 c 2.826 -2.7 6.778 -5.184 8.52 -5.5 c -1.912 1.254 -5.248 5.269 -5.524 6.735 c 1.445 -1.041 6.82 -5.057 9.051 -5.269 c -1.508 1.487 -5.057 4.419 -5.439 5.163 Z m -2.613 -10.241 a 133.357 133.357 0 0 0 13.407 -1.445 c 0.574 0.722 -0.722 2.762 -1.636 3.1 c -1.02 -1.657 -10.262 -1.084 -11.771 -1.657 Z m 16.849 14.894 c -1.381 -2.1 -3.336 -2.762 -6.1 -3.038 C 169.439 60.034 171.8 61.053 172.775 64.028 Z m 7.479 -7.564 c 0.935 -2.018 1.1 -3.654 0.4 -4.674 a 6.782 6.782 0 0 0 -4.929 -2.55 c 2.358 -0.212 5.992 0.807 6.225 3.591 a 9.049 9.049 0 0 1 -1.572 4.972 a 10.437 10.437 0 0 0 -9.37 -0.574 a 31.132 31.132 0 0 0 -6.247 3.314 c -0.319 0.255 -0.51 0.425 -0.51 0.425 a 5.683 5.683 0 0 1 0.51 -0.425 c 1.4 -1.126 5.4 -4.186 7.883 -4.674 c 3.038 -0.637 3.931 -0.574 7.606 0.595 Z m -4.122 -1.955 c 1.232 -0.935 2.358 -0.977 2.762 0.829 A 15.67 15.67 0 0 0 176.132 54.509 Z M 174.5 49.134 c -3.888 6.183 -12.408 12.663 -13.725 13.3 c -1.3 0.659 -0.467 0.085 -0.467 -0.064 a 62.854 62.854 0 0 0 13.513 -13.13 c 0.127 -1.466 -0.786 -1.381 -1.445 -0.935 c -3.888 7.436 -7.989 9.306 -12.876 11.622 c 8.647 -4.908 11.9 -11.112 12.344 -12.2 c 1.1 -0.892 2.847 -0.616 2.656 1.4 Z M 171.33 38.978 a 1.048 1.048 0 0 1 -1.062 -1.041 a 0.984 0.984 0 0 1 1.062 -0.977 a 0.966 0.966 0 0 1 1 0.977 A 1.021 1.021 0 0 1 171.33 38.978 Z m -0.382 4.823 c -2.443 0.722 -7.883 0.467 -10.368 0 V 42.484 l 10.3 0.127 l 0.064 1.19 Z M 172.6 31.86 a 1.034 1.034 0 0 1 1.062 1.041 a 1.053 1.053 0 0 1 -2.1 0 A 1.043 1.043 0 0 1 172.6 31.86 Z m -0.34 2.571 a 1 1 0 0 1 1 1.062 a 0.984 0.984 0 0 1 -1 1 a 1.026 1.026 0 0 1 -1 -1 A 1.04 1.04 0 0 1 172.265 34.431 Z m -2.486 -2.1 a 1.007 1.007 0 0 1 0.977 1 a 0.967 0.967 0 0 1 -0.977 1 a 0.977 0.977 0 0 1 -1.062 -1 A 1.026 1.026 0 0 1 169.779 32.328 Z m -0.552 2.7 a 1.043 1.043 0 0 1 0 2.082 a 1.029 1.029 0 0 1 -1.041 -1.041 a 1.016 1.016 0 0 1 1.041 -1.041 Z m -0.722 4.079 c 0.382 -0.446 0.85 -0.722 0.977 -0.595 c 0.085 0.149 -0.085 0.595 -0.595 1.062 c -0.382 0.446 -0.85 0.68 -0.977 0.595 C 167.739 40.019 168.015 39.531 168.5 39.106 Z m -0.956 0 c -0.319 0.7 -0.722 1.169 -0.914 1.062 c -0.212 -0.085 -0.127 -0.744 0.191 -1.424 s 0.722 -1.169 0.977 -1.062 a 1.8 1.8 0 0 1 -0.255 1.424 Z m -0.191 -7.436 l 0.935 -0.212 l -1 5.184 l -0.446 0.021 Z m -3.314 -6.119 V 24.3 h 1.126 V 23.128 h 1.3 V 24.3 h 1.126 V 25.55 h -1.126 v 1.126 h -1.3 V 25.55 Z m 0.489 3.442 a 1.334 1.334 0 0 1 1.36 -1.317 a 1.271 1.271 0 0 1 1.254 1.317 a 1.284 1.284 0 0 1 -1.254 1.317 A 1.347 1.347 0 0 1 164.531 28.992 Z m 1.126 7.776 a 0.49 0.49 0 1 1 0 -0.977 a 0.489 0.489 0 0 1 0 0.977 Z m 0.3 1.912 c 0 0.85 -0.149 1.53 -0.4 1.53 c -0.276 0 -0.446 -0.7 -0.446 -1.53 c 0 -0.807 0.149 -1.466 0.446 -1.466 C 165.784 37.193 165.954 37.852 165.954 38.681 Z m -0.234 -3.654 a 0.57 0.57 0 0 1 -0.637 -0.595 a 0.6 0.6 0 0 1 0.637 -0.637 a 0.643 0.643 0 0 1 0.659 0.637 A 0.6 0.6 0 0 1 165.721 35.026 Z m 0 -1.912 a 0.809 0.809 0 0 1 -0.765 -0.786 a 0.757 0.757 0 0 1 0.765 -0.744 a 0.791 0.791 0 0 1 0.786 0.744 A 0.813 0.813 0 0 1 165.721 33.114 Z m -0.17 7.8 c 2.358 0 4.249 0.276 4.249 0.574 c 0 0.276 -1.891 0.574 -4.249 0.574 c -2.443 0 -4.377 -0.276 -4.377 -0.574 s 1.912 -0.574 4.377 -0.574 Z m -2.422 -0.722 c -0.149 0.085 -0.595 -0.149 -1.062 -0.595 c -0.446 -0.467 -0.7 -0.914 -0.595 -1.062 c 0.212 -0.127 0.659 0.149 1.062 0.595 C 163 39.531 163.256 40.019 163.129 40.189 Z m 0.085 -2.486 c 0.212 -0.085 0.637 0.382 0.914 1.062 c 0.382 0.659 0.467 1.317 0.255 1.424 c -0.255 0.085 -0.659 -0.382 -0.935 -1.062 c -0.319 -0.7 -0.425 -1.3 -0.234 -1.424 Z m 0.829 -6.034 l 0.51 4.993 l -0.4 -0.021 l -1 -5.184 Z M 161.2 34.431 h 0.85 v 0.807 h 0.807 v 0.935 h -0.807 v 0.786 h -0.85 v -0.786 h -0.807 v -0.935 h 0.807 Z m -2.72 -1.53 h 0.807 v -0.85 h 0.871 v 0.85 h 0.807 v 0.914 h -0.807 v 0.807 h -0.871 v -0.807 h -0.807 Z m 0.616 6.31 v -0.786 h -0.807 v -0.914 h 0.807 v -0.85 h 0.914 v 0.85 h 0.744 v 0.914 h -0.744 v 0.786 Z m 12.536 5.312 c 0.467 -0.127 0.467 0.191 0.467 0.574 l -0.191 0.021 c -2.295 0.637 -18.1 0.85 -23.839 0.574 c 0.085 0.786 2.486 2.613 2.975 3.038 a 12.766 12.766 0 0 0 -3.017 1.3 c 0.234 -0.17 1.19 -0.892 2.018 -1.445 c -1.36 -0.977 -2.7 -2.422 -2.89 -3.4 c 8.1 0.85 24.009 -0.531 24.476 -0.659 Z m -21.884 -1.487 h -0.149 c -0.127 -0.064 -0.234 -0.149 -0.361 -0.212 A 29.283 29.283 0 0 1 138.1 34.686 a 8.054 8.054 0 0 0 2.443 0.446 a 32.981 32.981 0 0 0 8.69 7.691 C 149.382 42.888 149.573 42.972 149.743 43.036 Z M 132.809 36.28 a 11.809 11.809 0 0 0 2.1 0.255 a 8.028 8.028 0 0 0 1.912 -0.149 c 0.7 -0.127 1.169 0.149 0.722 0.4 a 7.054 7.054 0 0 1 -2.8 0.255 a 7.882 7.882 0 0 1 -2.762 -0.382 C 131.513 36.386 132.045 36.131 132.809 36.28 Z m -0.3 -1.53 c 0.021 -0.467 1.041 -0.276 2.231 -0.212 c 1.3 0 2.358 -0.127 2.358 0.276 c 0 0.467 -0.786 0.467 -2.358 0.446 C 133.277 35.217 132.512 35.26 132.512 34.75 Z m 2.231 -1.254 a 50.189 50.189 0 0 0 -7.883 0.637 l -0.255 -0.659 a 35.718 35.718 0 0 1 8.159 -0.807 a 46.347 46.347 0 0 1 8.265 1 l -0.255 0.7 a 51.632 51.632 0 0 0 -8.031 -0.871 Z m 0.042 -2.358 a 48.414 48.414 0 0 1 8.541 0.935 l -0.149 0.7 a 68.158 68.158 0 0 0 -8.392 -0.807 a 54.778 54.778 0 0 0 -8.265 0.531 l -0.149 -0.722 A 44.8 44.8 0 0 1 134.785 31.138 Z m -6.013 -2.486 c 0.085 -0.319 0.935 -0.34 1.976 -0.021 c 0.977 0.34 1.721 0.85 1.572 1.169 c -0.064 0.382 -0.935 0.382 -1.955 0.064 c -0.935 -0.3 -1.742 -0.829 -1.594 -1.211 Z m 6.162 -11.473 a 0.639 0.639 0 0 1 0.595 0.595 a 0.632 0.632 0 0 1 -0.595 0.637 a 0.577 0.577 0 0 1 -0.574 -0.637 A 0.6 0.6 0 0 1 134.934 17.179 Z m -0.722 -1.572 a 0.723 0.723 0 1 1 1.445 0 a 0.724 0.724 0 1 1 -1.445 0 Z m 1.19 4.5 a 0.555 0.555 0 0 1 -0.531 0.531 a 0.5 0.5 0 0 1 -0.467 -0.531 a 0.524 0.524 0 0 1 0.467 -0.51 A 0.552 0.552 0 0 1 135.4 20.111 Z m -0.659 4.292 c 0.319 0 0.659 1.254 0.659 2.741 c 0 1.509 -0.34 2.762 -0.659 2.762 c -0.34 0 -0.659 -1.254 -0.659 -2.762 C 134.084 25.678 134.4 24.4 134.743 24.4 Z m 5.758 -1.317 a 0.979 0.979 0 0 1 -0.977 -1 a 0.943 0.943 0 0 1 0.977 -1 a 1 1 0 0 1 1.062 1 A 1.04 1.04 0 0 1 140.5 23.086 Z m 1.19 0.4 a 1.026 1.026 0 0 1 1.062 1 a 1.052 1.052 0 0 1 -1.062 1.062 a 1 1 0 0 1 -0.977 -1.062 a 0.98 0.98 0 0 1 0.977 -1 Z m -0.807 5.418 c 0.085 0.34 -0.637 0.807 -1.657 1.062 c -1.041 0.319 -1.912 0.255 -2.018 -0.127 c -0.085 -0.276 0.659 -0.765 1.657 -1.041 C 139.906 28.5 140.777 28.567 140.883 28.907 Z m 7.543 12.026 c -1.53 -0.659 -5.1 -4.143 -6.055 -5.567 a 0.87 0.87 0 0 1 0.807 0.021 a 52.875 52.875 0 0 0 5.248 5.545 Z M 144.24 28.079 a 1.04 1.04 0 0 1 -1.062 -1 a 1.013 1.013 0 0 1 1.062 -1 a 0.993 0.993 0 0 1 0.977 1 A 1.007 1.007 0 0 1 144.24 28.079 Z m 0.276 -3.293 a 0.984 0.984 0 0 1 -0.977 -1.062 a 0.949 0.949 0 0 1 0.977 -0.977 a 1.017 1.017 0 0 1 1.041 0.977 a 1.048 1.048 0 0 1 -1.041 1.062 Z m 2.7 -3.1 a 0.949 0.949 0 0 1 -0.977 0.977 a 1.017 1.017 0 0 1 -1.041 -0.977 a 1.029 1.029 0 0 1 1.041 -1.041 A 0.954 0.954 0 0 1 147.215 21.683 Z m -1.721 -4.5 a 0.983 0.983 0 0 1 1.041 1 a 0.971 0.971 0 0 1 -1.041 1 a 1 1 0 1 1 0 -2 Z m -0.871 3.718 a 0.98 0.98 0 0 1 -0.977 1 a 1 1 0 0 1 -1.062 -1 a 0.988 0.988 0 0 1 1.062 -1 A 0.954 0.954 0 0 1 144.623 20.9 Z m -1.381 -6.353 a 1.048 1.048 0 0 1 1.062 1.041 a 1 1 0 0 1 -1.062 1 a 0.967 0.967 0 0 1 -0.977 -1 A 1 1 0 0 1 143.242 14.544 Z m -1.232 2.571 a 1.042 1.042 0 0 1 0 2.082 a 1.021 1.021 0 0 1 -1 -1.041 a 1.035 1.035 0 0 1 1 -1.041 Z m -2.316 -3.293 l 1.254 0.212 L 138.4 23.6 l -0.637 -0.085 Z M 137.76 25.38 c 0.319 0.127 0.276 1.232 -0.064 2.422 c -0.382 1.19 -0.871 2.146 -1.3 2.04 c -0.276 -0.127 -0.255 -1.19 0.064 -2.38 C 136.846 26.273 137.42 25.253 137.76 25.38 Z m -4.887 -19.42 V 4.367 l 1.7 0.531 l -0.382 -2.082 h 1.891 l -0.4 1.976 l 1.657 -0.34 V 6.046 l -1.721 -0.595 L 136.06 7.3 h -1.891 l 0.4 -1.848 l -1.7 0.51 Z m 0.149 3.718 a 2.079 2.079 0 0 1 2.04 -2.018 a 2.045 2.045 0 0 1 2.018 2.018 a 2.029 2.029 0 1 1 -4.058 0 Z m 1.976 3.7 h 1.976 l -0.85 9.136 l -0.595 -0.021 l 0.744 -8.414 l -1.317 -0.085 H 133.7 l 0.574 8.414 l -0.574 0.085 l -0.68 -9.179 l 1.976 0.064 Z m -1.785 13.959 c 0.255 1.232 0.34 2.358 -0.085 2.443 c -0.34 0.064 -0.85 -0.871 -1.19 -2.167 c -0.255 -1.126 -0.255 -2.231 0.021 -2.38 C 132.321 25.189 132.873 26.166 133.213 27.335 Z m -2.89 -13.64 l 1.636 9.667 l -0.574 0.085 L 129.028 13.8 l 1.3 -0.106 Z m -3.591 4.589 h 0.85 v -0.807 h 0.85 v 0.807 h 0.807 V 19.2 h -0.807 v 0.765 h -0.85 V 19.2 h -0.85 Z m -0.255 3.994 h 0.85 v -0.807 h 0.85 v 0.807 h 0.807 v 0.85 h -0.807 v 0.829 h -0.85 v -0.829 h -0.85 Z m -3.187 -5.29 h 0.807 V 16.18 h 0.914 v 0.807 h 0.786 v 0.85 h -0.786 v 0.85 H 124.1 v -0.85 h -0.807 Z m -1.02 5.057 v -0.914 h 0.85 v -0.85 h 0.871 v 0.85 h 0.807 v 0.914 h -0.807 v 0.807 h -0.871 v -0.807 Z m 3.4 4.037 v 0.786 H 124.8 v -0.786 h -0.807 v -0.935 h 0.807 v -0.807 h 0.871 v 0.807 h 0.807 v 0.935 Z m 0.786 9.051 a 1.28 1.28 0 0 1 0.807 0 c -1.041 1.381 -4.653 4.8 -6.225 5.439 a 65.271 65.271 0 0 0 5.418 -5.439 Z m 2.826 -0.319 a 21.58 21.58 0 0 1 2.231 -0.255 c -2.443 3.1 -7.373 6.5 -11.664 8.2 C 123.355 40.933 128.114 36.6 129.283 34.814 Z m 1.594 2.635 a 8.147 8.147 0 0 0 3.761 0.807 c 2.167 0.042 2.571 0 4.016 -0.659 c 2.762 2.613 8.6 5.588 13.917 6.905 c -2.911 0.319 -6.756 -0.4 -8.86 -1.891 c -0.085 2.167 4.611 5.8 4.611 5.8 a 13.636 13.636 0 0 1 -2.762 0.467 c -1.126 0 -0.637 0.786 -0.085 1.169 c 0.446 0.446 2.295 0.807 3.4 1.827 c -3.931 3.4 -8.053 3.1 -11.813 2.422 c 0.34 2.1 4.547 3.527 6.247 3.888 A 93.247 93.247 0 0 0 134.36 73.95 c -2.89 -7.1 -7.1 -14.49 -8.669 -16.424 c 1.721 -0.4 5.907 -1.7 6.353 -3.782 c -3.761 0.531 -7.925 0.722 -11.792 -2.316 c 1.1 -0.977 2.953 -1.254 3.484 -1.7 c 0.51 -0.34 1.062 -1.126 -0.064 -1.126 a 18.139 18.139 0 0 1 -2.826 -0.595 c 0.064 0 4.8 -3.527 4.8 -5.694 c -2.146 1.466 -5.97 2.04 -8.669 1.636 c 5.1 -1.1 11.006 -3.952 13.9 -6.5 Z M 116 60.48 a 63.787 63.787 0 0 0 -6.948 -5.057 a 13.993 13.993 0 0 1 1.827 2.932 c -0.319 -0.85 -3.888 -3.888 -5.312 -5.333 c 2.231 0.255 7.5 4.377 8.924 5.5 c -0.212 -1.487 -3.463 -5.524 -5.439 -6.48 a 19.361 19.361 0 0 1 8.053 5.333 c -0.382 -2.507 -2.89 -5.248 -4.8 -6.48 a 37.348 37.348 0 0 0 7.2 -0.276 a 14.04 14.04 0 0 1 -4.844 1.169 c 1.466 1 4.058 5.949 3.952 7.819 a 35.259 35.259 0 0 0 -4.8 -4.186 A 13.165 13.165 0 0 1 116 60.48 Z m -14.15 -10.56 c -0.85 -0.4 -2.1 -2.486 -1.53 -3.208 a 125.5 125.5 0 0 0 13.343 1.848 C 112.2 49.07 102.958 48.284 101.853 49.92 Z m 14.958 2.868 a 21.994 21.994 0 0 0 7.564 2.507 c -1.487 -0.637 -4.483 -2.295 -5.333 -3.336 c 1.232 0.871 6.629 3.357 9.519 3.612 c -4.313 0.85 -9.136 0.489 -11.749 -2.783 Z m -6.756 -14.363 a 1.04 1.04 0 0 1 -1.062 -1 a 0.963 0.963 0 0 1 0.977 -1.041 a 1.009 1.009 0 0 1 1.041 0.935 a 1.059 1.059 0 0 1 -0.956 1.1 Z m -5.694 1.636 c 2.38 0.042 4.313 0.382 4.313 0.659 c 0 0.34 -1.976 0.51 -4.334 0.467 c -2.358 -0.085 -4.313 -0.4 -4.313 -0.7 C 100.026 40.21 101.98 40 104.36 40.062 Z m -4.079 -2.486 c 0.149 -0.127 0.637 0.149 1.062 0.637 c 0.382 0.446 0.7 0.914 0.531 1.041 c -0.149 0.127 -0.595 -0.127 -1 -0.595 c -0.425 -0.446 -0.68 -0.935 -0.595 -1.084 Z m 3.931 -1.636 a 0.562 0.562 0 0 1 -0.51 -0.574 a 0.507 0.507 0 0 1 0.51 -0.446 a 0.5 0.5 0 0 1 0.531 0.531 A 0.492 0.492 0 0 1 104.211 35.94 Z m 0.531 1.912 c -0.064 0.807 -0.212 1.509 -0.531 1.509 c -0.212 0 -0.382 -0.68 -0.382 -1.509 c 0.021 -0.829 0.255 -1.466 0.467 -1.466 c 0.255 0 0.489 0.659 0.446 1.466 Z m -0.616 -3.633 a 0.647 0.647 0 0 1 -0.595 -0.637 a 0.574 0.574 0 0 1 0.659 -0.595 a 0.592 0.592 0 0 1 0.637 0.595 a 0.7 0.7 0 0 1 -0.7 0.637 Z m 0.085 -1.912 a 0.881 0.881 0 0 1 -0.744 -0.807 a 0.712 0.712 0 0 1 0.744 -0.744 a 0.784 0.784 0 0 1 0.786 0.786 A 0.794 0.794 0 0 1 104.211 32.307 Z m 2.252 6.013 c -0.4 0.659 -0.85 1.1 -1.062 1.041 c -0.212 -0.085 -0.127 -0.722 0.212 -1.424 c 0.34 -0.68 0.765 -1.126 1 -1.041 C 106.782 37.045 106.7 37.64 106.464 38.319 Z m 0.786 0.064 c 0.446 -0.467 0.914 -0.765 1.041 -0.595 c 0.085 0.149 -0.085 0.595 -0.595 1.062 c -0.446 0.4 -0.871 0.595 -1.041 0.51 C 106.527 39.233 106.782 38.744 107.25 38.383 Z m 2.061 3.378 v 1.3 c -2.613 0.446 -8.01 0.574 -10.432 -0.255 l 0.085 -1.169 l 10.347 0.127 Z m 1.594 -5.907 a 0.911 0.911 0 0 1 -1.041 -0.935 a 0.951 0.951 0 0 1 0.935 -1.062 a 1.049 1.049 0 0 1 1.062 0.977 A 0.951 0.951 0 0 1 110.9 35.855 Z m -0.382 -4.526 a 1.094 1.094 0 0 1 1.062 0.977 a 1 1 0 0 1 -0.935 1.062 a 1.023 1.023 0 1 1 -0.127 -2.04 Z m -2.358 0.489 a 1.1 1.1 0 0 1 1.1 0.977 a 1.043 1.043 0 0 1 -1.041 1.041 a 0.907 0.907 0 0 1 -1 -0.935 a 0.992 0.992 0 0 1 0.935 -1.084 Z m -0.425 2.741 a 0.975 0.975 0 0 1 1.062 1 a 0.94 0.94 0 0 1 -0.914 1 a 1 1 0 1 1 -0.149 -2 Z m -1.763 -3.739 l 0.85 -0.191 l -1.1 5.184 l -0.382 0.021 Z m -3.421 -6.162 v -1.3 h 1.169 V 22.236 h 1.254 v 1.126 h 1.169 v 1.3 h -1.169 v 1.126 H 103.7 V 24.658 Z m 0.34 3.484 a 1.231 1.231 0 0 1 1.317 -1.3 a 1.267 1.267 0 0 1 1.3 1.317 a 1.348 1.348 0 0 1 -1.381 1.3 a 1.228 1.228 0 0 1 -1.232 -1.317 Z m 0.255 11.133 c -0.212 0.085 -0.595 -0.382 -0.871 -1.041 c -0.382 -0.722 -0.382 -1.317 -0.191 -1.466 c 0.191 -0.085 0.595 0.467 0.85 1.169 c 0.34 0.68 0.425 1.3 0.212 1.339 Z m -0.51 -8.541 l 0.34 5.1 l -0.4 -0.085 l -0.871 -5.184 Z M 99.75 34.3 l 0.871 -0.021 l 0.021 0.85 l 0.807 -0.085 v 0.914 l -0.786 0.042 l 0.064 0.85 l -0.914 0.064 l -0.021 -0.85 l -0.85 0.042 l -0.064 -0.914 l 0.85 -0.042 l 0.021 -0.85 Z m -2.082 -2.295 h 0.914 l 0.064 0.85 l 0.744 -0.064 l 0.085 0.871 l -0.807 0.064 l 0.064 0.786 l -0.914 0.042 l -0.064 -0.807 l -0.85 0.064 l -0.021 -0.914 h 0.85 Z m -0.68 6.417 l -0.064 -0.914 l 0.85 -0.064 l -0.021 -0.807 l 0.914 -0.064 v 0.871 l 0.807 -0.085 l 0.021 0.935 l -0.744 0.021 v 0.807 l -0.871 0.064 l -0.042 -0.807 l -0.85 0.042 Z m 1.126 5.057 c 0.531 0.191 16.3 1.976 24.073 1.36 a 7.869 7.869 0 0 1 -3.017 3.293 A 20.149 20.149 0 0 1 121 49.453 a 3.108 3.108 0 0 1 0.276 0.191 c 0 0.021 -0.106 -0.064 -0.276 -0.191 a 10.783 10.783 0 0 0 -2.847 -1.232 c 0.531 -0.382 2.975 -2.146 3.1 -2.953 c -2.266 0.054 -6.433 -0.022 -11.048 -0.2 c -5.3 -0.2 -11.092 -0.568 -12.387 -0.972 l -0.212 -0.021 c 0 -0.382 0 -0.68 0.51 -0.595 Z M 96.478 62.519 c 1 -2.932 3.484 -3.888 6.247 -2.868 c -2.783 0.234 -4.759 0.7 -6.247 2.868 Z m 8.244 -3.166 a 28.794 28.794 0 0 0 -6.289 -3.527 a 9.746 9.746 0 0 0 -9.306 0.319 c -0.021 -0.085 -1.636 -2.571 -1.466 -4.653 c 0.255 -2.7 3.888 -3.612 6.289 -3.357 a 6.957 6.957 0 0 0 -4.972 2.38 c -0.7 1.041 -0.637 2.295 0.319 4.271 c 3.7 -1.1 4.526 -1.1 7.5 -0.4 c 2.656 0.595 6.735 3.952 7.925 4.972 c 0.234 0.191 0.34 0.3 0.34 0.3 S 104.934 59.545 104.721 59.354 Z M 93.333 53 a 12.741 12.741 0 0 0 -2.677 0.68 C 91.038 52.087 92.143 52.13 93.333 53 Z m 3.994 -5.715 c -0.7 -0.446 -1.572 -0.574 -1.509 0.871 a 63.026 63.026 0 0 0 13.194 12.982 c 0 0.212 0.85 0.807 -0.51 0.127 c -1.254 -0.659 -9.646 -7.33 -13.322 -13.237 c -0.127 -2.018 1.509 -2.231 2.635 -1.317 c 0.446 1.041 3.484 6.948 12.068 12.068 c -4.823 -2.443 -8.881 -4.4 -12.557 -11.494 Z M 112.6 63.454 q -0.988 -0.733 -2.167 -1.53 a 10.109 10.109 0 0 1 2.167 1.53 c 4.993 3.676 6.863 6.565 7.861 9.264 c 0.127 -2.571 -2.358 -10.5 -3.145 -12.281 c 3.931 3.293 7.543 8.18 8.265 10.028 c -1.211 -3.633 -4.271 -10.241 -5.694 -11.941 a 26.954 26.954 0 0 1 6.714 4.186 s -3.336 -5.97 -7.2 -6.353 l -1.126 -1.041 c 5.97 1.3 7.33 2.89 13.407 15.276 c -1.487 -1.721 -6.48 -8.584 -9.519 -9.667 c 3.612 5.184 5.822 9.519 5.1 18.952 c -1.593 -6.969 -5.779 -14.7 -8.137 -16.36 a 25.432 25.432 0 0 1 2.358 17.21 c -0.34 -4.313 -4.164 -13.13 -8.881 -17.274 Z m 3.038 21.587 c -1.848 0.255 -5.035 -0.722 -6.034 -2.082 c 1.487 0.085 6.778 -1.232 8.329 -4.993 c -0.276 2.422 -2.975 5.163 -4.611 5.715 c 1.232 0.276 2.21 0.574 3.081 -0.276 c -0.149 1.593 -0.021 3.336 -0.446 3.676 c 1.445 -1.466 3.888 -3.8 4.186 -5.652 a 10.937 10.937 0 0 1 0.319 5.035 c 1.36 -1.721 3.952 -5.248 4.334 -7.5 a 13.341 13.341 0 0 1 3.1 6.629 c 0.85 -3.824 1.381 -6.884 1.232 -7.691 c 2.04 3.1 3.272 6.31 3.293 5.885 c -0.212 -5.1 -1.254 -11.346 -2.932 -13.237 c 2.826 1.7 4.207 7.458 3.761 17.4 c -0.722 -2.04 -2.507 -5.1 -3.612 -5.822 c -0.149 1.955 -0.786 6.1 -2.507 7.266 c -0.149 -1.976 -0.4 -6.671 -2.295 -7.925 c -0.276 2.295 -4.547 7.033 -6.1 7.691 c 0.382 -1.062 0.7 -3.527 0.255 -3.824 c -1.891 2.741 -3.357 3.952 -4.866 3.952 c 1.424 -1.976 1.678 -3.1 1.509 -4.249 Z m 16.976 4.7 l -1.3 -0.064 a 5.617 5.617 0 0 0 -0.7 -2.146 s -0.4 1.572 -0.446 2.1 h -1.317 c 0.7 -0.34 1.169 -3.527 1.572 -4.589 a 11.9 11.9 0 0 1 2.188 4.7 Z m -8.329 -2.082 a 7.355 7.355 0 0 0 -1.169 1.785 h -1.232 c 0.595 -0.34 2.38 -4.122 2.8 -5.184 c 0.914 0.765 0.807 4.271 0.914 5.248 H 124.29 A 11.829 11.829 0 0 0 124.29 87.654 Z m -13.64 3.612 h 46.275 l 0.085 40.942 c -0.4 5.205 0.085 12.068 -11.728 12.2 c -11.792 0.149 -11.6 4.249 -11.941 9.922 c -0.382 -6.183 0 -9.837 -11.877 -10.368 c -11.367 -0.4 -10.623 -7.691 -10.9 -12.876 l 0.085 -39.816 Z m 30.893 87.664 c 5.694 7.691 5.12 10.347 2.38 17 C 146.365 188.768 143.645 183.732 141.542 178.93 Z m -4.865 -13.258 c 4.313 8.86 10.772 13.407 12.153 17.04 l -1.254 -0.042 c -3.8 -5.439 -10.666 -12.6 -10.9 -17 Z m -2.868 1.19 a 45.023 45.023 0 0 0 2.741 -9.9 l 1.3 -0.149 C 137.824 157.875 135.529 165.014 133.808 166.862 Z m 0.722 -9.391 a 38.187 38.187 0 0 0 4.738 -11.537 l 1.3 -0.064 C 140.416 146.763 137.547 153.987 134.53 157.471 Z m -13.045 37.67 c -2.507 -6.778 -3.038 -9.434 2.89 -16.934 C 122.059 182.946 119.19 187.875 121.485 195.142 Z m -3.293 -13.364 l -1.232 0.021 c 1.424 -3.591 8.1 -8.01 12.536 -16.806 C 129.155 169.476 122.08 176.444 118.192 181.777 Z M 128.6 156.154 l 1.254 0.255 a 47.2 47.2 0 0 0 2.571 9.922 c -1.763 -1.912 -3.867 -9.094 -3.824 -10.177 Z m -2.422 -11.027 l 1.3 0.085 A 37.779 37.779 0 0 0 131.9 156.9 c -2.953 -3.548 -5.588 -10.857 -5.715 -11.771 Z m 6.332 22.861 l 1.169 -0.085 c 0.149 7.564 -0.786 26.431 -0.85 26.367 c -0.127 -0.106 -0.722 -18.676 -0.319 -26.282 Z m 0.17 -8.8 l 1 0.127 a 16.047 16.047 0 0 1 -0.574 3.612 c 0 -0.021 -0.3 -2.125 -0.425 -3.739 Z m -25.007 -20.864 c -1.317 0.659 -5.248 1.509 -6.247 3.591 c 3.357 -1.424 5.269 -1.785 6.629 -1.041 c -2.04 1.572 -2.38 2.018 -2.295 2.443 c 2.21 -0.574 4.122 -0.34 5.163 0.51 c -3.654 0.829 -6.693 1.254 -8.159 2.167 a 5.357 5.357 0 0 1 1.19 -3.463 a 16.167 16.167 0 0 0 -6.948 3.761 c 1.147 -3.06 2.082 -6.225 10.666 -7.968 Z m -12.2 12.451 c 1.126 -1.232 1.509 -1.976 2.932 -2.507 a 6.022 6.022 0 0 0 0.574 3.145 a 27.16 27.16 0 0 1 2.231 -3.06 a 29.18 29.18 0 0 0 -2.04 5.715 a 12.274 12.274 0 0 1 -1.657 -3.718 a 14.265 14.265 0 0 0 -2.975 2.677 c -0.191 -1.445 -0.34 -5.46 0.85 -7.946 c -0.191 1.891 -0.3 4.993 0.085 5.694 Z m 13.47 16.084 c -1.254 0.149 -4.908 0.446 -5.652 0.191 c 1.19 -0.34 4.271 -1.041 4.844 -1.254 c -0.149 -0.7 -0.149 -1.976 0.4 -1.976 C 109.311 164.546 109.863 166.331 108.949 166.862 Z m 4.929 -6.969 c -3.612 0.531 -4.271 0.064 -5.333 -3.336 c -0.212 0.68 -0.021 3.676 -1.424 5.5 c -1.062 -1.1 -1.572 -3.293 -2.082 -5.779 c -0.255 0.85 -0.319 3.676 -1.126 6.1 a 27.909 27.909 0 0 0 -3.1 -5.97 a 10.47 10.47 0 0 1 -3.739 3.824 c 0.467 -1.041 0.064 -4.249 -0.7 -5.907 c -1.763 1.636 -3.208 2.635 -5.992 2.486 c 4.4 -0.85 -2.89 -14.129 6.948 -15.425 c -7.543 2.443 -3.017 11.728 -4.419 13.577 c 0.807 0.085 2.571 -0.871 4.016 -2.741 a 21.893 21.893 0 0 1 1.445 5.652 a 6.221 6.221 0 0 0 2.082 -2.826 a 7.692 7.692 0 0 1 3.038 3.7 a 9.189 9.189 0 0 1 1.721 -5.184 a 11.873 11.873 0 0 0 1.763 4.079 c 0.531 -0.467 0.7 -1.955 0.977 -4.313 a 10.109 10.109 0 0 0 1.636 2.741 c 0 -1.381 0.595 -3.293 2.8 -5.5 c -2.486 3.633 -2.21 7.245 1.487 9.327 Z M 101.6 152.669 c -0.127 -3.8 3.038 -6.714 10.751 -8.095 C 107.8 147 104.912 148 104.084 150.1 c 3.612 -1.509 11.6 -2.55 14.512 -1.3 C 114.325 148.08 104.912 149.78 101.6 152.669 Z m 8.711 -5.545 c 4.526 -1.594 6.417 -3.166 12.068 2.486 C 119.976 148.016 116.938 145.743 110.309 147.124 Z m 11.6 -2 l 1.3 0.085 c 1.062 3.081 3.484 6.778 4.717 9.391 a 27.516 27.516 0 0 1 -6.013 -9.476 Z m -0.446 19.377 c 1.041 -0.255 4.908 -4.929 4.143 -8.647 c 0.7 1.891 0.212 5.652 -0.212 5.907 a 10.577 10.577 0 0 0 2.486 -2.635 c -0.552 2.231 -1.891 5.567 -6.417 5.375 Z m -11.027 32.3 c -2.89 -0.319 -5.524 -1.317 -7.2 -8.477 a 11.928 11.928 0 0 0 -3.421 4.441 c -1 -2.38 -3.484 -7.628 2.04 -11.24 c -3.017 -2.422 -3.718 -5.184 -0.659 -7.1 c 0.531 2.04 3.145 4.8 7.351 1.763 c 4.377 -2.932 7.011 -4.738 8.584 -4.738 c -2.762 1.827 -7.691 6.225 -10.708 6.905 a 7.794 7.794 0 0 1 -5.5 -0.531 a 5.48 5.48 0 0 0 3.336 3.888 c -2.762 1.912 -4.972 4.186 -3.484 6.48 c 1.53 -1.785 3.421 -2.295 4.186 -1.891 c 1.041 5.46 3.463 10.22 6.714 8.286 c 2.826 -1.976 2.953 -2.1 3.293 -2.1 c -2.38 -0.531 -6.714 -0.659 -4.611 -7.564 c 2.613 1.19 4.207 0.7 5.375 -0.467 c -1.912 -1.848 -2.932 -5.227 -1.912 -6.565 c 1.53 -1.381 13.385 -11.749 13.789 -12.621 c -1.912 3.548 -10.177 10.156 -12.153 12.621 c -1.955 2.486 1.424 6.565 3.017 5.992 c -2.21 2.7 -4.249 4.207 -7.139 3.23 c -1.445 4.547 9.136 2.295 7.819 8.329 c -6.055 -3.123 -6.1 1.742 -8.711 1.36 Z m -7.011 -12.472 c 1.381 -0.871 10.347 -9.051 12.982 -10.687 c -8.414 7.436 -8.456 13.534 -8.732 16.3 c -1.126 -1.169 -1 -4.016 -0.127 -6.565 c -0.722 -0.425 -1.763 0.085 -4.122 0.956 Z m 12.812 5.758 l -1.3 -0.191 l -0.127 -2.018 l 1.3 -0.51 a 6.444 6.444 0 0 0 0.127 2.72 Z m 0.127 5.4 l 1.381 -0.127 c 2.677 2.7 6.225 4.441 8.647 2.273 c -2.762 -1.594 -5.035 -4.441 -3.357 -8.987 c 1.53 -4.547 7.436 -20.354 7.628 -20.609 c -0.914 5.63 -5.269 16.679 -6.289 20.333 c -1.1 3.8 0.319 9.136 5.758 7.266 C 128.156 198.966 123.057 203.832 116.364 195.482 Z m 11.749 -0.786 l -1.721 -0.382 c -0.4 -1.487 0.595 -5.715 1.19 -7.011 C 127.583 189.044 127.583 193.463 128.114 194.7 Z m 4.589 8.966 a 15.79 15.79 0 0 1 -3.761 -3.824 l 0.85 -1.424 a 10.559 10.559 0 0 0 2.932 3.336 a 13.685 13.685 0 0 0 2.932 -3.336 l 0.914 1.424 A 23.479 23.479 0 0 1 132.7 203.662 Z m 2.528 -7.776 c 5.46 2.018 6.969 -3.017 6.034 -6.714 c -0.977 -3.824 -5.035 -14.915 -5.779 -20.588 c 0.127 0.212 5.588 16.254 7.139 20.822 c 1.445 4.611 -0.85 7.351 -3.612 8.86 c 2.358 2.252 5.907 0.659 8.6 -2.04 l 1.424 0.212 c -6.905 8.159 -11.834 2.911 -13.81 -0.552 Z m 2.04 -0.552 c 0.574 -1.169 0.7 -5.63 0.722 -7.373 c 0.659 1.317 1.509 5.524 1.041 7.075 Z m 14.788 -16.445 c 1.424 1.317 -0.149 4.717 -2.146 6.438 c 1.126 1.3 3.1 1.763 5.758 0.68 c 2.018 6.905 -2.358 6.905 -5.184 7.436 c 0.34 0 0.531 0.127 3.676 2.167 c 3.23 2.04 5.843 -2.7 6.884 -8.137 c 0.807 -0.4 2.635 0.149 4.186 1.976 c 1.466 -2.273 -0.7 -4.5 -3.357 -6.5 a 5.3 5.3 0 0 0 3.421 -3.8 a 7.4 7.4 0 0 1 -5.46 0.319 c -2.975 -0.722 -8.2 -5.248 -10.942 -7.1 c 1.53 0 4.589 1.848 8.8 4.972 c 4.186 3.145 6.841 0.446 7.436 -1.594 c 2.932 2.04 2.252 4.738 -0.871 7.033 c 5.46 3.761 2.89 8.945 1.848 11.367 a 12.779 12.779 0 0 0 -3.336 -4.483 c -1.891 7.075 -4.611 8.01 -7.415 8.286 c -2.762 0.276 -2.89 -4.547 -9.009 -1.721 c -1.254 -6.013 9.667 -3.484 8.329 -8.053 c -3.23 0.977 -5.269 -0.7 -7.436 -3.463 c 1.594 0.595 5.12 -3.357 3.208 -5.949 c -1.891 -2.507 -9.986 -9.306 -11.834 -12.982 c 0.382 1 11.941 11.664 13.449 13.109 Z m 6.183 12.238 c -0.212 -2.762 -0.106 -8.881 -8.669 -16.53 c 2.613 1.7 11.749 10.113 13.067 11.006 c -2.295 -0.871 -3.4 -1.445 -4.079 -1 c 0.85 2.486 0.85 5.5 -0.319 6.523 Z m -8.8 -2.762 l 1.317 0.446 l -0.212 2.04 l -1.3 0.149 a 5.121 5.121 0 0 0 0.191 -2.635 Z m -4.632 -23.1 c -4.547 0.149 -5.864 -3.208 -6.353 -5.46 a 12.053 12.053 0 0 0 2.422 2.7 c -0.446 -0.255 -0.765 -4.016 -0.128 -5.864 c -0.765 3.591 2.975 8.371 4.058 8.626 Z m -6.289 -10.007 c 1.36 -2.613 3.824 -6.225 4.993 -9.264 l 1.317 -0.064 a 27.548 27.548 0 0 1 -6.31 9.327 Z m 18.251 -6.99 c -7.033 -1.509 -10.113 0.595 -12.578 2.21 C 150 144.936 151.868 146.572 156.776 148.271 Z M 148 149.737 c 2.911 -1.254 11.24 0.021 14.83 1.657 c -0.722 -2.146 -3.591 -3.272 -8.074 -5.758 c 7.628 1.593 10.772 4.526 10.517 8.392 c -3.166 -3 -12.939 -4.95 -17.274 -4.292 Z m 9.561 18.293 c -0.85 -0.574 -0.255 -2.358 0.446 -3.038 c 0.637 0.127 0.574 1.317 0.4 2.018 c 0.574 0.191 3.612 0.914 4.8 1.381 A 27.157 27.157 0 0 1 157.562 168.031 Z m 18.91 -9.582 c -2.826 0.127 -4.207 -0.977 -6.034 -2.635 c -0.722 1.657 -1.254 4.908 -0.85 5.864 a 10.034 10.034 0 0 1 -3.612 -3.952 a 28.039 28.039 0 0 0 -3.208 5.97 a 34.762 34.762 0 0 1 -1 -6.162 c -0.595 2.486 -1.169 4.653 -2.231 5.715 c -1.381 -1.891 -1.1 -4.8 -1.381 -5.524 c -1.041 3.463 -1.721 3.8 -5.269 3.208 c 3.676 -2.018 4.122 -5.567 1.763 -9.327 c 2.082 2.316 2.635 4.249 2.635 5.588 a 15.659 15.659 0 0 0 1.7 -2.571 c 0.149 2.295 0.276 3.8 0.85 4.271 a 12.456 12.456 0 0 0 1.848 -4.058 a 8.677 8.677 0 0 1 1.572 4.781 a 7.9 7.9 0 0 1 3.166 -3.166 c 0.722 1.594 1.466 2.613 2.04 2.868 a 20.536 20.536 0 0 1 1.53 -5.63 c 1.381 1.891 3.1 2.89 3.931 2.868 c -1.381 -1.848 3.527 -11.006 -4.058 -13.64 c 9.88 1.445 2.252 14.554 6.608 15.531 Z m -4.738 -11.856 c 1.19 2.571 0.914 6.5 0.659 8.01 a 15.388 15.388 0 0 0 -2.89 -2.826 a 13.3 13.3 0 0 1 -1.827 3.739 a 28.63 28.63 0 0 0 -1.848 -5.779 c 0.085 0.149 1.594 2.04 2.167 3.038 a 5.828 5.828 0 0 0 0.637 -3.145 a 8.3 8.3 0 0 1 2.89 2.571 a 19.269 19.269 0 0 0 0.212 -5.609 Z m -10.347 -2.04 c 0.064 -0.446 -0.212 -0.871 -2.252 -2.486 c 1.445 -0.722 3.272 -0.319 6.693 1.19 c -1.041 -2.082 -4.929 -3.081 -6.183 -3.718 c 8.477 1.955 9.306 5.1 10.39 8.222 a 15.268 15.268 0 0 0 -6.778 -3.952 a 5.672 5.672 0 0 1 1.126 3.463 c -1.53 -0.871 -4.483 -1.424 -8.138 -2.358 c 1.062 -0.807 2.953 -0.956 5.142 -0.361 Z m 63.953 -66.8 c -2.167 4.547 -10.368 7.691 -15.765 9.136 c 3.145 -1.445 11.176 -4.929 12.451 -7.628 c -2.741 -0.446 -9.115 1.126 -13.067 2.316 C 213.59 79.262 219.985 76.351 225.339 77.753 Z m -11.261 31.615 a 80.6 80.6 0 0 1 -11.664 -3.272 l 0.637 -1.445 c 3.739 1.572 9.115 3.591 11.027 4.717 Z m -10.453 -32.21 a 56 56 0 0 0 12.2 -6.5 c -1.041 1.763 -7.883 6.247 -11.749 8.053 l -0.446 -1.551 Z m 0.935 21.4 c 3.994 0.574 9.625 1.041 11.813 1.721 a 75.487 75.487 0 0 1 -12.068 -0.149 Z m 0.042 -14.3 c 3.208 -0.574 12.132 -2.89 13.98 -3.463 c -1.848 1.317 -9.519 3.824 -13.662 4.972 Z m 0.68 7.394 c 4.058 -0.34 10.623 -0.659 12.854 -0.531 c -2.231 0.722 -8.456 1.53 -12.684 2.1 l -0.17 -1.572 Z m 17.061 -24.944 c -1.445 4.844 -8.6 9.646 -13.789 11.856 c 2.868 -1.891 9.858 -7.011 10.751 -9.9 c -2.8 -0.021 -8.86 2.422 -12.621 4.143 c 4.228 -3 10.262 -6.671 15.659 -6.1 Z m -2.167 -13.917 c 0.4 8.9 -9.179 14.575 -14.384 17.571 c 4.5 -3.293 10.3 -8.137 11.749 -13.237 c -2.018 2.486 -10.432 7.33 -13.64 8.6 a 118.873 118.873 0 0 0 16.275 -12.939 Z m -6.162 8.477 c -0.7 1.912 -8.074 7.373 -11.6 9.837 l -0.276 -1.551 c 2.89 -1.381 10.623 -6.629 11.877 -8.286 Z m 0.956 -23.966 c 2.953 9.264 -6.905 19.25 -11.558 23.754 c 3.8 -4.611 10.05 -12.748 10.092 -18.4 c -1.381 3.1 -10.156 11.749 -13.13 13.959 C 206.217 50.366 214.418 38.744 214.971 37.3 Z m -5.694 13.067 c -0.4 2.04 -6.438 9.434 -9.434 12.472 l -0.637 -1.445 c 2.656 -2.018 9.136 -9.2 10.071 -11.027 Z M 188.667 71.507 c 1.657 -1.254 5.312 -5.269 6.353 -7.628 c -0.276 3.208 -5.057 7.946 -5.822 8.456 c -0.807 0.552 -1.317 -0.042 -0.531 -0.829 Z m -1.126 8.01 s 5.567 -3.145 6.034 -3.357 c 0.531 -0.382 1.041 0.212 0.531 0.595 c -0.531 0.319 -5.567 3.081 -6.1 3.463 C 187.435 80.515 187.031 79.793 187.541 79.517 Z m -1.36 23.286 c -0.722 -0.212 -0.149 -1 0.4 -0.722 c 0 0 4.4 2.295 4.972 2.507 c 0.574 0.255 0.276 1.041 -0.255 0.744 C 190.771 105.162 186.882 103.186 186.181 102.8 Z m 0.977 8.222 c -0.382 -0.382 -3.739 -3.824 -4.313 -4.377 c -0.446 -0.467 0.276 -1 0.7 -0.574 c 0 0 3.739 3.867 4.186 4.313 C 188.093 110.877 187.541 111.472 187.159 111.026 Z m 1.062 -13 c -0.744 -0.064 -0.51 -0.935 0.106 -0.807 c 0 0 4.972 0.744 5.588 0.807 c 0.574 0.064 0.574 0.914 0 0.807 c -0.637 -0.085 -4.972 -0.744 -5.694 -0.807 Z m 1 -6.586 s 5.035 0 5.588 -0.021 c 0.637 0 0.786 0.744 0.191 0.744 c -0.637 0.064 -5.057 0.064 -5.779 0.127 C 188.5 92.329 188.6 91.436 189.22 91.436 Z m -0.106 -5.375 c -0.659 0.276 -0.85 -0.595 -0.191 -0.744 c 0 0 4.781 -1.445 5.333 -1.657 c 0.574 -0.212 0.914 0.574 0.34 0.722 c -0.552 0.234 -4.8 1.445 -5.482 1.678 Z m -14.894 -0.892 c -0.977 -0.574 -0.276 -0.914 0.064 -1.424 c 0.319 -0.51 6.671 -7.139 7.946 -7.436 a 64.688 64.688 0 0 0 -6.969 7.946 c -0.021 0.191 -0.106 1.487 -1.041 0.914 Z m -0.106 18.017 c 0.722 -0.807 2.295 2.316 2.231 3.017 c -0.085 0.659 -2.486 -2.741 -2.231 -3.017 Z m -5.524 1.912 c 0.871 -0.531 1.424 2.953 1.126 3.591 c -0.276 0.574 -1.509 -3.4 -1.126 -3.591 Z m -5.652 -0.382 c 1.041 -0.064 -0.127 3.272 -0.68 3.676 c -0.574 0.446 0.276 -3.676 0.68 -3.676 Z m -3.293 -12.6 a 14.753 14.753 0 0 0 4.611 -2.146 c 0.871 1.848 -0.85 5.822 -4.611 6.119 c 1.657 -0.935 3.293 -1.955 3.739 -4.653 c -1.084 0.595 -2.911 1.126 -3.739 0.68 Z m -0.637 15.106 a 15.1 15.1 0 0 1 2.082 -3.336 c -0.744 1.254 -1.827 3.527 -1.19 4.441 a 28.967 28.967 0 0 1 1.593 2.55 s 1.891 -0.786 2.89 -1.062 c 1.062 -0.276 1.721 -2.741 1.891 -4.462 c -0.085 1.317 -0.127 3.888 0.871 4.462 c 0.977 0.446 2.571 1.636 2.571 1.509 a 22.149 22.149 0 0 1 2.082 -2.082 c 0.871 -0.722 0.4 -3.166 -0.064 -4.781 c 0.637 1.381 1.636 3.8 2.7 3.8 a 19.371 19.371 0 0 1 3.038 0.531 s 0.595 -1.955 1 -2.868 c 0.467 -0.935 -0.871 -3.017 -1.955 -4.313 c 1.062 1.169 3.038 3.229 4.271 2.826 c 1.254 -0.319 3.463 -0.722 3.357 -0.68 c -0.021 0.064 -0.064 -2.082 -0.021 -3.357 c 0.127 -1.254 -2.21 -2.868 -4.122 -3.7 c 1.509 0.382 4.377 0.7 5.1 -0.34 a 29.829 29.829 0 0 1 2.167 -2.7 s -1.424 -1.636 -2.231 -2.635 c -0.659 -1.041 -3.527 -0.744 -5.184 -0.319 c 1.763 -0.531 4.611 -1.466 4.717 -2.635 a 23.911 23.911 0 0 1 0.765 -3.421 a 15.023 15.023 0 0 1 -3.145 -1.36 c -1.126 -0.574 -3.548 0.977 -4.866 2.018 c 5.1 -3.824 9.391 -10.177 9.731 -16.063 l 0.128 0.276 a 20.591 20.591 0 0 1 -5.269 12.514 a 5.654 5.654 0 0 1 1.763 0.7 a 32.377 32.377 0 0 0 3.1 1.36 a 13.934 13.934 0 0 0 -0.914 3.336 a 2.526 2.526 0 0 1 -1.763 2.443 c 1.3 -0.191 1.657 0.276 2.38 1.424 a 20.512 20.512 0 0 0 2.167 2.677 a 15.805 15.805 0 0 0 -2.443 2.55 a 2.659 2.659 0 0 1 -2.55 1.317 c 1.1 1.062 1.445 1.36 1.317 2.826 c -0.021 1.424 -0.021 3.952 -0.021 3.952 a 13.766 13.766 0 0 0 -3.166 0.4 c -1.126 0.34 -1.445 0.637 -2.613 -0.127 c 0.51 0.977 0.276 1.36 -0.149 2.273 a 19.826 19.826 0 0 0 -0.977 2.7 a 8.884 8.884 0 0 0 -2.89 -0.722 a 2.194 2.194 0 0 1 -2.21 -0.977 c 0.149 1.232 -0.574 1.53 -1.232 2.231 a 10.233 10.233 0 0 0 -1.848 2.21 a 8.978 8.978 0 0 0 -2.486 -1.636 c -1 -0.276 -1.254 -0.7 -1.424 -1.657 c -0.34 1.126 -1.254 1.381 -2.167 1.657 a 9.214 9.214 0 0 0 -2.635 1.19 a 9.378 9.378 0 0 0 -1.53 -2.571 a 2.187 2.187 0 0 1 -0.616 -2.38 Z m 18.718 -18.8 c -0.637 -0.871 3.038 -1.657 3.676 -1.381 C 182.1 87.314 177.9 88.78 177.725 88.419 Z m 5.418 5.248 c 0.595 0.51 -4.377 0.7 -4.5 0.276 C 178.3 92.945 182.442 93.221 183.143 93.667 Z m -2.04 7.819 c 0.276 0.807 -3.612 -1.593 -3.484 -1.955 C 177.9 98.235 180.912 100.7 181.1 101.486 Z m 0.106 13.683 c -0.276 -0.446 -2.21 -4.079 -2.486 -4.589 a 0.384 0.384 0 1 1 0.595 -0.467 s 2.21 4.016 2.613 4.611 c 0.3 0.446 -0.4 0.892 -0.722 0.446 Z m -7.224 2.486 c -0.212 -0.574 -1.19 -4.908 -1.36 -5.524 c -0.255 -0.744 0.659 -0.85 0.786 -0.255 c 0 0 1.126 4.929 1.3 5.5 s -0.595 0.871 -0.722 0.276 Z m -6.2 0.637 c 0.064 0.659 -0.786 0.807 -0.786 0.127 c -0.021 -0.574 -0.021 -4.972 -0.128 -5.652 a 0.432 0.432 0 1 1 0.85 -0.042 s 0.042 5.057 0.064 5.567 Z m -6.162 -4.844 s -1.424 4.8 -1.53 5.439 c -0.064 0.574 -0.935 0.446 -0.744 -0.085 c 0.021 -0.574 1.317 -4.8 1.53 -5.567 c 0.042 -0.765 0.892 -0.34 0.744 0.212 Z m 11.686 21.905 c -4.717 -2.571 -3.8 -4.143 -3.1 -10.092 c 0.276 3.4 -0.191 5.758 3.017 7.8 c 2.613 -1.53 2.316 -3.357 2.677 -7.436 C 176.344 130.7 177.47 132.464 173.306 135.353 Z m -0.956 -11.431 l 1.572 0.255 a 37.862 37.862 0 0 1 -1.126 7.139 a 28.925 28.925 0 0 1 -0.446 -7.394 Z m 12.706 12.047 c -4.526 -1.572 -5.035 -4.483 -5.652 -10.3 c 0.977 3.166 2.507 7.67 5.035 8.159 c 1.785 -1.317 1.126 -4.993 0.637 -9.072 C 186.627 129.7 188.008 132.889 185.055 135.969 Z m -4.249 -12.663 l 1.594 -0.127 c 0.446 3.931 1.53 6.417 1.445 8.6 c -0.744 -2.188 -2.316 -4.249 -3.038 -8.477 Z m 15.234 10.071 c -4.738 -0.446 -5.928 -3.761 -8.01 -9.306 c 1.763 2.89 4.334 6.948 6.841 6.841 c 1.424 -1.636 0.276 -5.1 -1.317 -8.9 C 196.337 126.366 198.1 129.6 196.04 133.377 Z m -2.188 -4.207 a 54.633 54.633 0 0 1 -5.588 -8.6 l 1.509 -0.595 c 1.508 3.654 3.569 7.033 4.079 9.2 Z m 12.217 -1.509 c -4.674 1 -6.1 -2.677 -9.773 -7.224 c 2.507 2.146 5.439 6.119 7.882 5.184 c 0.807 -2.018 -1.636 -5.057 -4.207 -8.2 C 204.007 120.608 206.791 123.349 206.068 127.662 Z m -3.293 -3.463 a 71.753 71.753 0 0 1 -8.223 -7.436 l 1.232 -0.977 C 198.377 118.823 201.585 122.287 202.775 124.2 Z m -4.993 -17 c -0.4 1.317 -2.571 2.613 -5.63 2.635 a 10.416 10.416 0 0 1 -0.935 5.652 c -1.126 0.85 -3.484 0.4 -5.715 -0.467 a 8.228 8.228 0 0 1 -1.381 4.207 c -1.7 0.722 -3.336 0 -5.1 -1.1 c -0.127 1.891 -1.827 2.89 -3.017 4.143 c -2.975 -0.127 -3.952 -1.1 -4.908 -2.677 a 5.6 5.6 0 0 1 -3.038 3.463 a 5.908 5.908 0 0 1 -4.653 -3.336 c -1.53 2.613 -2.8 3.293 -5.12 2.975 l -0.021 -0.786 c 2.04 0.574 4.058 -1.232 5.524 -4.972 c 0.467 2.613 1.169 4.186 4.058 5.12 c 1.593 -0.637 2.762 -1.53 2.826 -5.524 c 0.977 3.1 2.358 4.441 5.035 4.738 c 3.038 -2.422 2.486 -4.058 1.657 -7.075 c 1.508 2.677 2.316 4.143 6.034 4.016 c 1.848 -2.635 1 -4.4 -0.127 -7.288 c 2.231 3.357 3.463 4.377 7.139 3.654 c 1.572 -4.079 0.595 -5.46 -1.317 -7.373 c 2.89 1.7 4.5 2.443 7.606 -0.446 c -0.085 -3.017 -1.1 -4.143 -4.717 -5.312 c 3.229 0.977 5.333 1.317 7.606 -1.955 c -0.914 -3.463 -2.316 -4.058 -5.864 -4.207 c 3.676 0.276 5.97 -0.212 8.159 -3.484 c -2.762 -4.929 -4.207 -4.313 -7.415 -3.888 c 4.738 -1.041 6.544 -2.295 7.288 -6.5 c -3.676 -2.932 -5.822 -1.636 -9.6 0.255 c 5.822 -3.357 8.541 -6.969 8.222 -9.667 c -3.272 -1.976 -9.051 2.167 -11.558 3.824 c 9.009 -6.608 8.222 -12.089 8.074 -16.466 c 1.764 5.333 0.51 8.137 -1.53 11.473 c 1.062 -0.51 5.333 -0.807 6.119 0.382 c 0.871 1.19 -0.446 4.8 -3.357 7.436 c 1.254 -0.276 4.313 1.126 4.8 2.316 c 0.51 1.169 -1.041 4.079 -2.932 6.247 a 11.2 11.2 0 0 1 3.081 4.186 a 7.176 7.176 0 0 1 -3.994 4.249 a 10.3 10.3 0 0 1 1.594 4.058 c -0.319 0.722 -1.041 2.082 -3.8 3.293 a 10.588 10.588 0 0 1 0.914 4.207 Z m 2.7 3.548 a 101.918 101.918 0 0 1 8.945 6.5 a 84.171 84.171 0 0 1 -9.859 -5.227 Z m 13.258 9.136 c -4.4 1.976 -7.564 -0.51 -12.068 -4.271 c 2.932 1.636 7.436 4.122 9.582 2.677 c 0.446 -2.1 -2.826 -4.844 -6.1 -7.309 C 209.808 113.363 213.611 115.615 213.738 119.886 Z m 5.524 -8.924 c -4.8 2.38 -8.265 0.914 -13.258 -1.848 c 3.272 0.977 8.01 1.976 10.708 0.85 c -1.763 -2.146 -4.844 -3.888 -8.52 -5.652 C 213.165 105.65 216.84 106.075 219.262 110.962 Z m 3.336 -10.921 c -3.739 3.8 -8.52 3.654 -14.172 2.55 c 3.336 -0.085 9.136 -0.4 11.41 -2.316 c -2.295 -1.53 -7.139 -2.613 -11.282 -3.145 c 5.184 -0.3 9.837 -0.489 14.044 2.911 Z m 2.167 -9.752 C 221.3 93.943 214.312 95.261 208.7 94.9 c 3.336 -0.4 10.581 -2.082 12.748 -4.186 c -2.486 -1.36 -7.5 -1.3 -11.6 -1.381 C 214.971 88.589 220.112 87.378 224.765 90.289 Z m -38.9 67.841 l 7.67 -0.212 l 0.276 -7.288 c -3.484 -0.021 -6.756 3.973 -7.946 7.5 Z M 55.9 120.736 c 1.487 0.021 3.272 -0.127 2.975 -1.572 c -0.255 -1.445 -1.424 -1.572 -1.424 -2.295 c 1.3 -2.7 2.507 -4.589 0.212 -8.669 c -0.467 1.041 -2.55 4.271 -3.229 1.126 c 0.871 -1.19 -0.935 -1.3 -0.871 -1.891 c 0.127 0.574 -1.572 0.7 -0.765 1.848 l -0.807 -0.064 c 0.212 -2.04 -1.636 -1.763 -2.082 -2.422 c -0.085 0.914 -1.785 1.593 -0.574 3.229 l -0.7 0.446 c 0.064 -1.381 -1.466 -0.637 -1.7 -1.169 c 0.4 0.467 -1.126 1.53 0.319 2.1 c 0.935 3.06 -2.507 1.36 -3.421 0.7 c 0.149 4.717 2.167 5.652 4.674 7.288 c 0.34 0.595 -0.637 1.317 -0.064 2.7 c 0.51 1.381 2.146 0.595 3.336 -0.191 a 2.575 2.575 0 0 1 1.763 -1.509 a 2.75 2.75 0 0 1 2.358 0.34 Z m -0.489 -3.569 c 0.659 -0.064 1.1 0.212 1.636 0.064 c 0.786 1.848 -2.932 4.016 -2.04 0.914 c 0.234 -0.255 0.3 -0.786 0.4 -0.977 Z m -1.445 -5.354 c 0.085 -0.467 0.786 -0.807 1.19 -0.786 c 0.276 0.659 -0.34 3.527 -1.254 2.613 a 7.938 7.938 0 0 1 0.064 -1.827 Z m -3.123 -1.657 c 0.85 -0.319 3.484 -1.317 0.722 2.316 C 47.228 110.877 49.926 110.41 50.84 110.155 Z m -3.251 3.017 a 1.259 1.259 0 0 1 1.445 0.127 a 6.321 6.321 0 0 1 0.85 1.572 c -0.382 1.19 -2.295 -1.041 -2.295 -1.7 Z m 1.509 5.992 c 0.467 0 0.807 -0.531 1.424 -0.722 a 4.4 4.4 0 0 0 0.786 0.722 c 2.125 2.422 -2.167 2.018 -2.21 0 Z m 1.19 -3.952 l 3.463 -0.977 c 0.786 1.976 1.169 3.336 -0.51 4.717 C 50.946 118.738 50.606 117.379 50.287 115.211 Z m 3.272 -0.574 l -2.89 0.85 c 0.255 1.785 0.595 2.932 2.443 3.081 C 54.536 117.421 54.218 116.274 53.559 114.638 Z m 93.061 -2.422 l -0.4 -0.255 c 0 0.149 -0.786 0.34 -1.1 0.319 l 0.191 0.7 A 2.191 2.191 0 0 0 146.62 112.216 Z"/>
</svg>