<?xml version="1.0" encoding="utf-8"?>
<!-- Generated by IcoMoon.io -->
<svg version="1.1" xmlns="http://www.w3.org/2000/svg" xmlns:xlink="http://www.w3.org/1999/xlink" width="2150" height="200" viewBox="0 0 2150 200">
    <svg id="icon-eye-closed" width="14" height="10" viewBox="0 0 58 43" x="0" y="0">
        <path fill="#002d6c" d="M40.696 25.515c1.685-2.443 2.528-5.146 2.528-8.111 0-0.831-0.085-1.728-0.256-2.688l-8.958 16.061c2.772-1.066 5.001-2.821 6.686-5.262z"></path>
        <path fill="#002d6c" d="M42.009 3.391c0.021-0.043 0.032-0.138 0.032-0.288 0-0.363-0.17-0.65-0.513-0.865-0.064-0.043-0.272-0.165-0.624-0.368-0.352-0.202-0.688-0.4-1.007-0.592s-0.671-0.389-1.056-0.592c-0.384-0.202-0.714-0.368-0.991-0.496s-0.47-0.192-0.576-0.192c-0.384 0-0.683 0.171-0.896 0.512l-1.727 3.104c-1.94-0.363-3.86-0.544-5.759-0.544-5.738 0-11.027 1.451-15.869 4.351s-8.894 6.858-12.158 11.87c-0.427 0.662-0.64 1.398-0.64 2.208s0.213 1.546 0.64 2.207c1.877 2.922 4.101 5.536 6.671 7.839s5.38 4.149 8.43 5.536c-0.938 1.599-1.408 2.527-1.408 2.784 0 0.384 0.171 0.682 0.512 0.895 2.602 1.494 4.031 2.239 4.287 2.239 0.384 0 0.682-0.171 0.895-0.513l1.567-2.847c2.261-4.031 5.631-10.078 10.11-18.14s7.839-14.099 10.078-18.109zM17.981 33.497c-5.545-2.496-10.1-6.494-13.661-11.997 3.242-5.034 7.305-8.799 12.19-11.294-1.301 2.218-1.952 4.617-1.952 7.198 0 2.282 0.522 4.446 1.567 6.494s2.496 3.743 4.351 5.087l-2.496 4.512zM29.979 10.301c-0.298 0.299-0.662 0.448-1.088 0.448-1.834 0-3.402 0.651-4.703 1.952s-1.952 2.869-1.952 4.703c0 0.427-0.15 0.79-0.448 1.088s-0.661 0.448-1.088 0.448c-0.427 0-0.79-0.15-1.088-0.448s-0.448-0.661-0.448-1.088c0-2.666 0.955-4.954 2.863-6.863s4.196-2.863 6.862-2.863c0.427 0 0.789 0.15 1.088 0.448s0.448 0.661 0.448 1.088c0 0.427-0.15 0.79-0.447 1.088z"></path>
        <path fill="#002d6c" d="M56.917 19.292c-1.217-2.026-2.757-3.989-4.623-5.887s-3.813-3.529-5.839-4.895l-2.016 3.583c3.562 2.453 6.569 5.588 9.022 9.406-2.58 4.010-5.796 7.284-9.645 9.822-3.85 2.539-8.036 4-12.558 4.383l-2.368 4.223c4.735 0 9.209-1.013 13.421-3.039s7.919-4.873 11.118-8.542c1.493-1.728 2.655-3.274 3.488-4.639 0.427-0.726 0.64-1.462 0.64-2.207-0-0.747-0.213-1.483-0.64-2.208z"></path>
    </svg>
    <svg id="icon-eye-open" width="14" height="10" viewBox="0 0 67 43" x="50" y="0">
        <path fill="#002d6c" d="M65.774 18.939c-3.465-5.667-8.124-10.22-13.976-13.66s-12.032-5.16-18.541-5.16-12.688 1.719-18.541 5.16c-5.853 3.44-10.511 7.993-13.975 13.66-0.495 0.866-0.742 1.72-0.742 2.561s0.247 1.695 0.742 2.561c3.464 5.667 8.123 10.221 13.975 13.659 5.852 3.44 12.032 5.159 18.541 5.159s12.688-1.713 18.541-5.14c5.852-3.427 10.512-7.987 13.976-13.678 0.495-0.866 0.742-1.719 0.742-2.561s-0.247-1.695-0.742-2.561zM25.295 8.787c2.215-2.215 4.869-3.322 7.962-3.322 0.495 0 0.916 0.174 1.262 0.52s0.52 0.767 0.52 1.262c0 0.495-0.174 0.916-0.519 1.262-0.346 0.347-0.767 0.52-1.262 0.52-2.128 0-3.947 0.755-5.457 2.264-1.51 1.51-2.264 3.329-2.264 5.457 0 0.495-0.174 0.916-0.52 1.262s-0.767 0.52-1.262 0.52c-0.495 0-0.916-0.173-1.262-0.52s-0.52-0.767-0.52-1.262c0-3.093 1.108-5.747 3.322-7.962zM49.386 33.621c-4.962 3.006-10.338 4.51-16.128 4.51s-11.166-1.503-16.128-4.51-9.088-7.047-12.379-12.12c3.761-5.84 8.475-10.208 14.142-13.103-1.509 2.573-2.264 5.357-2.264 8.351 0 4.578 1.627 8.493 4.881 11.748s7.17 4.881 11.748 4.881c4.578 0 8.493-1.627 11.748-4.881s4.881-7.17 4.881-11.748c0-2.994-0.755-5.779-2.265-8.351 5.666 2.895 10.381 7.263 14.142 13.103-3.291 5.073-7.416 9.113-12.378 12.12z"></path>
    </svg>
    <svg id="calendar" width="14" height="14" viewBox="0 0 14 14" x="100" y="0">
        <path fill="#476d9d" d="M12.834 1.313h-1.896v-0.875c0-0.242-0.196-0.438-0.438-0.438s-0.438 0.196-0.438 0.438v0.875h-2.625v-0.875c0-0.242-0.196-0.438-0.438-0.438s-0.438 0.196-0.438 0.438v0.875h-2.625v-0.875c0-0.242-0.196-0.438-0.438-0.438s-0.438 0.196-0.438 0.438v0.875h-1.896c-0.644 0-1.167 0.522-1.167 1.166v10.354c0 0.644 0.522 1.167 1.167 1.167h11.667c0.644 0 1.166-0.522 1.166-1.167v-10.354c0-0.644-0.522-1.166-1.166-1.166zM13.125 12.833c0 0.161-0.131 0.292-0.291 0.292h-11.667c-0.161 0-0.292-0.131-0.292-0.292v-10.354c0-0.161 0.131-0.291 0.292-0.291h1.896v0.875c0 0.242 0.196 0.438 0.438 0.438s0.438-0.196 0.438-0.438v-0.875h2.625v0.875c0 0.242 0.196 0.438 0.438 0.438s0.438-0.196 0.438-0.438v-0.875h2.625v0.875c0 0.242 0.196 0.438 0.438 0.438s0.438-0.196 0.438-0.438v-0.875h1.896c0.161 0 0.291 0.131 0.291 0.291v10.354z"></path>
        <path fill="#476d9d" d="M3.063 5.25h1.75v1.313h-1.75v-1.313z"></path>
        <path fill="#476d9d" d="M3.063 7.438h1.75v1.313h-1.75v-1.313z"></path>
        <path fill="#476d9d" d="M3.063 9.625h1.75v1.313h-1.75v-1.313z"></path>
        <path fill="#476d9d" d="M6.125 9.625h1.75v1.313h-1.75v-1.313z"></path>
        <path fill="#476d9d" d="M6.125 7.438h1.75v1.313h-1.75v-1.313z"></path>
        <path fill="#476d9d" d="M6.125 5.25h1.75v1.313h-1.75v-1.313z"></path>
        <path fill="#476d9d" d="M9.188 9.625h1.75v1.313h-1.75v-1.313z"></path>
        <path fill="#476d9d" d="M9.188 7.438h1.75v1.313h-1.75v-1.313z"></path>
        <path fill="#476d9d" d="M9.188 5.25h1.75v1.313h-1.75v-1.313z"></path>
    </svg>
    <svg id="arrow_dn" width="8" height="5" viewBox="0 0 8 5" x="150" y="0">
        <path fill="#7d8ba7" d="M1.353 0.169l2.374 2.45c0.1 0.104 0.24 0.169 0.396 0.169s0.296-0.065 0.396-0.168l0-0 2.376-2.45c0.1-0.104 0.241-0.169 0.396-0.169s0.296 0.065 0.396 0.169l0 0 0.395 0.409c0.101 0.106 0.164 0.25 0.164 0.408s-0.062 0.302-0.164 0.408l0-0-3.167 3.268c-0.2 0.209-0.48 0.339-0.791 0.339s-0.592-0.13-0.791-0.338l-0-0-3.167-3.268c-0.102-0.106-0.164-0.25-0.164-0.408s0.063-0.302 0.164-0.408l-0 0 0.395-0.409c0.1-0.104 0.241-0.169 0.396-0.169s0.296 0.065 0.396 0.169l0 0z"/>
    </svg>
    <svg id="arrow_dn2" width="8" height="5" viewBox="0 0 8 5" x="150" y="50">
        <path fill="#7d8ba7" d="M1.353 0.169l2.374 2.45c0.1 0.104 0.24 0.169 0.396 0.169s0.296-0.065 0.396-0.168l0-0 2.376-2.45c0.1-0.104 0.241-0.169 0.396-0.169s0.296 0.065 0.396 0.169l0 0 0.395 0.409c0.101 0.106 0.164 0.25 0.164 0.408s-0.062 0.302-0.164 0.408l0-0-3.167 3.268c-0.2 0.209-0.48 0.339-0.791 0.339s-0.592-0.13-0.791-0.338l-0-0-3.167-3.268c-0.102-0.106-0.164-0.25-0.164-0.408s0.063-0.302 0.164-0.408l-0 0 0.395-0.409c0.1-0.104 0.241-0.169 0.396-0.169s0.296 0.065 0.396 0.169l0 0z"/>
    </svg>
    <svg id="arrow_dn3" width="9" height="6" viewBox="0 0 8 5" x="150" y="100">
        <path fill="#7382a0" d="M1.353 0.169l2.374 2.45c0.1 0.104 0.24 0.169 0.396 0.169s0.296-0.065 0.396-0.168l0-0 2.376-2.45c0.1-0.104 0.241-0.169 0.396-0.169s0.296 0.065 0.396 0.169l0 0 0.395 0.409c0.101 0.106 0.164 0.25 0.164 0.408s-0.062 0.302-0.164 0.408l0-0-3.167 3.268c-0.2 0.209-0.48 0.339-0.791 0.339s-0.592-0.13-0.791-0.338l-0-0-3.167-3.268c-0.102-0.106-0.164-0.25-0.164-0.408s0.063-0.302 0.164-0.408l-0 0 0.395-0.409c0.1-0.104 0.241-0.169 0.396-0.169s0.296 0.065 0.396 0.169l0 0z"/>
    </svg>
    <svg id="arrow_dn4" width="9" height="6" viewBox="0 0 8 5" x="150" y="150">
        <path fill="#002250" d="M1.353 0.169l2.374 2.45c0.1 0.104 0.24 0.169 0.396 0.169s0.296-0.065 0.396-0.168l0-0 2.376-2.45c0.1-0.104 0.241-0.169 0.396-0.169s0.296 0.065 0.396 0.169l0 0 0.395 0.409c0.101 0.106 0.164 0.25 0.164 0.408s-0.062 0.302-0.164 0.408l0-0-3.167 3.268c-0.2 0.209-0.48 0.339-0.791 0.339s-0.592-0.13-0.791-0.338l-0-0-3.167-3.268c-0.102-0.106-0.164-0.25-0.164-0.408s0.063-0.302 0.164-0.408l-0 0 0.395-0.409c0.1-0.104 0.241-0.169 0.396-0.169s0.296 0.065 0.396 0.169l0 0z"/>
    </svg>
    <svg id="arrow_up" width="8" height="5" viewBox="0 0 8 5" x="200" y="0">
        <path fill="#002250" d="M1.353 4.831l2.374-2.45c0.1-0.104 0.24-0.169 0.396-0.169s0.296 0.065 0.396 0.168l0 0 2.376 2.45c0.1 0.104 0.241 0.169 0.396 0.169s0.296-0.065 0.396-0.169l0-0 0.395-0.409c0.101-0.106 0.164-0.25 0.164-0.408s-0.062-0.302-0.164-0.408l0 0-3.167-3.268c-0.2-0.209-0.48-0.339-0.791-0.339s-0.592 0.13-0.791 0.338l-0 0-3.167 3.268c-0.102 0.106-0.164 0.25-0.164 0.408s0.063 0.302 0.164 0.408l-0-0 0.395 0.409c0.1 0.104 0.241 0.169 0.396 0.169s0.296-0.065 0.396-0.169l0-0z"/>
    </svg>
    <svg id="arrow_up2" width="8" height="5" viewBox="0 0 8 5" x="200" y="50">
        <path fill="#77ab60" d="M1.353 4.831l2.374-2.45c0.1-0.104 0.24-0.169 0.396-0.169s0.296 0.065 0.396 0.168l0 0 2.376 2.45c0.1 0.104 0.241 0.169 0.396 0.169s0.296-0.065 0.396-0.169l0-0 0.395-0.409c0.101-0.106 0.164-0.25 0.164-0.408s-0.062-0.302-0.164-0.408l0 0-3.167-3.268c-0.2-0.209-0.48-0.339-0.791-0.339s-0.592 0.13-0.791 0.338l-0 0-3.167 3.268c-0.102 0.106-0.164 0.25-0.164 0.408s0.063 0.302 0.164 0.408l-0-0 0.395 0.409c0.1 0.104 0.241 0.169 0.396 0.169s0.296-0.065 0.396-0.169l0-0z"/>
    </svg>
    <svg id="arrow_up2" width="9" height="6" viewBox="0 0 8 5" x="200" y="150">
        <path fill="#002250" d="M1.353 4.831l2.374-2.45c0.1-0.104 0.24-0.169 0.396-0.169s0.296 0.065 0.396 0.168l0 0 2.376 2.45c0.1 0.104 0.241 0.169 0.396 0.169s0.296-0.065 0.396-0.169l0-0 0.395-0.409c0.101-0.106 0.164-0.25 0.164-0.408s-0.062-0.302-0.164-0.408l0 0-3.167-3.268c-0.2-0.209-0.48-0.339-0.791-0.339s-0.592 0.13-0.791 0.338l-0 0-3.167 3.268c-0.102 0.106-0.164 0.25-0.164 0.408s0.063 0.302 0.164 0.408l-0-0 0.395 0.409c0.1 0.104 0.241 0.169 0.396 0.169s0.296-0.065 0.396-0.169l0-0z"/>
    </svg>
    <svg id="check" width="10" height="7" viewBox="0 0 10 7" x="250" y="0">
        <path fill="#fff" d="M8.313 0.213l-3.646 3.785c-0.184 0.198-0.492 0.21-0.69 0.027-0.009-0.009-0.018-0.018-0.026-0.027l-2.241-2.326c-0.184-0.197-0.492-0.209-0.689-0.025-0.005 0.004-0.010 0.009-0.015 0.014l-0.739 0.718c-0.209 0.207-0.215 0.543-0.013 0.757l3.327 3.454c0.374 0.395 0.998 0.411 1.393 0.037 0.014-0.013 0.025-0.025 0.038-0.037l4.702-4.872c0.194-0.203 0.199-0.521 0.013-0.731l-0.684-0.761c-0.181-0.204-0.492-0.224-0.696-0.043-0.011 0.010-0.021 0.020-0.031 0.030zM8.315 0.212l-3.646 3.784c-0.184 0.198-0.492 0.211-0.69 0.028-0.009-0.009-0.018-0.019-0.026-0.028l-2.241-2.325c-0.184-0.197-0.492-0.209-0.69-0.025-0.005 0.004-0.010 0.009-0.015 0.014l-0.738 0.718c-0.209 0.207-0.215 0.543-0.013 0.757l3.327 3.453c0.374 0.395 0.998 0.412 1.393 0.038 0.013-0.013 0.026-0.025 0.038-0.038l4.702-4.871c0.194-0.203 0.199-0.521 0.013-0.731l-0.684-0.761c-0.181-0.204-0.492-0.224-0.696-0.043-0.011 0.010-0.021 0.020-0.030 0.030z"/>
    </svg>
    <svg id="puzzle" width="20" height="20" viewBox="0 0 20 20" x="300" y="0">
        <path fill="#7382a0" d="M18.242 0h-7.656v3.341c1.269-0.162 2.305 0.761 2.342 1.9 0.043 1.254-1.043 2.276-2.342 2.072v2.101h2.93c0.422 0 0.714 0.464 0.524 0.848l-0.124 0.247c-0.137 0.275-0.12 0.593 0.046 0.852 0.168 0.261 0.435 0.394 0.758 0.396 0.371-0.013 0.572-0.259 0.659-0.405 0.168-0.283 0.184-0.637 0.039-0.925-0.098-0.197-0.087-0.182-0.087-0.182-0.183-0.395 0.121-0.83 0.529-0.83h4.141v-7.656c0-0.971-0.787-1.758-1.758-1.758z"></path>
        <path fill="#7382a0" d="M11.757 5.28c-0.013-0.371-0.259-0.572-0.405-0.659-0.281-0.168-0.636-0.184-0.925-0.039l-0.165 0.082c-0.386 0.193-0.848-0.109-0.848-0.524v-4.141h-7.656c-0.971 0-1.758 0.787-1.758 1.758v7.656h3.3c-0.194-1.231 0.79-2.392 2.083-2.342 1.213 0.039 2.063 1.173 1.915 2.342h2.115v-2.93c0-0.415 0.462-0.717 0.848-0.524l0.247 0.124c0.274 0.138 0.593 0.12 0.852-0.046 0.262-0.168 0.406-0.444 0.396-0.758z"></path>
        <path fill="#7382a0" d="M16.659 10.586c0.161 1.27-0.761 2.305-1.9 2.342-1.22 0.058-2.279-1.032-2.073-2.342h-2.099v2.93c0 0.431-0.456 0.72-0.848 0.524l-0.247-0.124c-0.275-0.137-0.594-0.12-0.852 0.046-0.262 0.168-0.406 0.444-0.396 0.758 0.013 0.371 0.259 0.572 0.405 0.659 0.282 0.168 0.637 0.185 0.925 0.039l0.165-0.082c0.389-0.196 0.848 0.090 0.848 0.524v4.141h7.656c0.971 0 1.758-0.787 1.758-1.758v-7.656h-3.341z"></path>
        <path fill="#7382a0" d="M9.414 12.675v-2.089h-2.93c-0.434 0-0.719-0.459-0.524-0.848l0.082-0.165c0.144-0.288 0.129-0.643-0.039-0.925-0.087-0.146-0.288-0.393-0.659-0.405-0.316 0.008-0.59 0.134-0.758 0.396-0.166 0.259-0.183 0.577-0.046 0.852l0.124 0.247c0.195 0.389-0.090 0.848-0.524 0.848h-4.141v7.656c0 0.971 0.787 1.758 1.758 1.758h7.656v-3.326c-1.204 0.145-2.303-0.727-2.342-1.915-0.045-1.323 1.136-2.277 2.342-2.083z"></path>
    </svg>
    <svg id="left_long" width="25" height="8" viewBox="0 0 25 8" x="350" y="0">
        <path fill="#002250" d="M17.833 2.531h-17.091c-0.404 0-0.732 0.328-0.732 0.732v0 1.471c0 0.404 0.328 0.732 0.732 0.732v0h17.091c0.404 0 0.732 0.328 0.732 0.732v0 1.054c-0 0.002-0 0.004-0 0.006 0 0.404 0.328 0.732 0.732 0.732 0.152 0 0.293-0.046 0.409-0.125l-0.003 0.002 4.962-3.261c0.203-0.132 0.336-0.358 0.336-0.615s-0.132-0.483-0.333-0.614l-0.003-0.002-4.962-3.261c-0.114-0.077-0.255-0.123-0.407-0.123-0.404 0-0.732 0.328-0.732 0.732 0 0.002 0 0.004 0 0.007v-0 1.054c0 0.404-0.328 0.732-0.732 0.732v0z"></path>
    </svg>
    <svg id="arrow_left" width="6" height="10" viewBox="0 0 6 10" x="400" y="0">
        <path fill="#7382a0" d="M5 0.080l-4.826 4.5c-0.113 0.103-0.184 0.251-0.184 0.415s0.071 0.312 0.183 0.415l0 0 4.826 4.5c0.057 0.056 0.135 0.090 0.222 0.090s0.164-0.034 0.222-0.090l-0 0 0.444-0.41c0.056-0.051 0.092-0.124 0.092-0.205s-0.035-0.154-0.091-0.205l-0-0-4.163-3.89c-0.056-0.051-0.092-0.124-0.092-0.205s0.035-0.154 0.091-0.205l0-0 4.163-3.88c0.056-0.053 0.091-0.127 0.091-0.21s-0.035-0.157-0.091-0.21l-0.444-0.41c-0.057-0.056-0.135-0.090-0.222-0.090s-0.164 0.034-0.222 0.090l0-0z"></path>
    </svg>
    <svg id="arrow_left2" width="5" height="8" viewBox="0 0 6 10" x="400" y="50">
        <path fill="#002250" d="M5 0.080l-4.826 4.5c-0.113 0.103-0.184 0.251-0.184 0.415s0.071 0.312 0.183 0.415l0 0 4.826 4.5c0.057 0.056 0.135 0.090 0.222 0.090s0.164-0.034 0.222-0.090l-0 0 0.444-0.41c0.056-0.051 0.092-0.124 0.092-0.205s-0.035-0.154-0.091-0.205l-0-0-4.163-3.89c-0.056-0.051-0.092-0.124-0.092-0.205s0.035-0.154 0.091-0.205l0-0 4.163-3.88c0.056-0.053 0.091-0.127 0.091-0.21s-0.035-0.157-0.091-0.21l-0.444-0.41c-0.057-0.056-0.135-0.090-0.222-0.090s-0.164 0.034-0.222 0.090l0-0z"></path>
    </svg>
    <svg id="arrow_right" width="6" height="10" viewBox="0 0 6 10" x="450" y="0">
        <path fill="#7382a0" d="M0.967 0.080l4.826 4.5c0.113 0.103 0.184 0.251 0.184 0.415s-0.071 0.312-0.183 0.415l-0 0-4.826 4.5c-0.057 0.056-0.135 0.090-0.222 0.090s-0.164-0.034-0.222-0.090l0 0-0.444-0.41c-0.056-0.051-0.092-0.124-0.092-0.205s0.035-0.154 0.091-0.205l0-0 4.163-3.89c0.056-0.051 0.092-0.124 0.092-0.205s-0.035-0.154-0.091-0.205l-0-0-4.163-3.88c-0.056-0.053-0.091-0.127-0.091-0.21s0.035-0.157 0.091-0.21l0.444-0.41c0.057-0.056 0.135-0.090 0.222-0.090s0.164 0.034 0.222 0.090l-0-0z"></path>
    </svg>
    <svg id="arrow_right2" width="5" height="8" viewBox="0 0 6 10" x="450" y="50">
        <path fill="#002250" d="M0.967 0.080l4.826 4.5c0.113 0.103 0.184 0.251 0.184 0.415s-0.071 0.312-0.183 0.415l-0 0-4.826 4.5c-0.057 0.056-0.135 0.090-0.222 0.090s-0.164-0.034-0.222-0.090l0 0-0.444-0.41c-0.056-0.051-0.092-0.124-0.092-0.205s0.035-0.154 0.091-0.205l0-0 4.163-3.89c0.056-0.051 0.092-0.124 0.092-0.205s-0.035-0.154-0.091-0.205l-0-0-4.163-3.88c-0.056-0.053-0.091-0.127-0.091-0.21s0.035-0.157 0.091-0.21l0.444-0.41c0.057-0.056 0.135-0.090 0.222-0.090s0.164 0.034 0.222 0.090l-0-0z"></path>
    </svg>
    <svg id="exit" width="13" height="20" viewBox="0 0 13 20" x="500" y="0">
        <path fill="#002d6c" d="M4.634 0v1.458h-4.634v17.063l4.634 0.004v1.475l8.461-1.52 0.009-16.95-8.47-1.53zM6.037 9.33c0.284 0 0.515 0.3 0.515 0.67s-0.23 0.67-0.515 0.67-0.515-0.3-0.515-0.67c-0-0.37 0.23-0.67 0.515-0.67zM1.376 17.146v-14.312h3.258v14.315l-3.258-0.003z"></path>
    </svg>
    <svg id="person" width="18" height="18" viewBox="0 0 18 18" x="550" y="0">
        <path fill="#002d6c" d="M3.921 4.312c-0.045 0.255-0.070 0.548-0.070 0.848 0 2.838 2.3 5.138 5.138 5.138s5.138-2.3 5.138-5.138c0-2.838-2.3-5.138-5.138-5.138-0.311 0-0.616 0.028-0.913 0.081l0.031-0.005c-2.147 0.388-3.813 2.063-4.182 4.183l-0.004 0.031zM0.034 16.712l0.030-0.1c0.679-2.435 1.917-4.527 3.57-6.208l-0.002 0.002c0.094-0.094 0.225-0.153 0.368-0.153 0.149 0 0.284 0.063 0.379 0.163l0 0c1.16 1.215 2.792 1.97 4.6 1.97 0.375 0 0.742-0.032 1.099-0.095l-0.038 0.005c1.409-0.236 2.629-0.912 3.545-1.879l0.003-0.003c0.095-0.099 0.229-0.16 0.377-0.16 0.145 0 0.276 0.059 0.371 0.154l0 0c1.647 1.681 2.884 3.77 3.544 6.102l0.024 0.101 0.030 0.1c0.020 0.075 0.031 0.161 0.031 0.25 0 0.57-0.462 1.033-1.033 1.033-0.005 0-0.010-0-0.016-0l0.001 0h-15.877c-0.006 0-0.012 0-0.019 0-0.564 0-1.022-0.457-1.022-1.022 0-0.093 0.012-0.183 0.036-0.268l-0.002 0.007z"></path>
    </svg>
    <svg id="email" width="23" height="17" viewBox="0 0 23 17" x="600" y="0">
        <path fill="#002d6c" d="M19.833 2.833h-17l8.5 7.083zM0 2.833c0.004-1.563 1.27-2.829 2.833-2.833h17c1.563 0.004 2.829 1.27 2.833 2.833v11.334c-0.004 1.563-1.27 2.829-2.833 2.833h-17c-1.563-0.004-2.829-1.27-2.833-2.833v-0z"></path>
    </svg>
    <svg id="case" width="20" height="16" viewBox="0 0 20 16" x="650" y="0">
        <path fill="#77ab60" d="M18.374 3.295h-5.249v-0.658c0-2.8-2.656-2.636-2.656-2.636h-1.256c-2.799 0-2.654 2.656-2.654 2.656v0.638h-5.269c-1.339 0-1.29 1.318-1.29 1.318v2.574c0 0 5.619 2.045 9.826 2.045 4.596 0 9.907-2.065 9.907-2.065v-2.554c0-1.379-1.358-1.318-1.358-1.318zM8.332 2.582c0-1.318 1.547-1.338 1.547-1.338 1.57 0 1.522 1.358 1.522 1.358v0.659h-3.069c0 0 0-0.68 0-0.68zM11.499 8.742l-3.264 0.002v-1.258h3.264v1.256z"></path>
        <path fill="#77ab60" d="M19.732 14.682v-6.566c0 0-4.275 1.968-9.936 1.968-5.207 0-9.797-2.030-9.797-2.030v6.627c0 1.338 1.269 1.318 1.269 1.318h17.125c1.42 0.001 1.338-1.318 1.338-1.318zM11.499 11.21c0 0.451-0.365 0.817-0.815 0.817h-1.634c-0.451 0-0.816-0.366-0.816-0.817v-0.842h3.264v0.842z"></path>
    </svg>
    <svg id="search" width="14" height="14" viewBox="0 0 14 14" x="700" y="0">
        <path fill="#002e6c" d="M5.58 9.52c-0.001 0-0.002 0-0.002 0-2.19 0-3.965-1.775-3.965-3.965s1.775-3.965 3.965-3.965c2.19 0 3.965 1.775 3.965 3.965 0 1.096-0.444 2.087-1.163 2.805l-0 0c-0.717 0.716-1.707 1.159-2.8 1.16h-0zM5.58 0c-3.070 0-5.559 2.489-5.559 5.559s2.489 5.559 5.559 5.559c1.139 0 2.199-0.343 3.080-0.931l-0.020 0.013c0.064-0.044 0.144-0.071 0.23-0.071h0c0.109 0 0.208 0.044 0.28 0.115l-0-0 3.62 3.642c0.069 0.073 0.167 0.118 0.275 0.118 0.002 0 0.003-0 0.005-0h-0c0.11-0.001 0.208-0.046 0.28-0.118l0-0 0.57-0.565c0.070-0.074 0.113-0.173 0.113-0.283s-0.043-0.209-0.113-0.283l0 0-3.62-3.649c-0.072-0.074-0.117-0.175-0.117-0.286 0-0.083 0.025-0.161 0.068-0.226l-0.001 0.002c0.572-0.858 0.913-1.913 0.913-3.048 0-3.062-2.482-5.544-5.544-5.544-0.007 0-0.013 0-0.020 0h0.001z"></path>
    </svg>
    <svg id="pdf" width="20" height="20" viewBox="0 0 20 20" x="750" y="0">
        <path fill="#002d6c" d="M9.222 6.222v0c0.111 0 0.111 0 0 0 0.111-0.444 0.222-0.667 0.222-1v-0.222c0.111-0.556 0.111-1 0-1.111 0 0 0 0 0-0.111l-0.111-0.111c0 0 0 0.111-0.111 0.111-0.222 0.667-0.222 1.444 0 2.444v0zM5.889 13.889c-0.222 0.111-0.444 0.222-0.556 0.333-0.778 0.667-1.333 1.444-1.444 1.778v0 0 0c0.667-0.111 1.333-0.778 2-2.111 0.111 0 0.111 0 0 0 0.111 0 0 0 0 0zM16.111 12.222c-0.111-0.111-0.556-0.444-2.111-0.444-0.111 0-0.111 0-0.222 0v0c0 0 0 0 0 0.111 0.778 0.333 1.556 0.556 2.111 0.556 0.111 0 0.111 0 0.222 0v0h0.111c0 0 0 0 0-0.111v0c0 0-0.111 0-0.111-0.111zM17.778 0h-15.556c-1.222 0-2.222 1-2.222 2.222v15.556c0 1.222 1 2.222 2.222 2.222h15.556c1.222 0 2.222-1 2.222-2.222v-15.556c0-1.222-1-2.222-2.222-2.222zM16.556 13.111c-0.222 0.111-0.556 0.222-1 0.222-0.889 0-2.222-0.222-3.333-0.778-1.889 0.222-3.333 0.444-4.444 0.889-0.111 0-0.111 0-0.222 0.111-1.333 2.333-2.444 3.444-3.333 3.444-0.222 0-0.333 0-0.444-0.111l-0.556-0.333v-0.111c-0.111-0.222-0.111-0.333-0.111-0.556 0.111-0.556 0.778-1.556 2.111-2.333 0.222-0.111 0.556-0.333 1-0.556 0.333-0.556 0.667-1.222 1.111-2 0.556-1.111 0.889-2.222 1.222-3.222v0c-0.444-1.333-0.667-2.111-0.222-3.667 0.111-0.444 0.444-0.889 0.889-0.889h0.222c0.222 0 0.444 0.111 0.667 0.222 0.778 0.778 0.444 2.556 0 4 0 0.111 0 0.111 0 0.111 0.444 1.222 1.111 2.222 1.778 2.889 0.333 0.222 0.556 0.444 1 0.667 0.556 0 1-0.111 1.444-0.111 1.333 0 2.222 0.222 2.556 0.778 0.111 0.222 0.111 0.444 0.111 0.667-0.111 0.111-0.222 0.444-0.444 0.667zM9.333 8.778c-0.222 0.778-0.667 1.667-1.111 2.667-0.222 0.444-0.444 0.778-0.667 1.222h0.222c1.444-0.556 2.778-0.889 3.667-1-0.222-0.111-0.333-0.222-0.444-0.333-0.556-0.667-1.222-1.556-1.667-2.556z"></path>
    </svg>
    <svg id="chart" width="20" height="20" viewBox="0 0 20 20" x="800" y="0">
        <path fill="#7382a0" d="M18.922 4.508l-2.516 2.156-3.496-4.66c-0.289-0.383-0.887-0.336-1.105 0.098l-3.504 7.016-3.273-3.273c-0.285-0.285-0.75-0.242-0.984 0.074l-2.734 3.707v-8.969c0-0.359-0.293-0.652-0.652-0.652s-0.652 0.293-0.652 0.652c0 3.941 0 14.562 0 18.695 0 0.359 0.293 0.652 0.652 0.652h18.695c0.359 0 0.652-0.293 0.652-0.652 0-5.762 0-9.84 0-14.348-0.004-0.559-0.66-0.859-1.082-0.496zM18.695 11.223l-2.289 1.961-3.492-4.66c-0.289-0.387-0.887-0.336-1.105 0.098l-3.508 7.016-3.273-3.273c-0.289-0.289-0.754-0.242-0.984 0.074l-2.734 3.707v-4.324l3.332-4.52 3.379 3.379c0.316 0.316 0.848 0.227 1.043-0.168l3.441-6.883 3.281 4.375c0.227 0.305 0.66 0.348 0.945 0.105l1.965-1.691v4.805z"></path>
    </svg>
    <svg id="table" width="20" height="20" viewBox="0 0 20 20" x="850" y="0">
        <path fill="#7382a0" d="M0 0.625v18.75h20v-18.75h-20zM6.25 18.125h-5v-2.5h5v2.5zM6.25 14.375h-5v-2.5h5v2.5zM6.25 10.625h-5v-2.5h5v2.5zM6.25 6.875h-5v-2.5h5v2.5zM12.5 18.125h-5v-2.5h5v2.5zM12.5 14.375h-5v-2.5h5v2.5zM12.5 10.625h-5v-2.5h5v2.5zM12.5 6.875h-5v-2.5h5v2.5zM18.75 18.125h-5v-2.5h5v2.5zM18.75 14.375h-5v-2.5h5v2.5zM18.75 10.625h-5v-2.5h5v2.5zM18.75 6.875h-5v-2.5h5v2.5z"></path>
    </svg>
    <svg id="xls" width="20" height="20" viewBox="0 0 20 20" x="900" y="0">
        <path fill="#7382a0" d="M17.734 7.153h-0.479v-2.317c0-0.015-0.004-0.029-0.004-0.044 0-0.091-0.029-0.182-0.094-0.254l-3.856-4.405c0 0-0.004 0-0.004-0.004-0.022-0.025-0.051-0.047-0.080-0.065-0.007-0.007-0.018-0.011-0.025-0.015-0.025-0.015-0.051-0.025-0.076-0.033-0.007-0.004-0.015-0.004-0.022-0.007-0.029-0.007-0.058-0.011-0.091-0.011h-9.477c-0.432 0-0.784 0.352-0.784 0.784v6.369h-0.479c-0.617 0-1.122 0.501-1.122 1.122v5.828c0 0.617 0.501 1.122 1.122 1.122h0.479v3.991c0 0.432 0.352 0.784 0.784 0.784h12.941c0.432 0 0.784-0.352 0.784-0.784v-3.991h0.479c0.617 0 1.122-0.501 1.122-1.122v-5.828c0.004-0.617-0.497-1.122-1.118-1.122zM3.529 0.784h9.085v4.012c0 0.218 0.174 0.392 0.392 0.392h3.464v1.964h-12.941v-6.369zM12.331 12.869v1.137h-3.744v-5.991h1.362v4.851h2.382zM2.698 14.005l1.732-3.032-1.67-2.959h1.554l0.523 1.093c0.178 0.363 0.312 0.657 0.454 0.995h0.018c0.142-0.381 0.258-0.65 0.41-0.995l0.508-1.093h1.543l-1.688 2.923 1.779 3.065h-1.565l-0.541-1.086c-0.222-0.418-0.363-0.73-0.534-1.075h-0.018c-0.123 0.345-0.276 0.657-0.461 1.075l-0.497 1.086-1.547 0.004zM16.471 19.005h-12.941v-3.78h12.941v3.78zM14.597 14.096c-0.683 0-1.358-0.178-1.696-0.363l0.276-1.118c0.363 0.185 0.926 0.374 1.503 0.374 0.621 0 0.951-0.258 0.951-0.65 0-0.374-0.283-0.588-1.006-0.846-0.995-0.345-1.645-0.897-1.645-1.768 0-1.020 0.853-1.805 2.266-1.805 0.675 0 1.173 0.142 1.529 0.301l-0.301 1.093c-0.24-0.116-0.668-0.283-1.253-0.283-0.588 0-0.871 0.265-0.871 0.577 0 0.381 0.338 0.552 1.111 0.846 1.057 0.392 1.554 0.94 1.554 1.786-0.004 1.002-0.773 1.855-2.418 1.855z"></path>
    </svg>
    <svg id="dir_up" width="14" height="18" viewBox="0 0 14 18" x="950" y="0">
        <path fill="#77ab60" d="M10.374 17.995v-9.436h3.618l-6.996-8.554-6.996 8.558h3.618v9.432h6.756z"></path>
    </svg>
    <svg id="dir_dn" width="14" height="18" viewBox="0 0 14 18" x="1000" y="0">
        <path fill="#d32f2f" d="M10.374 0.005v9.436h3.618l-6.996 8.554-6.996-8.558h3.618v-9.432h6.756z"></path>
    </svg>
    <svg id="info" width="60" height="60" viewBox="0 0 60 60" x="1050" y="0" style="width:4.25em">
        <path fill="#002e6c" d="M55.977 14.941c-2.683-4.596-6.322-8.235-10.918-10.918s-9.615-4.023-15.059-4.023c-5.443 0-10.463 1.341-15.059 4.023s-8.235 6.321-10.918 10.918c-2.683 4.597-4.024 9.617-4.024 15.059s1.341 10.462 4.023 15.059c2.683 4.596 6.322 8.235 10.918 10.918s9.616 4.023 15.059 4.023 10.463-1.341 15.059-4.023c4.596-2.682 8.235-6.322 10.918-10.918s4.023-9.616 4.023-15.059c0-5.443-1.341-10.463-4.022-15.059zM25.001 7.5c0-0.365 0.117-0.664 0.352-0.898s0.534-0.352 0.898-0.352h7.5c0.364 0 0.664 0.118 0.898 0.352s0.352 0.533 0.352 0.898v6.25c0 0.365-0.118 0.664-0.352 0.898s-0.533 0.351-0.898 0.351h-7.5c-0.365 0-0.664-0.117-0.898-0.351s-0.352-0.534-0.352-0.898v-6.25zM40 48.75c0 0.364-0.118 0.664-0.352 0.898s-0.533 0.352-0.898 0.352h-17.5c-0.365 0-0.664-0.117-0.898-0.352s-0.351-0.533-0.351-0.898v-6.25c0-0.365 0.117-0.664 0.351-0.898s0.534-0.352 0.898-0.352h3.75v-12.5h-3.75c-0.365 0-0.664-0.117-0.898-0.351s-0.351-0.534-0.351-0.898v-6.25c0-0.365 0.117-0.664 0.351-0.898s0.534-0.351 0.898-0.351h12.501c0.364 0 0.664 0.117 0.898 0.351s0.352 0.534 0.352 0.898v20h3.749c0.365 0 0.665 0.117 0.899 0.351s0.351 0.534 0.351 0.898v6.25h0.001z"></path>
    </svg>
    <svg id="camera" width="61" height="52" viewBox="0 0 61 52" x="1200" y="0">
        <path fill="#7382a0" d="M52.286 12.037c-1.563 0-2.835 1.272-2.835 2.835s1.272 2.835 2.835 2.835c1.564 0 2.835-1.272 2.835-2.835s-1.272-2.835-2.835-2.835zM52.286 15.817c-0.521 0-0.945-0.424-0.945-0.945s0.424-0.945 0.945-0.945c0.521 0 0.945 0.424 0.945 0.945s-0.424 0.945-0.945 0.945z"></path>
        <path fill="#7382a0" d="M53.863 6.454h-7.945c-1.275 0-2.312-1.037-2.312-2.312 0-2.317-1.885-4.202-4.202-4.202h-17.869c-2.317 0-4.202 1.885-4.202 4.202 0 1.275-1.037 2.312-2.312 2.312h-7.945c-3.776 0-6.848 3.072-6.848 6.848v28.129c0 0.522 0.423 0.945 0.945 0.945s0.945-0.423 0.945-0.945v-28.129c0-2.734 2.224-4.958 4.958-4.958h7.945c2.317 0 4.202-1.885 4.202-4.202 0-1.275 1.037-2.312 2.312-2.312h17.869c1.275 0 2.312 1.037 2.312 2.312 0 2.317 1.885 4.202 4.202 4.202h7.945c2.734 0 4.958 2.224 4.958 4.958v31.91c0 2.734-2.224 4.958-4.958 4.958h-46.788c-2.734 0-4.958-2.224-4.958-4.958 0-0.522-0.423-0.945-0.945-0.945s-0.945 0.423-0.945 0.945c-0 3.776 3.072 6.849 6.848 6.849h46.789c3.776 0 6.848-3.072 6.848-6.849v-31.91c0-3.776-3.072-6.848-6.848-6.848z"></path>
        <path fill="#7382a0" d="M42.111 23.176c-0.239-0.464-0.809-0.646-1.273-0.407s-0.646 0.809-0.407 1.273c0.823 1.595 1.24 3.32 1.24 5.128 0 6.177-5.026 11.203-11.203 11.203s-11.203-5.026-11.203-11.203c0-6.177 5.026-11.203 11.203-11.203 2.773 0 5.435 1.021 7.494 2.876 0.388 0.349 0.985 0.318 1.335-0.070s0.318-0.986-0.070-1.335c-2.407-2.167-5.517-3.361-8.759-3.361-7.219 0-13.093 5.873-13.093 13.093s5.873 13.093 13.093 13.093 13.093-5.874 13.093-13.093c0-2.083-0.502-4.156-1.45-5.995z"></path>
        <path fill="#7382a0" d="M11.524 2.825h-3.885c-0.522 0-0.945 0.423-0.945 0.945s0.423 0.945 0.945 0.945h3.885c0.522 0 0.945-0.423 0.945-0.945s-0.423-0.945-0.945-0.945z"></path>
    </svg>
    <svg id="trash" width="12" height="12" viewBox="0 0 12 12" x="1350" y="0">
        <path fill="#7382a0" d="M10.597 0.258l-4.231 4.233c-0.080 0.079-0.19 0.128-0.311 0.128s-0.231-0.049-0.311-0.128l0 0-4.391-4.389c-0.079-0.080-0.189-0.13-0.311-0.13s-0.232 0.050-0.311 0.13l-0 0-0.632 0.627c-0.079 0.081-0.128 0.191-0.128 0.313s0.049 0.233 0.128 0.313l4.391 4.389c0.079 0.080 0.128 0.19 0.128 0.311s-0.049 0.231-0.128 0.311l0-0-4.231 4.231c-0.079 0.082-0.128 0.193-0.128 0.316s0.049 0.234 0.128 0.316l0.621 0.621c0.080 0.083 0.192 0.135 0.316 0.135s0.236-0.052 0.316-0.135l0-0 4.231-4.231c0.080-0.079 0.19-0.128 0.311-0.128s0.231 0.049 0.311 0.128l-0-0 4.081 4.081c0.080 0.079 0.19 0.128 0.311 0.128s0.231-0.049 0.311-0.128l-0 0 0.632-0.632c0.079-0.080 0.128-0.19 0.128-0.311s-0.049-0.231-0.128-0.311l0 0-4.081-4.081c-0.079-0.080-0.128-0.19-0.128-0.311s0.049-0.231 0.128-0.311l-0 0 4.231-4.233c0.083-0.079 0.135-0.19 0.135-0.313s-0.052-0.235-0.135-0.313l-0-0-0.622-0.627c-0.081-0.080-0.193-0.13-0.316-0.13s-0.235 0.050-0.316 0.13l0-0z"></path>
    </svg>
    <svg id="avatar" width="22" height="26" viewBox="0 0 22 26" x="1450" y="0">
        <path fill="#002250" d="M11.078 14.010c0.027 0 0.054 0 0.086 0 0.011 0 0.022 0 0.032 0 0.016 0 0.038 0 0.054 0 1.578-0.027 2.854-0.581 3.796-1.642 2.073-2.337 1.728-6.343 1.691-6.725-0.135-2.87-1.491-4.243-2.611-4.883-0.835-0.479-1.809-0.738-2.897-0.759h-0.038c-0.005 0-0.016 0-0.022 0h-0.032c-0.598 0-1.771 0.097-2.897 0.738-1.131 0.641-2.509 2.014-2.644 4.905-0.038 0.382-0.382 4.388 1.691 6.725 0.937 1.061 2.213 1.615 3.79 1.642zM7.034 5.777c0-0.016 0.005-0.032 0.005-0.043 0.178-3.86 2.918-4.275 4.092-4.275h0.022c0.011 0 0.027 0 0.043 0 1.454 0.032 3.925 0.625 4.092 4.275 0 0.016 0 0.032 0.005 0.043 0.005 0.038 0.382 3.699-1.33 5.626-0.678 0.765-1.583 1.141-2.773 1.152-0.011 0-0.016 0-0.027 0v0c-0.011 0-0.016 0-0.027 0-1.184-0.011-2.094-0.388-2.767-1.152-1.707-1.917-1.341-5.594-1.335-5.626z"></path>
        <path fill="#002250" d="M22.228 20.654c0-0.005 0-0.011 0-0.016 0-0.043-0.005-0.086-0.005-0.135-0.032-1.066-0.102-3.559-2.439-4.356-0.016-0.005-0.038-0.011-0.054-0.016-2.428-0.619-4.447-2.019-4.469-2.035-0.328-0.232-0.781-0.151-1.012 0.178s-0.151 0.781 0.178 1.012c0.092 0.065 2.234 1.556 4.916 2.245 1.255 0.447 1.395 1.788 1.432 3.015 0 0.048 0 0.092 0.005 0.135 0.005 0.485-0.027 1.233-0.113 1.664-0.872 0.495-4.291 2.207-9.492 2.207-5.18 0-8.62-1.718-9.498-2.213-0.086-0.431-0.124-1.179-0.113-1.664 0-0.043 0.005-0.086 0.005-0.135 0.038-1.228 0.178-2.568 1.432-3.015 2.681-0.689 4.824-2.186 4.916-2.245 0.328-0.232 0.409-0.684 0.178-1.012s-0.684-0.409-1.012-0.178c-0.022 0.016-2.030 1.416-4.469 2.035-0.022 0.005-0.038 0.011-0.054 0.016-2.337 0.802-2.407 3.295-2.439 4.356 0 0.048 0 0.092-0.005 0.135 0 0.005 0 0.011 0 0.016-0.005 0.28-0.011 1.718 0.275 2.439 0.054 0.14 0.151 0.258 0.28 0.339 0.162 0.108 4.033 2.574 10.51 2.574s10.348-2.471 10.51-2.574c0.124-0.081 0.226-0.199 0.28-0.339 0.269-0.716 0.264-2.154 0.258-2.434z"></path>
    </svg>
    <svg id="passsport" width="20" height="26" viewBox="0 0 20 26" x="1500" y="0">
        <path fill="#002250" d="M12.875 21.697h-6.5c-0.299 0-0.542 0.242-0.542 0.542s0.242 0.542 0.542 0.542h6.5c0.299 0 0.542-0.242 0.542-0.542s-0.242-0.542-0.542-0.542z"></path>
        <path fill="#002250" d="M9.75 6.5c-3.285 0-5.958 2.673-5.958 5.958s2.673 5.958 5.958 5.958 5.958-2.673 5.958-5.958-2.673-5.958-5.958-5.958zM4.93 13h2.123c0.060 1.475 0.365 2.943 0.894 3.978-1.634-0.654-2.813-2.167-3.017-3.978zM7.053 11.917h-2.123c0.204-1.811 1.383-3.324 3.017-3.978-0.529 1.035-0.834 2.503-0.894 3.978zM9.75 17.333c-0.621 0-1.493-1.678-1.603-4.333h3.207c-0.11 2.655-0.983 4.333-1.603 4.333zM8.147 11.917c0.11-2.655 0.983-4.333 1.603-4.333s1.493 1.678 1.603 4.333h-3.207zM11.554 16.978c0.529-1.035 0.834-2.503 0.894-3.978h2.123c-0.204 1.811-1.383 3.324-3.017 3.978zM12.447 11.917c-0.060-1.476-0.365-2.943-0.894-3.978 1.634 0.654 2.813 2.167 3.017 3.978h-2.123z"></path>
        <path fill="#002250" d="M17.333 3.25h-1.083v-1.119c0-1.184-1.001-2.143-2.167-2.131-0.166 0.002-0.312 0.025-0.484 0.068l-11.549 3.193c-1.14 0.062-2.051 1-2.051 2.155v18.417c0 1.195 0.972 2.167 2.167 2.167h15.167c1.195 0 2.167-0.972 2.167-2.167v-18.417c-0-1.195-0.972-2.167-2.167-2.167zM13.877 1.115c0.632-0.161 1.289 0.351 1.289 1.016v1.119h-9.009l7.72-2.135zM18.417 23.833c0 0.597-0.486 1.083-1.083 1.083h-15.167c-0.597 0-1.083-0.486-1.083-1.083v-18.417c0-0.597 0.486-1.083 1.083-1.083h15.167c0.597 0 1.083 0.486 1.083 1.083v18.417z"></path>
    </svg>
    <svg id="address" width="24" height="26" viewBox="0 0 24 26" x="1550" y="0">
        <path fill="#002250" d="M22.856 6.742l-9.1-6.5c-0.226-0.162-0.491-0.242-0.756-0.242s-0.53 0.081-0.756 0.242l-9.1 6.5c-0.46 0.328-0.655 0.917-0.482 1.455s0.673 0.903 1.238 0.903h1.3v0.733c0.407-0.33 0.842-0.615 1.3-0.854v-1.179h-2.6l9.1-6.5 9.1 6.5h-2.6v11.7h-2.48c-0.239 0.458-0.523 0.893-0.854 1.3h3.333c0.718 0 1.3-0.582 1.3-1.3v-10.4h1.3c0.565 0 1.066-0.365 1.238-0.903s-0.022-1.126-0.482-1.455z"></path>
        <path fill="#002250" d="M14.698 11.302c-1.228-1.228-2.86-1.904-4.596-1.904s-3.368 0.676-4.596 1.904c-2.377 2.377-2.495 6.136-0.413 8.687l-5.092 5.093 0.919 0.919 5.091-5.091c1.157 0.947 2.576 1.489 4.092 1.489 1.736 0 3.369-0.676 4.596-1.904s1.904-2.86 1.904-4.596c-0-1.736-0.676-3.369-1.904-4.596zM13.779 19.575c-1.015 1.015-2.346 1.523-3.677 1.523s-2.66-0.507-3.675-1.521l-0.004-0.004c-2.029-2.031-2.028-5.322 0.002-7.351 1.015-1.015 2.346-1.523 3.677-1.523s2.662 0.508 3.677 1.523c2.031 2.031 2.031 5.323 0 7.354z"></path>
    </svg>
    <svg id="bank" width="26" height="26" viewBox="0 0 26 26" x="1600" y="0">
        <path fill="#002250" d="M12.999 3.544c-1.304 0-2.365 1.061-2.365 2.365s1.061 2.365 2.365 2.365c1.304 0 2.365-1.061 2.365-2.365s-1.061-2.365-2.365-2.365zM12.999 7.092c-0.652 0-1.183-0.531-1.183-1.183s0.531-1.183 1.183-1.183c0.652 0 1.183 0.531 1.183 1.183s-0.531 1.183-1.183 1.183z"></path>
        <path fill="#002250" d="M25.409 10.636c0.327 0 0.591-0.263 0.591-0.589v-2.363c0-0.208-0.11-0.402-0.289-0.508l-11.559-6.865c-0.005-0.003-0.010-0.006-0.016-0.009-0.718-0.398-1.529-0.41-2.289 0.008l-11.558 6.866c-0.179 0.106-0.289 0.299-0.289 0.508v2.363c0 0.327 0.264 0.589 0.591 0.589h1.773v10.637c-1.304 0-2.364 1.060-2.364 2.363v1.773c0 0.327 0.264 0.591 0.591 0.591h24.818c0.327 0 0.591-0.264 0.591-0.591v-1.773c0-1.303-1.060-2.363-2.364-2.363v-10.637h1.773zM24.818 23.636v1.182h-23.636v-1.182c0-0.651 0.53-1.182 1.182-1.182h21.273c0.651-0 1.182 0.53 1.182 1.182zM3.545 21.273v-10.636h2.364v10.636h-2.364zM7.091 21.273v-10.636h3.545v10.636h-3.545zM11.818 21.273v-10.636h2.364v10.636h-2.364zM15.364 21.273v-10.636h3.545v10.636h-3.545zM20.091 21.273v-10.636h2.364v10.636h-2.364zM1.182 9.455v-1.436l11.252-6.685c0.368-0.203 0.759-0.202 1.123-0.004l11.261 6.689v1.436h-23.636z"></path>
    </svg>
    <svg id="preview" width="20" height="20" viewBox="0 0 21 21" x="1650" y="0">
        <path fill="#7382a0" d="M5.101 12.481h3.566c0.492 0 0.892-0.399 0.892-0.892s-0.399-0.892-0.892-0.892h-3.566c-0.492 0-0.892 0.399-0.892 0.892s0.399 0.892 0.892 0.892z"></path>
        <path fill="#7382a0" d="M20.689 19.478l-1.839-1.839c0.45-0.686 0.713-1.505 0.713-2.385 0-2.098-1.49-3.854-3.467-4.267v-3.559c0-0.236-0.094-0.463-0.261-0.63l-6.538-6.538c-0.167-0.167-0.394-0.261-0.63-0.261h-7.726c-0.492 0-0.892 0.399-0.892 0.892v17.83c0 0.492 0.399 0.892 0.892 0.892h14.264c0.88 0 1.699-0.263 2.385-0.713l1.839 1.839c0.174 0.174 0.402 0.261 0.63 0.261s0.456-0.087 0.63-0.261c0.348-0.348 0.348-0.913 0-1.261zM17.781 15.255c0 1.42-1.155 2.576-2.576 2.576s-2.576-1.155-2.576-2.576 1.155-2.576 2.576-2.576c1.42 0 2.576 1.155 2.576 2.576zM9.559 3.044l3.494 3.494h-3.494v-3.494zM1.832 1.783h5.943v5.646c0 0.492 0.399 0.892 0.892 0.892h5.646v2.667c-1.656 0.346-2.969 1.634-3.352 3.276h-5.86c-0.492 0-0.892 0.399-0.892 0.892s0.399 0.892 0.892 0.892h5.819c0.121 0.658 0.39 1.264 0.772 1.783h-9.859v-16.047z"></path>
    </svg>
    <svg id="checkstep" width="15" height="10" viewBox="0 0 15 10" x="1700" y="0">
        <path fill="#7382a0" d="M13.731 0l-8.495 8.495-4.436-4.436-0.753 0.753 5.189 5.189 9.247-9.247z"></path>
    </svg>
    <!--<svg id="" width="6" height="10" viewBox="0 0 6 10" x="450" y="0"></svg>-->
    <svg fill="#002e6c" width="24" xmlns="http://www.w3.org/2000/svg" viewBox="0 0 60 60"
         enable-background="new 0 0 60 60">
        <path d="M36.403 22h-25c-.552 0-1 .448-1 1s.448 1 1 1h25c.552 0 1-.448 1-1s-.448-1-1-1zM11.403 16h10c.552 0 1-.448 1-1s-.448-1-1-1h-10c-.552 0-1 .448-1 1s.447 1 1 1zM37.403 31c0-.552-.448-1-1-1h-25c-.552 0-1 .448-1 1s.448 1 1 1h25c.552 0 1-.448 1-1zM30.403 39c0-.552-.448-1-1-1h-18c-.552 0-1 .448-1 1s.448 1 1 1h18c.552 0 1-.448 1-1zM11.403 46c-.552 0-1 .448-1 1s.448 1 1 1h13c.552 0 1-.448 1-1s-.448-1-1-1h-13zM2.403 2h29v14h14v19h2v-20.414l-14.586-14.586h-32.414v60h34v-2h-32v-56zm31 1.414l10.586 10.586h-10.586v-10.586zM59.239 48.643c-3.513-5.365-8.203-8.392-13.255-8.59-.269-.032-.541-.053-.818-.053-.49 0-.967.053-1.428.15-4.596.592-8.83 3.552-12.065 8.493l-.465.711.358.547c3.635 5.552 8.529 8.609 13.783 8.609s10.148-3.057 13.784-8.609l.465-.711-.359-.547zm-9.164-1.734c0 2.707-2.202 4.909-4.909 4.909s-4.909-2.202-4.909-4.909c0-2.344 1.654-4.303 3.854-4.788.446-.053.894-.087 1.345-.087l.067.002c2.538.187 4.552 2.288 4.552 4.873zm-4.726 9.602c-4.387 0-8.537-2.537-11.743-7.161 1.559-2.286 3.348-4.069 5.28-5.305-.4.874-.629 1.841-.629 2.863 0 3.81 3.1 6.909 6.909 6.909s6.909-3.1 6.909-6.909c0-1.216-.318-2.358-.872-3.351 2.204 1.207 4.242 3.107 5.996 5.637-3.22 4.723-7.414 7.317-11.85 7.317z"/>
    </svg>
</svg>
