<!-- Generated by IcoMoon.io -->
<svg version="1.1" xmlns="http://www.w3.org/2000/svg" width="254" height="378" viewBox="0 0 254 378">
<title>us_logo_small</title>
<path fill="#d2d9e4" d="M128.030 165.088c-62.488 0-114.946 43.203-114.946 97.975 0 17.74 5.403 34.718 16.202 51.689 29.315-27.77 54.772-77.915 65.571-138.090 0.769-0.769 9.254-2.314 16.202-2.314 0 8.485-6.941 137.314-53.227 182.832-33.174-23.143-56.316-61.713-56.316-104.916 0-60.175 41.659-110.319 97.975-122.657 3.858-40.115 3.858-57.086 3.858-77.146h9.254c0 0 0 56.316-0.769 74.057 3.858 0 6.941-0.769 10.8-0.769v-125.746h8.485v125.746c3.858 0 6.941 0.769 10.8 0.769 0-18.516-0.769-74.057-0.769-74.057h9.254c0 20.061 0 37.032 3.858 77.146 55.541 12.344 97.975 63.257 97.975 122.657 0 43.972-22.374 82.542-56.316 104.916-45.517-45.517-53.227-174.346-53.227-182.832 6.941 0.769 15.427 2.314 16.202 2.314 10.8 60.175 35.487 110.319 65.571 138.090 11.575-16.971 16.202-33.942 16.202-51.689 1.544-54.772-50.913-97.975-112.633-97.975zM88.685 371.832c18.516-31.629 28.546-91.803 32.398-198.258h13.113c4.627 105.685 13.889 166.629 32.398 198.258-12.344 4.627-25.457 6.172-39.345 6.172-13.113 0-26.226-3.083-38.57-6.172z"></path>
</svg>
