<!-- Generated by IcoMoon.io -->
<svg version="1.1" xmlns="http://www.w3.org/2000/svg" width="65" height="43" viewBox="0 0 65 43">
<title>du</title>
<path fill="#002e6c" d="M65.208 11.11c-0.002-0.99-0.293-1.993-0.936-2.82l-5.163-6.607c-0.865-1.098-2.181-1.657-3.496-1.659-0.783 0-1.579 0.201-2.284 0.639l-5.035 3.133c-0.529 0.338-1.437 0.569-2.314 0.564-0.681 0.003-1.34-0.134-1.774-0.348l-4.931-2.389c-0.795-0.383-1.681-0.54-2.574-0.542-1.28 0.006-2.577 0.32-3.619 1.042l-0.575 0.403c-0.46-0.229-1.163-0.579-1.959-0.975-0.955-0.468-2.077-0.657-3.211-0.66-1.025 0.003-2.048 0.161-2.948 0.54l-3.358 1.433c-0.547 0.237-1.416 0.392-2.279 0.388-0.864 0.003-1.731-0.151-2.278-0.388l-3.361-1.434c-0.613-0.261-1.269-0.373-1.918-0.374-0.748 0.001-1.492 0.148-2.183 0.428-0.69 0.282-1.331 0.697-1.841 1.267l-6.12 6.854c-0.679 0.757-1.015 1.711-1.014 2.65-0.002 1.12 0.478 2.244 1.402 3.031l5.709 4.87-2.708 2.825c-0.746 0.779-1.119 1.789-1.119 2.789-0.002 1.063 0.421 2.136 1.257 2.926l0.55 0.522c0.518 0.491 1.14 0.803 1.791 0.97-0.327 0.601-0.505 1.259-0.504 1.919-0.002 1.063 0.421 2.136 1.256 2.927l-0.002-0.001 0.551 0.524c0.784 0.744 1.801 1.114 2.803 1.113 0.539 0.001 1.077-0.107 1.584-0.319 0.178 0.722 0.545 1.407 1.123 1.955l0.551 0.524c0.784 0.744 1.799 1.114 2.803 1.113 0.784 0.001 1.573-0.231 2.25-0.679 0.199 0.639 0.539 1.243 1.056 1.735l0.551 0.524c0.783 0.744 1.799 1.114 2.802 1.113 1.067 0.001 2.145-0.419 2.94-1.249l2.394-2.499 3.252 3.010c0.778 0.722 1.777 1.081 2.763 1.079 1.084 0.002 2.177-0.432 2.974-1.286l0.519-0.556c0.448-0.481 0.741-1.051 0.91-1.646l1.259 1.163c0.779 0.719 1.777 1.077 2.762 1.076 1.085 0.001 2.181-0.433 2.98-1.288l0.516-0.556c0.596-0.637 0.932-1.426 1.036-2.231 0.333 0.085 0.669 0.143 1.009 0.143 1.085 0 2.178-0.433 2.977-1.287l0.518-0.556c0.723-0.776 1.084-1.77 1.082-2.751 0-0.304-0.043-0.607-0.111-0.907 0.9-0.119 1.772-0.521 2.435-1.233l0.519-0.556c0.723-0.776 1.082-1.77 1.082-2.751 0.002-1.080-0.434-2.169-1.293-2.963l-0.971-0.897 8.763-9.688c0.787-0.872 1.149-1.995 1.151-3.101zM7.93 28.128c-0.464-0.002-0.918-0.167-1.273-0.504l-0.55-0.522c-0.381-0.36-0.569-0.838-0.57-1.331 0.002-0.461 0.167-0.912 0.507-1.267l5.547-5.788c0.362-0.377 0.843-0.566 1.338-0.566 0.462 0.001 0.915 0.167 1.273 0.504l0.548 0.523c0 0 0.567 0.838 0.569 1.331-0.002 0.368-0.113 0.728-0.328 1.039-0.019 0.019-5.987 6.239-5.987 6.239-0.317 0.225-0.692 0.34-1.073 0.341zM12.36 33.901c-0.36 0.376-0.842 0.564-1.337 0.565-0.464-0.001-0.917-0.167-1.273-0.504l-0.551-0.524-0.002-0.001c-0.378-0.359-0.567-0.838-0.567-1.331 0-0.461 0.167-0.912 0.505-1.267 0 0 7.394-7.697 7.456-7.77 0.354-0.34 0.808-0.515 1.279-0.516 0.464 0.001 0.917 0.167 1.273 0.504l0.551 0.524c0.379 0.359 0.567 0.838 0.569 1.331-0.002 0.461-0.168 0.912-0.507 1.267l-7.396 7.721zM18.42 37.173c-0.36 0.376-0.841 0.564-1.336 0.566-0.464-0.001-0.917-0.167-1.273-0.504l-0.553-0.524c-0.379-0.359-0.569-0.838-0.569-1.331 0-0.411 0.14-0.811 0.408-1.143l5.149-5.374c0.347-0.314 0.783-0.478 1.234-0.478 0.464 0.001 0.917 0.167 1.273 0.504l0.553 0.524c0.378 0.359 0.567 0.838 0.569 1.33-0.002 0.462-0.169 0.913-0.507 1.267l-4.948 5.163zM28.203 36.606l-3.125 3.261c-0.36 0.376-0.842 0.564-1.337 0.566-0.464-0.001-0.917-0.167-1.273-0.504l-0.551-0.524c-0.378-0.359-0.567-0.838-0.569-1.331 0.002-0.462 0.168-0.913 0.507-1.267l3.123-3.261c0.362-0.376 0.843-0.565 1.338-0.566 0.462 0.001 0.917 0.167 1.273 0.504l0.553 0.524c0.378 0.359 0.566 0.838 0.567 1.33-0.002 0.462-0.169 0.913-0.507 1.267zM55.346 27.761c-0 0.453-0.163 0.897-0.492 1.249l-0.518 0.556c-0.362 0.387-0.851 0.582-1.353 0.583-0.456-0.001-0.902-0.161-1.256-0.488l-8.723-8.068-1.509 1.616 9.338 8.65c0.389 0.36 0.585 0.849 0.587 1.348-0.003 0.454-0.164 0.897-0.492 1.25l-0.516 0.556c-0.362 0.387-0.851 0.582-1.353 0.583-0.456-0.002-0.903-0.162-1.254-0.487l-8.726-8.068-1.507 1.616 7.744 7.161c0.373 0.357 0.564 0.834 0.564 1.323 0 0.453-0.161 0.897-0.489 1.249l-0.518 0.556c-0.36 0.387-0.851 0.582-1.355 0.583-0.457-0.002-0.903-0.162-1.256-0.487l-7.731-7.136-1.504 1.618 0.030 0.029 3.871 3.573c0.343 0.352 0.521 0.805 0.522 1.272-0.002 0.451-0.161 0.892-0.489 1.244l-0.518 0.556c-0.362 0.387-0.85 0.58-1.351 0.582-0.456-0.002-0.902-0.161-1.254-0.488l-3.37-3.12c0.293-0.575 0.457-1.2 0.457-1.826 0.002-1.063-0.421-2.134-1.256-2.926l-0.553-0.524c-0.783-0.743-1.798-1.114-2.8-1.112-0.078 0-0.156 0.018-0.233 0.022 0-0.019 0.005-0.038 0.005-0.056 0.002-1.063-1.256-2.927-1.256-2.927l-0.551-0.523c-0.586-0.556-1.3-0.902-2.044-1.041 0.153-0.434 0.24-0.886 0.24-1.338 0-1.063-0.421-2.135-1.256-2.926l-0.551-0.524c-0.784-0.744-1.799-1.114-2.802-1.114-0.117 0-0.233 0.024-0.349 0.034-0.032-1.020-0.443-2.040-1.243-2.8v-0.001l-0.55-0.522c-0.784-0.744-1.799-1.115-2.802-1.114-1.069-0.001-2.145 0.419-2.94 1.249l-1.31 1.366-5.8-4.947c-0.417-0.357-0.625-0.85-0.626-1.356 0.002-0.424 0.146-0.84 0.454-1.185l6.12-6.854c0.242-0.273 0.602-0.519 1.023-0.69s0.899-0.265 1.345-0.264c0.389 0 0.754 0.070 1.045 0.196l3.36 1.434c0.947 0.399 2.046 0.563 3.152 0.566 1.106-0.003 2.204-0.167 3.152-0.566l3.358-1.433c0.518-0.226 1.299-0.366 2.076-0.363 0.859-0.005 1.72 0.172 2.218 0.427 0.317 0.158 0.618 0.308 0.897 0.448l-3.425 2.408c-1.101 0.774-1.694 2.005-1.692 3.246-0.002 0.822 0.26 1.659 0.789 2.369l-0.002-0.002 0.453 0.608c0.859 1.142 2.199 1.729 3.538 1.732 0.756 0 1.527-0.191 2.213-0.603l2.048-1.23c0.418-0.255 1.049-0.417 1.701-0.414 0.767-0.005 1.539 0.222 2.003 0.564l5.667 4.062c1.261 0.904 3.315 2.58 4.454 3.634l6.559 6.065c0.389 0.36 0.583 0.846 0.585 1.347zM62.413 12.735l-8.738 9.662-3.967-3.667c-1.243-1.147-3.292-2.82-4.666-3.807l-5.665-4.062c-0.961-0.68-2.137-0.975-3.299-0.979-0.99 0.003-1.986 0.218-2.846 0.731l-2.046 1.23c-0.314 0.188-0.684 0.285-1.069 0.285-0.687 0.002-1.375-0.319-1.759-0.841l-0.451-0.607-0.002-0.002c-0.24-0.324-0.352-0.687-0.354-1.054 0.003-0.556 0.26-1.095 0.755-1.445l6.056-4.255c0.524-0.379 1.455-0.645 2.34-0.639 0.615-0.003 1.202 0.121 1.604 0.319l4.931 2.389c0.841 0.403 1.789 0.569 2.744 0.571 1.227-0.006 2.466-0.273 3.487-0.9l5.037-3.133c0.322-0.201 0.707-0.304 1.109-0.304 0.68-0.002 1.361 0.306 1.747 0.809l5.163 6.607c0.298 0.378 0.47 0.912 0.47 1.466 0.001 0.618-0.218 1.227-0.582 1.625z"></path>
</svg>
