<!-- Generated by IcoMoon.io -->
<svg version="1.1" xmlns="http://www.w3.org/2000/svg" width="43" height="43" viewBox="0 0 43 43">
<title>iis</title>
<path fill="#002e6c" d="M20.259 31.821c-0.323-0.237-0.779-0.168-1.016 0.156l-0.090 0.122c-0.237 0.323-0.168 0.778 0.155 1.016 0.13 0.096 0.281 0.142 0.431 0.142 0.223 0 0.443-0.102 0.585-0.295l0.091-0.124c0.238-0.324 0.168-0.779-0.156-1.016z"></path>
<path fill="#002e6c" d="M20.449 38.737l-1.87-3.4 1.746-2.378c0.238-0.324 0.168-0.779-0.156-1.016s-0.779-0.168-1.016 0.156l-2.020 2.752c-0.168 0.228-0.187 0.533-0.051 0.781l2.094 3.806c0.132 0.241 0.381 0.377 0.638 0.377 0.119-0 0.239-0.029 0.35-0.090 0.352-0.193 0.48-0.635 0.287-0.987z"></path>
<path fill="#002e6c" d="M25.868 34.851l-2.012-2.741c-0.167-0.227-0.45-0.338-0.726-0.283s-0.497 0.264-0.565 0.537c-0.052 0.21-0.009 0.432 0.119 0.607l1.737 2.366-1.857 3.377c-0.059 0.107-0.090 0.228-0.090 0.351 0 0.332 0.225 0.622 0.546 0.704 0.060 0.016 0.121 0.023 0.181 0.023 0.26 0 0.507-0.14 0.637-0.377l2.081-3.783c0.136-0.248 0.116-0.553-0.051-0.781z"></path>
<path fill="#002e6c" d="M27.020 23.426c-0.239-0.126-0.528-0.108-0.751 0.045-0.432 0.298-0.834 0.614-1.193 0.938-1.956 1.769-3.815 1.529-3.888 1.519-0.044-0.007-0.088-0.010-0.133-0.009-0.773 0.020-2.167-0.687-3.642-1.845-0.226-0.177-0.457-0.346-0.688-0.502-0.223-0.15-0.511-0.166-0.748-0.039s-0.386 0.373-0.386 0.642v2.494c0 0.221 0.1 0.429 0.272 0.567 0.020 0.016 0.041 0.031 0.063 0.045l5.155 3.445c0.001 0.001 0.002 0.001 0.002 0.002l0.014 0.009c0.121 0.080 0.261 0.121 0.402 0.121 0.118 0 0.236-0.029 0.344-0.086 0.023-0.012 0.045-0.026 0.066-0.040 0.002-0.002 0.005-0.003 0.007-0.005s0.006-0.004 0.009-0.006l5.143-3.437c0.021-0.013 0.041-0.027 0.060-0.042 0.176-0.138 0.28-0.349 0.28-0.573v-2.599c0-0.27-0.15-0.518-0.389-0.644zM25.954 26.28l-4.454 2.976-4.454-2.976v-0.661c1.085 0.788 2.68 1.755 3.981 1.755 0.003 0 0.006 0 0.008 0 0.437 0.048 2.663 0.18 4.92-1.8v0.706z"></path>
<path fill="#002e6c" d="M22.217 30.011c-0.048-0.288-0.264-0.52-0.548-0.588s-0.582 0.041-0.755 0.277l-1.671 2.276c-0.238 0.324-0.168 0.779 0.156 1.016 0.13 0.095 0.28 0.141 0.43 0.141 0.224 0 0.444-0.103 0.587-0.297l1.662-2.264c0.095-0.124 0.15-0.277 0.15-0.442-0-0.040-0.003-0.080-0.010-0.12z"></path>
<path fill="#002e6c" d="M32.576 6.574c-0.014-0.114-0.355-2.572-2.669-3.541 0.067-0.432 0.060-0.986-0.214-1.526-0.368-0.725-1.095-1.198-2.161-1.405-0.046-0.009-0.092-0.013-0.139-0.013h-9.758c-3.962 0-7.186 3.223-7.186 7.186v3.829c0 0.998 0.34 1.97 0.957 2.739 0.306 0.381 0.683 1.047 0.74 2.053 0.022 0.393 0.351 0.696 0.746 0.686 0.393-0.011 0.706-0.333 0.706-0.727v-4.992c0.494-2.042 2.178-2.439 2.468-2.493h3.156c0.371 0 0.736-0.057 1.085-0.169 0.6-0.192 1.552-0.547 2.245-0.81 0.464-0.176 0.977-0.183 1.446-0.018l3.379 1.186c1.689 0.623 1.991 2.106 2.028 2.339v5.991c0 0.381 0.293 0.696 0.673 0.725 0.018 0.001 0.037 0.002 0.055 0.002 0.357-0 0.664-0.261 0.718-0.619 0.003-0.019 0.293-1.894 1.229-3.395 0.326-0.523 0.498-1.119 0.498-1.723v-5.212c0-0.031-0.002-0.061-0.006-0.092zM31.128 11.877c0 0.325-0.092 0.647-0.265 0.933v-1.963c0-0.026-0.001-0.052-0.004-0.079-0.011-0.106-0.312-2.597-2.981-3.578-0.003-0.001-0.007-0.002-0.010-0.004l-3.384-1.188c-0.382-0.134-0.781-0.201-1.18-0.201-0.429 0-0.858 0.077-1.264 0.232-0.971 0.369-1.722 0.64-2.173 0.785-0.205 0.066-0.421 0.099-0.641 0.099h-3.215c-0.031 0-0.062 0.002-0.093 0.006-0.123 0.016-3.023 0.428-3.753 3.699-0.012 0.052-0.017 0.105-0.017 0.158v1.496c-0.158-0.366-0.242-0.765-0.242-1.172v-3.829c0-3.16 2.571-5.732 5.732-5.732h9.685c0.401 0.085 0.888 0.261 1.073 0.617 0.226 0.436-0.031 1.037-0.032 1.038-0.093 0.198-0.092 0.427 0.003 0.624s0.273 0.341 0.485 0.392c1.851 0.446 2.228 2.221 2.278 2.508v5.156z"></path>
<path fill="#002e6c" d="M30.858 10.769c-0.011-0.106-0.312-2.597-2.981-3.578-0.003-0.001-0.007-0.002-0.010-0.004l-3.384-1.188c-0.792-0.278-1.66-0.267-2.444 0.031-0.971 0.369-1.722 0.64-2.173 0.785-0.205 0.066-0.421 0.099-0.641 0.099h-3.215c-0.031 0-0.062 0.002-0.093 0.006-0.123 0.016-3.023 0.428-3.753 3.699-0.012 0.052-0.017 0.105-0.017 0.158v6.25c0 0.005 0 0.011 0 0.016 0.005 0.217 0.158 5.344 3.701 7.689l0.018 0.013c0.015 0.011 0.030 0.021 0.046 0.032 0.202 0.136 0.405 0.284 0.603 0.44 1.032 0.81 2.977 2.156 4.511 2.156 0.003 0 0.006 0 0.008 0 0.083 0.009 0.232 0.021 0.434 0.021 0.869 0 2.725-0.228 4.583-1.908 0.312-0.282 0.662-0.557 1.043-0.819l0.054-0.038c0.018-0.013 0.035-0.025 0.054-0.037 1.182-0.794 3.228-2.842 3.658-7.64 0.002-0.021 0.003-0.043 0.003-0.065v-6.041c-0-0.026-0.002-0.052-0.004-0.079zM29.409 16.855c-0.396 4.33-2.241 6.009-3.017 6.53-0.028 0.019-0.055 0.038-0.082 0.057l-0.040 0.028c-0.432 0.298-0.834 0.614-1.193 0.938-1.949 1.762-3.802 1.531-3.893 1.518-0.042-0.006-0.085-0.009-0.128-0.008-0.773 0.020-2.167-0.687-3.642-1.845-0.226-0.177-0.457-0.346-0.687-0.502l-0.018-0.013c-0.017-0.012-0.035-0.025-0.055-0.038-2.859-1.892-3.046-6.32-3.052-6.505v-6.156c0.495-2.049 2.191-2.442 2.467-2.493h3.157c0.371 0 0.736-0.057 1.085-0.169 0.6-0.192 1.552-0.547 2.245-0.81 0.464-0.176 0.977-0.183 1.446-0.018l3.379 1.186c1.689 0.623 1.991 2.106 2.028 2.339v5.958z"></path>
<path fill="#002e6c" d="M22.15 29.806c-0.113-0.227-0.336-0.378-0.589-0.399s-0.498 0.090-0.648 0.294l-1.742 2.372c-0.237 0.324-0.168 0.778 0.155 1.016 0.13 0.095 0.281 0.142 0.43 0.142 0.223 0 0.443-0.102 0.586-0.296l1.742-2.363c0.092-0.125 0.142-0.285 0.142-0.44 0-0.113-0.026-0.224-0.077-0.325z"></path>
<path fill="#002e6c" d="M22.197 41.512c-0.273-0.286-0.724-0.301-1.016-0.034l-0.166 0.152c-0.249 0.228-0.309 0.596-0.144 0.891l0.005 0.009c0.111 0.199 0.309 0.334 0.535 0.366 0.033 0.005 0.067 0.007 0.1 0.007 0.191 0 0.377-0.076 0.514-0.213l0.161-0.161c0.279-0.279 0.284-0.731 0.011-1.016z"></path>
<path fill="#002e6c" d="M21.985 41.63l-0.166-0.152c-0.292-0.267-0.743-0.252-1.016 0.034s-0.268 0.737 0.011 1.017l0.161 0.161c0.137 0.137 0.323 0.213 0.514 0.213 0.034 0 0.069-0.002 0.103-0.007 0.226-0.032 0.424-0.169 0.535-0.37l0.005-0.009c0.161-0.294 0.1-0.66-0.147-0.886z"></path>
<path fill="#002e6c" d="M21.998 41.641l-0.001-0.001c-0.112-0.105-0.257-0.174-0.417-0.192-0.214-0.023-0.423 0.049-0.575 0.191l-0.002 0.002c-0.147 0.134-0.233 0.323-0.237 0.521s0.073 0.391 0.214 0.531l0.008 0.008c0.142 0.141 0.327 0.211 0.513 0.211s0.372-0.071 0.514-0.213l0.008-0.008c0.14-0.141 0.217-0.332 0.213-0.531s-0.090-0.387-0.237-0.521z"></path>
<path fill="#002e6c" d="M21.736 29.427c-0.301-0.096-0.631 0.015-0.815 0.273-0.205 0.289-0.171 0.682 0.079 0.933 0.141 0.141 0.327 0.214 0.515 0.214 0.146 0 0.293-0.044 0.42-0.133 0.193-0.136 0.309-0.358 0.309-0.595v-0.002c0-0.316-0.206-0.595-0.507-0.691z"></path>
<path fill="#002e6c" d="M22.091 29.694l-0.006-0.008c-0.187-0.252-0.514-0.356-0.812-0.258s-0.499 0.377-0.499 0.69v0.012c0 0.268 0.15 0.512 0.386 0.638 0.107 0.057 0.225 0.086 0.342 0.086 0.142 0 0.284-0.041 0.406-0.122 0.166-0.11 0.28-0.284 0.315-0.48s-0.013-0.398-0.131-0.558z"></path>
<path fill="#002e6c" d="M30.149 27.411c-0.075-0.199-0.234-0.355-0.435-0.427l-2.788-0.999c-0.023-0.008-0.046-0.015-0.069-0.021-0.199-0.050-0.41-0.013-0.58 0.101l-5.165 3.451c-0.001 0.001-0.003 0.002-0.004 0.003l0.406 0.603-0.415-0.597c-0.152 0.1-0.26 0.254-0.304 0.43-0.024 0.097-0.028 0.198-0.012 0.296 0.019 0.112 0.064 0.219 0.131 0.311l3.781 5.15c0.137 0.187 0.355 0.297 0.586 0.297 0.016 0 0.032-0.001 0.048-0.002 0.248-0.016 0.47-0.158 0.59-0.375l4.187-7.613c0.103-0.187 0.118-0.409 0.043-0.608zM25.193 33.933l-2.658-3.62 4.245-2.836 1.64 0.588-3.228 5.868z"></path>
<path fill="#002e6c" d="M22.216 30.005c-0.034-0.195-0.146-0.368-0.311-0.478l-5.182-3.463c-0.165-0.11-0.368-0.148-0.562-0.105-0.030 0.007-0.059 0.015-0.088 0.025l-2.788 0.999c-0.2 0.072-0.359 0.228-0.435 0.427s-0.060 0.421 0.043 0.608l4.187 7.613c0.12 0.218 0.342 0.359 0.59 0.375 0.016 0.001 0.032 0.002 0.047 0.002 0.23 0 0.448-0.11 0.586-0.297l2.020-2.752c0.002-0.002 0.003-0.004 0.005-0.007l1.756-2.392c0.117-0.16 0.164-0.36 0.13-0.555zM19.153 32.099c-0.002 0.002-0.003 0.005-0.005 0.007l-1.341 1.827-3.228-5.868 1.641-0.588 4.245 2.836-1.311 1.786z"></path>
<path fill="#002e6c" d="M42.964 39.822l-0.938-5.663c-0.296-1.785-1.536-3.276-3.237-3.891l-9.073-3.283c-0.28-0.101-0.592-0.022-0.79 0.2s-0.24 0.542-0.108 0.808l1.894 3.799-1.859 0.029c-0.252 0.004-0.485 0.138-0.614 0.355s-0.136 0.485-0.019 0.709l0.762 1.456-7.802 7.138c-0.008 0.007-0.016 0.015-0.023 0.022l-0.161 0.161c-0.228 0.228-0.279 0.58-0.124 0.863l0.006 0.010c0.128 0.233 0.372 0.378 0.638 0.378h18.827c0.782 0 1.521-0.342 2.026-0.939s0.723-1.381 0.595-2.152zM41.261 41.034c-0.229 0.27-0.564 0.425-0.918 0.425h-16.987l7.022-6.423c0.244-0.223 0.307-0.581 0.153-0.874l-0.474-0.906 1.833-0.028c0.25-0.004 0.48-0.136 0.61-0.349s0.141-0.479 0.029-0.702l-1.599-3.206 7.364 2.664c1.207 0.437 2.088 1.495 2.297 2.761l0.938 5.663c0 0 0 0 0 0 0.058 0.349-0.040 0.704-0.269 0.974z"></path>
<path fill="#002e6c" d="M22.004 41.647l-0.008-0.008c-0.288-0.261-0.73-0.249-1.003 0.026l-0.008 0.008c-0.207 0.208-0.268 0.521-0.156 0.792s0.378 0.448 0.671 0.448h0.016c0.301 0 0.57-0.185 0.678-0.466s0.033-0.599-0.19-0.8z"></path>
<path fill="#002e6c" d="M21.981 41.626c-0.165-0.149-0.389-0.214-0.608-0.176s-0.409 0.172-0.516 0.367l-0.005 0.009c-0.153 0.279-0.107 0.626 0.115 0.855l0.003 0.003c0.142 0.147 0.332 0.221 0.523 0.221 0.175 0 0.351-0.063 0.49-0.19l0.008-0.007c0.066-0.060 0.12-0.132 0.16-0.212 0.146-0.293 0.074-0.651-0.169-0.87z"></path>
<path fill="#002e6c" d="M22.013 41.67l-0.003-0.003c-0.002-0.002-0.004-0.004-0.006-0.006l-0.161-0.161c-0.008-0.008-0.015-0.015-0.023-0.022l-7.802-7.138 0.762-1.456c0.117-0.224 0.11-0.492-0.019-0.709s-0.361-0.351-0.614-0.355l-1.859-0.029 1.894-3.799c0.133-0.266 0.090-0.586-0.108-0.808s-0.511-0.301-0.79-0.2l-9.073 3.283c-1.701 0.615-2.942 2.106-3.237 3.891l-0.938 5.663c-0.128 0.772 0.089 1.556 0.595 2.152s1.244 0.938 2.026 0.938h18.843c0.294 0 0.56-0.178 0.672-0.45s0.049-0.585-0.159-0.793zM2.657 41.459c-0.354 0-0.689-0.155-0.917-0.425s-0.327-0.625-0.269-0.975l0.938-5.663c0.21-1.267 1.090-2.325 2.297-2.761l7.364-2.664-1.599 3.206c-0.112 0.224-0.1 0.489 0.029 0.702s0.36 0.345 0.61 0.349l1.833 0.028-0.474 0.906c-0.153 0.292-0.090 0.651 0.153 0.874l7.022 6.424h-16.987z"></path>
<path fill="#002e6c" d="M23.975 32.717c0.052-0.21 0.009-0.432-0.119-0.607l-1.769-2.409c-0.186-0.253-0.514-0.354-0.812-0.256-0.161 0.053-0.294 0.159-0.382 0.296l-1.737 2.357c-0.025 0.034-0.047 0.070-0.066 0.107-0.119 0.238-0.098 0.522 0.054 0.741l0.74 1.062-0.788 4.967c-0.025 0.159 0.003 0.323 0.081 0.464l1.688 3.069c0.128 0.232 0.372 0.377 0.637 0.377s0.509-0.144 0.637-0.377l1.701-3.092c0.059-0.107 0.090-0.228 0.090-0.35v-0c0-0.038-0.003-0.076-0.009-0.114l-0.784-4.943 0.732-1.050c0.050-0.073 0.087-0.154 0.109-0.24zM21.5 40.648l-0.931-1.693 0.795-5.010c0.029-0.186-0.014-0.375-0.121-0.529l-0.609-0.875 0.869-1.179 0.873 1.19-0.602 0.864c-0.107 0.154-0.151 0.344-0.121 0.529l0.791 4.987-0.943 1.715z"></path>
</svg>
