<!-- Generated by IcoMoon.io -->
<svg version="1.1" xmlns="http://www.w3.org/2000/svg" width="43" height="43" viewBox="0 0 43 43">
<title>uep</title>
<path fill="#002e6c" d="M42.283 41.567h-9.517l-4.459-13.377 10.013-5.34c0-0 0.001-0 0.001-0.001 0.008-0.004 0.016-0.009 0.023-0.014 0.256-0.148 0.366-0.397 0.355-0.641v-1.41h0.717c0.396 0 0.717-0.321 0.717-0.717s-0.321-0.717-0.717-0.717h-0.717v-0.717h0.717c0.396 0 0.717-0.321 0.717-0.717s-0.321-0.717-0.717-0.717h-0.717v-0.717h0.717c0.396 0 0.717-0.321 0.717-0.717s-0.321-0.717-0.717-0.717h-2.867c-0.396 0-0.717 0.321-0.717 0.717s0.321 0.717 0.717 0.717h0.717v0.717h-0.717c-0.396 0-0.717 0.321-0.717 0.717s0.321 0.717 0.717 0.717h0.717v0.717h-0.717c-0.396 0-0.717 0.321-0.717 0.717s0.321 0.717 0.717 0.717h0.717v0.717h-9.317v-6.020l10.371-5.531c0-0 0.001-0 0.001-0.001 0.008-0.004 0.016-0.009 0.023-0.014 0.256-0.148 0.366-0.397 0.355-0.641v-1.41h0.717c0.396 0 0.717-0.321 0.717-0.717s-0.321-0.717-0.717-0.717h-0.717v-0.717h0.717c0.396 0 0.717-0.321 0.717-0.717s-0.321-0.717-0.717-0.717h-0.717v-0.717h0.717c0.396 0 0.717-0.321 0.717-0.717s-0.321-0.717-0.717-0.717h-2.867c-0.396 0-0.717 0.321-0.717 0.717s0.321 0.717 0.717 0.717h0.717v0.717h-0.717c-0.396 0-0.717 0.321-0.717 0.717s0.321 0.717 0.717 0.717h0.717v0.717h-0.717c-0.396 0-0.717 0.321-0.717 0.717s0.321 0.717 0.717 0.717h0.717v0.717h-9.555l-2.986-7.167h3.225v2.15c0 0.396 0.321 0.717 0.717 0.717s0.717-0.321 0.717-0.717v-2.867c0-0.396-0.321-0.717-0.717-0.717h-14.333c-0.396 0-0.717 0.321-0.717 0.717v2.867c0 0.396 0.321 0.717 0.717 0.717s0.717-0.321 0.717-0.717v-2.15h3.225l-2.986 7.167h-9.555v-0.717h0.717c0.396 0 0.717-0.321 0.717-0.717s-0.321-0.717-0.717-0.717h-0.717v-0.717h0.717c0.396 0 0.717-0.321 0.717-0.717s-0.321-0.717-0.717-0.717h-0.717v-0.717h0.717c0.396 0 0.717-0.321 0.717-0.717s-0.321-0.717-0.717-0.717h-2.867c-0.396 0-0.717 0.321-0.717 0.717s0.321 0.717 0.717 0.717h0.717v0.717h-0.717c-0.396 0-0.717 0.321-0.717 0.717s0.321 0.717 0.717 0.717h0.717v0.717h-0.717c-0.396 0-0.717 0.321-0.717 0.717s0.321 0.717 0.717 0.717h0.717v1.41c-0.010 0.244 0.099 0.493 0.355 0.641 0.008 0.005 0.015 0.009 0.023 0.014 0 0 0.001 0 0.001 0.001l10.371 5.531v6.020h-9.317v-0.717h0.717c0.396 0 0.717-0.321 0.717-0.717s-0.321-0.717-0.717-0.717h-0.717v-0.717h0.717c0.396 0 0.717-0.321 0.717-0.717s-0.321-0.717-0.717-0.717h-0.717v-0.717h0.717c0.396 0 0.717-0.321 0.717-0.717s-0.321-0.717-0.717-0.717h-2.867c-0.396 0-0.717 0.321-0.717 0.717s0.321 0.717 0.717 0.717h0.717v0.717h-0.717c-0.396 0-0.717 0.321-0.717 0.717s0.321 0.717 0.717 0.717h0.717v0.717h-0.717c-0.396 0-0.717 0.321-0.717 0.717s0.321 0.717 0.717 0.717h0.717v1.41c-0.010 0.244 0.099 0.493 0.355 0.641 0.008 0.005 0.015 0.009 0.023 0.014 0 0 0.001 0 0.001 0.001l10.013 5.34-4.459 13.377h-9.517c-0.396 0-0.717 0.321-0.717 0.717s0.321 0.717 0.717 0.717h10.018c0.001 0 0.002 0 0.002 0h21.525c0.001 0 0.002 0 0.002 0h10.018c0.396 0 0.717-0.321 0.717-0.717s-0.321-0.717-0.717-0.717zM21.5 10.033h5.017v4.3h-10.033v-4.3h5.017zM26.726 28.667h0.229l3.743 11.23-8.136-7.429 4.163-3.801zM21.5 31.498l-3.101-2.831h6.201l-3.101 2.831zM22.852 18.633l3.664-2.29v4.581l-3.664-2.29zM24.734 21.5h-6.469l3.234-2.022 3.234 2.022zM21.5 17.788l-3.234-2.022h6.469l-3.234 2.022zM20.148 18.633l-3.664 2.29v-4.581l3.664 2.29zM26.517 22.933v3.984l-0.346 0.316h-9.341l-0.346-0.316v-3.984h10.033zM16.044 28.667h0.229l4.163 3.801-8.136 7.429 3.743-11.23zM21.5 33.438l8.902 8.128h-17.804l8.902-8.128zM35.117 22.933l-7.167 3.822v-3.822h7.167zM27.95 13.855v-3.822h7.167l-7.167 3.822zM19.828 1.433h3.344l2.986 7.167h-9.317l2.986-7.167zM7.883 10.033h7.167v3.822l-7.167-3.822zM15.050 22.933v3.822l-7.167-3.822h7.167z"></path>
</svg>
