<!-- Generated by IcoMoon.io -->
<svg version="1.1" xmlns="http://www.w3.org/2000/svg" width="43" height="43" viewBox="0 0 43 43">
<title>ufk</title>
<path fill="#002e6c" d="M41.443 1.556c-1.032-1.032-2.482-1.555-4.309-1.555-4.969 0-12.148 3.878-18.737 10.12-0.094 0.089-0.165 0.201-0.207 0.324l-1.868 5.567-2.496-0.4c-0.283-0.045-0.568 0.065-0.747 0.289-5.676 7.13-5.756 16.615-5.706 18.601l-7.142 7.142c-0.31 0.31-0.31 0.813 0 1.122 0.155 0.155 0.358 0.233 0.561 0.233s0.406-0.078 0.561-0.233l7.174-7.174c0.971-0.069 4.073-0.361 8.001-1.45 4.319-1.198 10.472-3.63 15.259-8.417 0.854-0.854 1.69-1.744 2.483-2.645 0.195-0.221 0.251-0.532 0.146-0.808l-0.898-2.35 5.291-3.004c0.115-0.065 0.212-0.158 0.282-0.271 4.19-6.731 5.068-12.373 2.35-15.091zM37.851 15.638l-5.708 3.24c-0.341 0.194-0.49 0.607-0.35 0.973l0.969 2.537c-0.675 0.754-1.379 1.497-2.097 2.214-4.532 4.532-10.398 6.851-14.521 7.999-2.331 0.649-4.384 1.007-5.827 1.202l14.775-14.774c0.31-0.31 0.31-0.813 0-1.122s-0.813-0.31-1.122 0l-14.985 14.985c0.136-3.28 0.939-10.208 5.054-15.638l2.696 0.432c0.383 0.061 0.755-0.163 0.878-0.531l2.019-6.016c6.173-5.806 13.027-9.549 17.502-9.549 1.391 0 2.463 0.366 3.187 1.090 2.076 2.076 1.104 7.151-2.47 12.96z"></path>
</svg>
