<!-- Generated by IcoMoon.io -->
<svg version="1.1" xmlns="http://www.w3.org/2000/svg" width="41" height="43" viewBox="0 0 41 43">
<title>ufoi</title>
<path fill="#002e6c" d="M40.010 41.32h-1.842v-26.746c0-1.245-1.013-2.258-2.258-2.258h-4.117c-1.245 0-2.258 1.013-2.258 2.258v26.746h-4.677v-14.628c0-1.245-1.013-2.258-2.258-2.258h-4.117c-1.245 0-2.258 1.013-2.258 2.258v14.628h-4.677v-7.576c0-1.245-1.013-2.258-2.258-2.258h-4.117c-1.245 0-2.258 1.013-2.258 2.258v7.576h-1.941c-0.464 0-0.84 0.376-0.84 0.84s0.376 0.84 0.84 0.84h39.036c0.464 0 0.84-0.376 0.84-0.84s-0.376-0.84-0.84-0.84zM9.869 41.32h-5.273v-7.576c0-0.319 0.259-0.578 0.578-0.578h4.117c0.319 0 0.578 0.259 0.578 0.578v7.576zM23.178 41.32h-5.273v-14.628c0-0.319 0.259-0.578 0.578-0.578h4.117c0.319 0 0.578 0.259 0.578 0.578v14.628zM36.488 41.32h-5.273v-26.746c0-0.319 0.259-0.578 0.578-0.578h4.117c0.319 0 0.578 0.259 0.578 0.578v26.746z"></path>
<path fill="#002e6c" d="M38.166 0.883c0.012-0.229-0.069-0.462-0.244-0.637s-0.408-0.256-0.637-0.244c-0.014-0.001-0.027-0.002-0.041-0.002h-5.081c-0.464 0-0.84 0.376-0.84 0.84s0.376 0.84 0.84 0.84h3.137l-8.302 8.303-3.131-3.131c-0.157-0.157-0.371-0.246-0.594-0.246s-0.436 0.089-0.594 0.246l-15.098 15.098c-0.328 0.328-0.328 0.86 0 1.188 0.164 0.164 0.379 0.246 0.594 0.246s0.43-0.082 0.594-0.246l14.504-14.504 3.131 3.131c0.328 0.328 0.86 0.328 1.188 0l8.896-8.896v2.84c0 0.464 0.376 0.84 0.84 0.84s0.84-0.376 0.84-0.84v-4.783c0-0.014-0.001-0.027-0.002-0.041z"></path>
<path fill="#002e6c" d="M6.185 25.473c0 0.464-0.376 0.84-0.84 0.84s-0.84-0.376-0.84-0.84c0-0.464 0.376-0.84 0.84-0.84s0.84 0.376 0.84 0.84z"></path>
</svg>
