<!-- Generated by IcoMoon.io -->
<svg version="1.1" xmlns="http://www.w3.org/2000/svg" width="50" height="43" viewBox="0 0 50 43">
<title>ugold</title>
<path fill="#002e6c" d="M18.555 30.556l2.411 10.451h-18.726l2.411-10.451h13.903zM18.728 28.563h-14.249c-0.777 0-1.555 0.619-1.73 1.376l-2.697 11.684c-0.174 0.757 0.318 1.376 1.095 1.376h20.912c0.777 0 1.269-0.619 1.095-1.376l-2.696-11.685c-0.174-0.756-0.954-1.375-1.73-1.375v0zM45.068 30.556l2.411 10.451h-18.727l2.413-10.451h13.903zM45.243 28.563h-14.252c-0.776 0-1.555 0.619-1.729 1.376l-2.697 11.685c-0.174 0.757 0.318 1.376 1.095 1.376h20.912c0.776 0 1.268-0.619 1.095-1.376l-2.695-11.685c-0.174-0.757-0.954-1.376-1.73-1.376v0zM31.868 13.116l2.413 10.451h-18.727l2.411-10.451h13.902zM32.042 11.123h-14.249c-0.777 0-1.555 0.62-1.73 1.376l-2.696 11.685c-0.174 0.757 0.318 1.376 1.095 1.376h20.912c0.776 0 1.268-0.619 1.095-1.376l-2.697-11.685c-0.174-0.757-0.954-1.376-1.73-1.376v0zM15.026 6.71l4.221-1.2-4.192-1.292-1.199-4.219-1.292 4.191-4.221 1.2 4.194 1.293 1.199 4.219 1.29-4.193zM40.947 13.355l2.934-0.96-2.983-0.793-0.962-2.932-0.79 2.982-2.934 0.962 2.983 0.792 0.96 2.932 0.792-2.984z"></path>
</svg>
