<?xml version="1.0" encoding="utf-8"?>
<!-- Generator: Adobe Illustrator 19.0.0, SVG Export Plug-In . SVG Version: 6.00 Build 0)  -->
<svg version="1.1" id="Layer_1" xmlns="http://www.w3.org/2000/svg" xmlns:xlink="http://www.w3.org/1999/xlink" x="0px" y="0px"
	 viewBox="0 0 286 49" style="enable-background:new 0 0 286 49;" xml:space="preserve">
<style type="text/css">
	.st0{fill:#002E6C;}
</style>
<path id="Shape" class="st0" d="M141.8,40.8h-5.3V29.4l-6.2,11.4H124V24.5h5.3v11.2l6-11.2h6.4v16.3H141.8z M123,40.8h-7.2
	c-4,0-7.1-3.3-7.1-7.9c0-5.2,3.1-8.4,7.1-8.4h7.2v4.1h-4.6c-2.8,0-4.4,0.9-4.4,4.2s1.6,4,4.4,4h4.6V40.8L123,40.8z M50.3,40.8h-5.8
	l2.6-4.6l-6.6-11.7h5.9l3.4,6.9l3.4-6.9H59L50.3,40.8L50.3,40.8z M152.7,37c1.1,0,1.1-0.9,1.1-1.4c0-0.3,0-1.2-1.2-1.2H148v2.5h4.6
	V37z M153.5,30.7c5.5,0,5.5,3.2,5.5,5c0,1.8,0,5.1-5.5,5.1h-10.7V24.5h15.4v4.1h-10.2v2.2H153.5L153.5,30.7z M83.1,29.1L83.1,29.1
	l-1.7,4.5h3.4L83.1,29.1L83.1,29.1z M73.2,40.8L80,24.5h6l5.6,13.6l5.6-13.6h5.8l6.9,16.3h-5.6l-4.2-11.7l-4.2,11.7h-8.8l-1.2-3.4
	H80l-1.2,3.4H73.2L73.2,40.8z M64.8,28.6v3.5h3.7c0.7,0,2.1,0,2.1-1.8c0-1.7-1.5-1.7-2-1.7H64.8L64.8,28.6z M64.8,40.8h-5.3V24.5
	h10.8c5.5,0,5.5,4.5,5.5,5.6c0,1.1,0,6-5.5,6h-5.6v4.8H64.8z"/>
<path id="Shape_1_" class="st0" d="M16.4,21.4C8.3,21.4,1.5,27,1.5,34.1c0,2.3,0.7,4.5,2.1,6.7c3.8-3.6,7.1-10.1,8.5-17.9
	c0.1-0.1,1.2-0.3,2.1-0.3c0,1.1-0.9,17.8-6.9,23.7C3,43.3,0,38.3,0,32.7c0-7.8,5.4-14.3,12.7-15.9c0.5-5.2,0.5-7.4,0.5-10h1.2
	c0,0,0,7.3-0.1,9.6c0.5,0,0.9-0.1,1.4-0.1V0h1.1v16.3c0.5,0,0.9,0.1,1.4,0.1c0-2.4-0.1-9.6-0.1-9.6h1.2c0,2.6,0,4.8,0.5,10
	c7.2,1.6,12.7,8.2,12.7,15.9c0,5.7-2.9,10.7-7.3,13.6c-5.9-5.9-6.9-22.6-6.9-23.7c0.9,0.1,2,0.3,2.1,0.3c1.4,7.8,4.6,14.3,8.5,17.9
	c1.5-2.2,2.1-4.4,2.1-6.7C31.2,27,24.4,21.4,16.4,21.4 M11.3,48.2c2.4-4.1,3.7-11.9,4.2-25.7h1.7c0.6,13.7,1.8,21.6,4.2,25.7
	c-1.6,0.6-3.3,0.8-5.1,0.8C14.6,49,12.9,48.6,11.3,48.2"/>
<rect id="Rectangle-path" x="174.6" y="20.3" class="st0" width="1.1" height="24.6"/>
</svg>
